G04 #@! TF.GenerationSoftware,KiCad,Pcbnew,(5.1.4)-1*
G04 #@! TF.CreationDate,2020-12-29T20:37:27-06:00*
G04 #@! TF.ProjectId,lets_split,6c657473-5f73-4706-9c69-742e6b696361,rev?*
G04 #@! TF.SameCoordinates,Original*
G04 #@! TF.FileFunction,Legend,Top*
G04 #@! TF.FilePolarity,Positive*
%FSLAX46Y46*%
G04 Gerber Fmt 4.6, Leading zero omitted, Abs format (unit mm)*
G04 Created by KiCad (PCBNEW (5.1.4)-1) date 2020-12-29 20:37:27*
%MOMM*%
%LPD*%
G04 APERTURE LIST*
%ADD10C,0.300000*%
%ADD11C,0.250000*%
%ADD12C,0.010000*%
%ADD13C,0.381000*%
%ADD14C,0.200000*%
%ADD15C,0.150000*%
%ADD16C,0.304800*%
G04 APERTURE END LIST*
D10*
X58301714Y-107861571D02*
X58301714Y-106361571D01*
X58801714Y-107433000D01*
X59301714Y-106361571D01*
X59301714Y-107861571D01*
X60230285Y-107861571D02*
X60087428Y-107790142D01*
X60016000Y-107718714D01*
X59944571Y-107575857D01*
X59944571Y-107147285D01*
X60016000Y-107004428D01*
X60087428Y-106933000D01*
X60230285Y-106861571D01*
X60444571Y-106861571D01*
X60587428Y-106933000D01*
X60658857Y-107004428D01*
X60730285Y-107147285D01*
X60730285Y-107575857D01*
X60658857Y-107718714D01*
X60587428Y-107790142D01*
X60444571Y-107861571D01*
X60230285Y-107861571D01*
X62016000Y-107861571D02*
X62016000Y-106361571D01*
X62016000Y-107790142D02*
X61873142Y-107861571D01*
X61587428Y-107861571D01*
X61444571Y-107790142D01*
X61373142Y-107718714D01*
X61301714Y-107575857D01*
X61301714Y-107147285D01*
X61373142Y-107004428D01*
X61444571Y-106933000D01*
X61587428Y-106861571D01*
X61873142Y-106861571D01*
X62016000Y-106933000D01*
X62730285Y-107861571D02*
X62730285Y-106861571D01*
X62730285Y-106361571D02*
X62658857Y-106433000D01*
X62730285Y-106504428D01*
X62801714Y-106433000D01*
X62730285Y-106361571D01*
X62730285Y-106504428D01*
X63230285Y-106861571D02*
X63801714Y-106861571D01*
X63444571Y-107861571D02*
X63444571Y-106575857D01*
X63516000Y-106433000D01*
X63658857Y-106361571D01*
X63801714Y-106361571D01*
X64301714Y-107861571D02*
X64301714Y-106861571D01*
X64301714Y-106361571D02*
X64230285Y-106433000D01*
X64301714Y-106504428D01*
X64373142Y-106433000D01*
X64301714Y-106361571D01*
X64301714Y-106504428D01*
X65587428Y-107790142D02*
X65444571Y-107861571D01*
X65158857Y-107861571D01*
X65016000Y-107790142D01*
X64944571Y-107647285D01*
X64944571Y-107075857D01*
X65016000Y-106933000D01*
X65158857Y-106861571D01*
X65444571Y-106861571D01*
X65587428Y-106933000D01*
X65658857Y-107075857D01*
X65658857Y-107218714D01*
X64944571Y-107361571D01*
X66944571Y-107861571D02*
X66944571Y-106361571D01*
X66944571Y-107790142D02*
X66801714Y-107861571D01*
X66516000Y-107861571D01*
X66373142Y-107790142D01*
X66301714Y-107718714D01*
X66230285Y-107575857D01*
X66230285Y-107147285D01*
X66301714Y-107004428D01*
X66373142Y-106933000D01*
X66516000Y-106861571D01*
X66801714Y-106861571D01*
X66944571Y-106933000D01*
X69301714Y-107075857D02*
X69516000Y-107147285D01*
X69587428Y-107218714D01*
X69658857Y-107361571D01*
X69658857Y-107575857D01*
X69587428Y-107718714D01*
X69516000Y-107790142D01*
X69373142Y-107861571D01*
X68801714Y-107861571D01*
X68801714Y-106361571D01*
X69301714Y-106361571D01*
X69444571Y-106433000D01*
X69516000Y-106504428D01*
X69587428Y-106647285D01*
X69587428Y-106790142D01*
X69516000Y-106933000D01*
X69444571Y-107004428D01*
X69301714Y-107075857D01*
X68801714Y-107075857D01*
X70158857Y-106861571D02*
X70516000Y-107861571D01*
X70873142Y-106861571D02*
X70516000Y-107861571D01*
X70373142Y-108218714D01*
X70301714Y-108290142D01*
X70158857Y-108361571D01*
X56694571Y-110411571D02*
X56694571Y-108911571D01*
X57051714Y-108911571D01*
X57265999Y-108983000D01*
X57408857Y-109125857D01*
X57480285Y-109268714D01*
X57551714Y-109554428D01*
X57551714Y-109768714D01*
X57480285Y-110054428D01*
X57408857Y-110197285D01*
X57265999Y-110340142D01*
X57051714Y-110411571D01*
X56694571Y-110411571D01*
X58837428Y-110411571D02*
X58837428Y-109625857D01*
X58765999Y-109483000D01*
X58623142Y-109411571D01*
X58337428Y-109411571D01*
X58194571Y-109483000D01*
X58837428Y-110340142D02*
X58694571Y-110411571D01*
X58337428Y-110411571D01*
X58194571Y-110340142D01*
X58123142Y-110197285D01*
X58123142Y-110054428D01*
X58194571Y-109911571D01*
X58337428Y-109840142D01*
X58694571Y-109840142D01*
X58837428Y-109768714D01*
X59551714Y-110411571D02*
X59551714Y-108911571D01*
X59694571Y-109840142D02*
X60123142Y-110411571D01*
X60123142Y-109411571D02*
X59551714Y-109983000D01*
X60980285Y-110411571D02*
X60837428Y-110340142D01*
X60765999Y-110268714D01*
X60694571Y-110125857D01*
X60694571Y-109697285D01*
X60765999Y-109554428D01*
X60837428Y-109483000D01*
X60980285Y-109411571D01*
X61194571Y-109411571D01*
X61337428Y-109483000D01*
X61408857Y-109554428D01*
X61480285Y-109697285D01*
X61480285Y-110125857D01*
X61408857Y-110268714D01*
X61337428Y-110340142D01*
X61194571Y-110411571D01*
X60980285Y-110411571D01*
X61908857Y-109411571D02*
X62480285Y-109411571D01*
X62123142Y-108911571D02*
X62123142Y-110197285D01*
X62194571Y-110340142D01*
X62337428Y-110411571D01*
X62480285Y-110411571D01*
X63623142Y-110411571D02*
X63623142Y-109625857D01*
X63551714Y-109483000D01*
X63408857Y-109411571D01*
X63123142Y-109411571D01*
X62980285Y-109483000D01*
X63623142Y-110340142D02*
X63480285Y-110411571D01*
X63123142Y-110411571D01*
X62980285Y-110340142D01*
X62908857Y-110197285D01*
X62908857Y-110054428D01*
X62980285Y-109911571D01*
X63123142Y-109840142D01*
X63480285Y-109840142D01*
X63623142Y-109768714D01*
X65980285Y-109625857D02*
X66194571Y-109697285D01*
X66266000Y-109768714D01*
X66337428Y-109911571D01*
X66337428Y-110125857D01*
X66266000Y-110268714D01*
X66194571Y-110340142D01*
X66051714Y-110411571D01*
X65480285Y-110411571D01*
X65480285Y-108911571D01*
X65980285Y-108911571D01*
X66123142Y-108983000D01*
X66194571Y-109054428D01*
X66266000Y-109197285D01*
X66266000Y-109340142D01*
X66194571Y-109483000D01*
X66123142Y-109554428D01*
X65980285Y-109625857D01*
X65480285Y-109625857D01*
X66980285Y-110411571D02*
X66980285Y-109411571D01*
X66980285Y-109697285D02*
X67051714Y-109554428D01*
X67123142Y-109483000D01*
X67266000Y-109411571D01*
X67408857Y-109411571D01*
X67908857Y-110411571D02*
X67908857Y-109411571D01*
X67908857Y-108911571D02*
X67837428Y-108983000D01*
X67908857Y-109054428D01*
X67980285Y-108983000D01*
X67908857Y-108911571D01*
X67908857Y-109054428D01*
X68408857Y-109411571D02*
X68980285Y-109411571D01*
X68623142Y-108911571D02*
X68623142Y-110197285D01*
X68694571Y-110340142D01*
X68837428Y-110411571D01*
X68980285Y-110411571D01*
X69266000Y-109411571D02*
X69837428Y-109411571D01*
X69480285Y-108911571D02*
X69480285Y-110197285D01*
X69551714Y-110340142D01*
X69694571Y-110411571D01*
X69837428Y-110411571D01*
X70551714Y-110411571D02*
X70408857Y-110340142D01*
X70337428Y-110268714D01*
X70266000Y-110125857D01*
X70266000Y-109697285D01*
X70337428Y-109554428D01*
X70408857Y-109483000D01*
X70551714Y-109411571D01*
X70766000Y-109411571D01*
X70908857Y-109483000D01*
X70980285Y-109554428D01*
X71051714Y-109697285D01*
X71051714Y-110125857D01*
X70980285Y-110268714D01*
X70908857Y-110340142D01*
X70766000Y-110411571D01*
X70551714Y-110411571D01*
X71694571Y-109411571D02*
X71694571Y-110411571D01*
X71694571Y-109554428D02*
X71766000Y-109483000D01*
X71908857Y-109411571D01*
X72123142Y-109411571D01*
X72266000Y-109483000D01*
X72337428Y-109625857D01*
X72337428Y-110411571D01*
X115769142Y-106361571D02*
X116054857Y-106361571D01*
X116197714Y-106433000D01*
X116340571Y-106575857D01*
X116412000Y-106861571D01*
X116412000Y-107361571D01*
X116340571Y-107647285D01*
X116197714Y-107790142D01*
X116054857Y-107861571D01*
X115769142Y-107861571D01*
X115626285Y-107790142D01*
X115483428Y-107647285D01*
X115412000Y-107361571D01*
X115412000Y-106861571D01*
X115483428Y-106575857D01*
X115626285Y-106433000D01*
X115769142Y-106361571D01*
X117054857Y-107861571D02*
X117054857Y-106861571D01*
X117054857Y-107147285D02*
X117126285Y-107004428D01*
X117197714Y-106933000D01*
X117340571Y-106861571D01*
X117483428Y-106861571D01*
X117983428Y-107861571D02*
X117983428Y-106861571D01*
X117983428Y-106361571D02*
X117912000Y-106433000D01*
X117983428Y-106504428D01*
X118054857Y-106433000D01*
X117983428Y-106361571D01*
X117983428Y-106504428D01*
X119340571Y-106861571D02*
X119340571Y-108075857D01*
X119269142Y-108218714D01*
X119197714Y-108290142D01*
X119054857Y-108361571D01*
X118840571Y-108361571D01*
X118697714Y-108290142D01*
X119340571Y-107790142D02*
X119197714Y-107861571D01*
X118912000Y-107861571D01*
X118769142Y-107790142D01*
X118697714Y-107718714D01*
X118626285Y-107575857D01*
X118626285Y-107147285D01*
X118697714Y-107004428D01*
X118769142Y-106933000D01*
X118912000Y-106861571D01*
X119197714Y-106861571D01*
X119340571Y-106933000D01*
X120054857Y-107861571D02*
X120054857Y-106861571D01*
X120054857Y-106361571D02*
X119983428Y-106433000D01*
X120054857Y-106504428D01*
X120126285Y-106433000D01*
X120054857Y-106361571D01*
X120054857Y-106504428D01*
X120769142Y-106861571D02*
X120769142Y-107861571D01*
X120769142Y-107004428D02*
X120840571Y-106933000D01*
X120983428Y-106861571D01*
X121197714Y-106861571D01*
X121340571Y-106933000D01*
X121412000Y-107075857D01*
X121412000Y-107861571D01*
X122769142Y-107861571D02*
X122769142Y-107075857D01*
X122697714Y-106933000D01*
X122554857Y-106861571D01*
X122269142Y-106861571D01*
X122126285Y-106933000D01*
X122769142Y-107790142D02*
X122626285Y-107861571D01*
X122269142Y-107861571D01*
X122126285Y-107790142D01*
X122054857Y-107647285D01*
X122054857Y-107504428D01*
X122126285Y-107361571D01*
X122269142Y-107290142D01*
X122626285Y-107290142D01*
X122769142Y-107218714D01*
X123697714Y-107861571D02*
X123554857Y-107790142D01*
X123483428Y-107647285D01*
X123483428Y-106361571D01*
X125912000Y-107075857D02*
X126126285Y-107147285D01*
X126197714Y-107218714D01*
X126269142Y-107361571D01*
X126269142Y-107575857D01*
X126197714Y-107718714D01*
X126126285Y-107790142D01*
X125983428Y-107861571D01*
X125412000Y-107861571D01*
X125412000Y-106361571D01*
X125912000Y-106361571D01*
X126054857Y-106433000D01*
X126126285Y-106504428D01*
X126197714Y-106647285D01*
X126197714Y-106790142D01*
X126126285Y-106933000D01*
X126054857Y-107004428D01*
X125912000Y-107075857D01*
X125412000Y-107075857D01*
X126769142Y-106861571D02*
X127126285Y-107861571D01*
X127483428Y-106861571D02*
X127126285Y-107861571D01*
X126983428Y-108218714D01*
X126912000Y-108290142D01*
X126769142Y-108361571D01*
X115412000Y-108911571D02*
X115769142Y-110411571D01*
X116054857Y-109340142D01*
X116340571Y-110411571D01*
X116697714Y-108911571D01*
X117483428Y-110411571D02*
X117340571Y-110340142D01*
X117269142Y-110268714D01*
X117197714Y-110125857D01*
X117197714Y-109697285D01*
X117269142Y-109554428D01*
X117340571Y-109483000D01*
X117483428Y-109411571D01*
X117697714Y-109411571D01*
X117840571Y-109483000D01*
X117912000Y-109554428D01*
X117983428Y-109697285D01*
X117983428Y-110125857D01*
X117912000Y-110268714D01*
X117840571Y-110340142D01*
X117697714Y-110411571D01*
X117483428Y-110411571D01*
X118840571Y-110411571D02*
X118697714Y-110340142D01*
X118626285Y-110268714D01*
X118554857Y-110125857D01*
X118554857Y-109697285D01*
X118626285Y-109554428D01*
X118697714Y-109483000D01*
X118840571Y-109411571D01*
X119054857Y-109411571D01*
X119197714Y-109483000D01*
X119269142Y-109554428D01*
X119340571Y-109697285D01*
X119340571Y-110125857D01*
X119269142Y-110268714D01*
X119197714Y-110340142D01*
X119054857Y-110411571D01*
X118840571Y-110411571D01*
X119769142Y-109411571D02*
X120340571Y-109411571D01*
X119983428Y-108911571D02*
X119983428Y-110197285D01*
X120054857Y-110340142D01*
X120197714Y-110411571D01*
X120340571Y-110411571D01*
X120840571Y-109411571D02*
X120840571Y-110911571D01*
X120840571Y-109483000D02*
X120983428Y-109411571D01*
X121269142Y-109411571D01*
X121412000Y-109483000D01*
X121483428Y-109554428D01*
X121554857Y-109697285D01*
X121554857Y-110125857D01*
X121483428Y-110268714D01*
X121412000Y-110340142D01*
X121269142Y-110411571D01*
X120983428Y-110411571D01*
X120840571Y-110340142D01*
X122840571Y-110411571D02*
X122840571Y-109625857D01*
X122769142Y-109483000D01*
X122626285Y-109411571D01*
X122340571Y-109411571D01*
X122197714Y-109483000D01*
X122840571Y-110340142D02*
X122697714Y-110411571D01*
X122340571Y-110411571D01*
X122197714Y-110340142D01*
X122126285Y-110197285D01*
X122126285Y-110054428D01*
X122197714Y-109911571D01*
X122340571Y-109840142D01*
X122697714Y-109840142D01*
X122840571Y-109768714D01*
X123340571Y-109411571D02*
X123912000Y-109411571D01*
X123554857Y-108911571D02*
X123554857Y-110197285D01*
X123626285Y-110340142D01*
X123769142Y-110411571D01*
X123912000Y-110411571D01*
X124626285Y-110411571D02*
X124483428Y-110340142D01*
X124412000Y-110268714D01*
X124340571Y-110125857D01*
X124340571Y-109697285D01*
X124412000Y-109554428D01*
X124483428Y-109483000D01*
X124626285Y-109411571D01*
X124840571Y-109411571D01*
X124983428Y-109483000D01*
X125054857Y-109554428D01*
X125126285Y-109697285D01*
X125126285Y-110125857D01*
X125054857Y-110268714D01*
X124983428Y-110340142D01*
X124840571Y-110411571D01*
X124626285Y-110411571D01*
X125983428Y-110411571D02*
X125840571Y-110340142D01*
X125769142Y-110268714D01*
X125697714Y-110125857D01*
X125697714Y-109697285D01*
X125769142Y-109554428D01*
X125840571Y-109483000D01*
X125983428Y-109411571D01*
X126197714Y-109411571D01*
X126340571Y-109483000D01*
X126412000Y-109554428D01*
X126483428Y-109697285D01*
X126483428Y-110125857D01*
X126412000Y-110268714D01*
X126340571Y-110340142D01*
X126197714Y-110411571D01*
X125983428Y-110411571D01*
X126912000Y-109411571D02*
X127483428Y-109411571D01*
X127126285Y-108911571D02*
X127126285Y-110197285D01*
X127197714Y-110340142D01*
X127340571Y-110411571D01*
X127483428Y-110411571D01*
X60964285Y-52403571D02*
X60964285Y-50903571D01*
X60964285Y-51475000D02*
X61107142Y-51403571D01*
X61392857Y-51403571D01*
X61535714Y-51475000D01*
X61607142Y-51546428D01*
X61678571Y-51689285D01*
X61678571Y-52117857D01*
X61607142Y-52260714D01*
X61535714Y-52332142D01*
X61392857Y-52403571D01*
X61107142Y-52403571D01*
X60964285Y-52332142D01*
X62535714Y-52403571D02*
X62392857Y-52332142D01*
X62321428Y-52260714D01*
X62250000Y-52117857D01*
X62250000Y-51689285D01*
X62321428Y-51546428D01*
X62392857Y-51475000D01*
X62535714Y-51403571D01*
X62750000Y-51403571D01*
X62892857Y-51475000D01*
X62964285Y-51546428D01*
X63035714Y-51689285D01*
X63035714Y-52117857D01*
X62964285Y-52260714D01*
X62892857Y-52332142D01*
X62750000Y-52403571D01*
X62535714Y-52403571D01*
X63464285Y-51403571D02*
X64035714Y-51403571D01*
X63678571Y-50903571D02*
X63678571Y-52189285D01*
X63750000Y-52332142D01*
X63892857Y-52403571D01*
X64035714Y-52403571D01*
X64321428Y-51403571D02*
X64892857Y-51403571D01*
X64535714Y-50903571D02*
X64535714Y-52189285D01*
X64607142Y-52332142D01*
X64750000Y-52403571D01*
X64892857Y-52403571D01*
X65607142Y-52403571D02*
X65464285Y-52332142D01*
X65392857Y-52260714D01*
X65321428Y-52117857D01*
X65321428Y-51689285D01*
X65392857Y-51546428D01*
X65464285Y-51475000D01*
X65607142Y-51403571D01*
X65821428Y-51403571D01*
X65964285Y-51475000D01*
X66035714Y-51546428D01*
X66107142Y-51689285D01*
X66107142Y-52117857D01*
X66035714Y-52260714D01*
X65964285Y-52332142D01*
X65821428Y-52403571D01*
X65607142Y-52403571D01*
X66750000Y-52403571D02*
X66750000Y-51403571D01*
X66750000Y-51546428D02*
X66821428Y-51475000D01*
X66964285Y-51403571D01*
X67178571Y-51403571D01*
X67321428Y-51475000D01*
X67392857Y-51617857D01*
X67392857Y-52403571D01*
X67392857Y-51617857D02*
X67464285Y-51475000D01*
X67607142Y-51403571D01*
X67821428Y-51403571D01*
X67964285Y-51475000D01*
X68035714Y-51617857D01*
X68035714Y-52403571D01*
X64142857Y-53953571D02*
X64142857Y-54953571D01*
X63500000Y-53953571D02*
X63500000Y-54739285D01*
X63571428Y-54882142D01*
X63714285Y-54953571D01*
X63928571Y-54953571D01*
X64071428Y-54882142D01*
X64142857Y-54810714D01*
X64857142Y-53953571D02*
X64857142Y-55453571D01*
X64857142Y-54025000D02*
X65000000Y-53953571D01*
X65285714Y-53953571D01*
X65428571Y-54025000D01*
X65500000Y-54096428D01*
X65571428Y-54239285D01*
X65571428Y-54667857D01*
X65500000Y-54810714D01*
X65428571Y-54882142D01*
X65285714Y-54953571D01*
X65000000Y-54953571D01*
X64857142Y-54882142D01*
D11*
X127238095Y-52750000D02*
X127142857Y-52702380D01*
X127000000Y-52702380D01*
X126857142Y-52750000D01*
X126761904Y-52845238D01*
X126714285Y-52940476D01*
X126666666Y-53130952D01*
X126666666Y-53273809D01*
X126714285Y-53464285D01*
X126761904Y-53559523D01*
X126857142Y-53654761D01*
X127000000Y-53702380D01*
X127095238Y-53702380D01*
X127238095Y-53654761D01*
X127285714Y-53607142D01*
X127285714Y-53273809D01*
X127095238Y-53273809D01*
X127714285Y-53702380D02*
X127714285Y-52702380D01*
X128285714Y-53702380D01*
X128285714Y-52702380D01*
X128761904Y-53702380D02*
X128761904Y-52702380D01*
X129000000Y-52702380D01*
X129142857Y-52750000D01*
X129238095Y-52845238D01*
X129285714Y-52940476D01*
X129333333Y-53130952D01*
X129333333Y-53273809D01*
X129285714Y-53464285D01*
X129238095Y-53559523D01*
X129142857Y-53654761D01*
X129000000Y-53702380D01*
X128761904Y-53702380D01*
X126416666Y-48452380D02*
X126750000Y-49452380D01*
X127083333Y-48452380D01*
X127988095Y-49357142D02*
X127940476Y-49404761D01*
X127797619Y-49452380D01*
X127702380Y-49452380D01*
X127559523Y-49404761D01*
X127464285Y-49309523D01*
X127416666Y-49214285D01*
X127369047Y-49023809D01*
X127369047Y-48880952D01*
X127416666Y-48690476D01*
X127464285Y-48595238D01*
X127559523Y-48500000D01*
X127702380Y-48452380D01*
X127797619Y-48452380D01*
X127940476Y-48500000D01*
X127988095Y-48547619D01*
X128988095Y-49357142D02*
X128940476Y-49404761D01*
X128797619Y-49452380D01*
X128702380Y-49452380D01*
X128559523Y-49404761D01*
X128464285Y-49309523D01*
X128416666Y-49214285D01*
X128369047Y-49023809D01*
X128369047Y-48880952D01*
X128416666Y-48690476D01*
X128464285Y-48595238D01*
X128559523Y-48500000D01*
X128702380Y-48452380D01*
X128797619Y-48452380D01*
X128940476Y-48500000D01*
X128988095Y-48547619D01*
X133988095Y-52750000D02*
X133892857Y-52702380D01*
X133750000Y-52702380D01*
X133607142Y-52750000D01*
X133511904Y-52845238D01*
X133464285Y-52940476D01*
X133416666Y-53130952D01*
X133416666Y-53273809D01*
X133464285Y-53464285D01*
X133511904Y-53559523D01*
X133607142Y-53654761D01*
X133750000Y-53702380D01*
X133845238Y-53702380D01*
X133988095Y-53654761D01*
X134035714Y-53607142D01*
X134035714Y-53273809D01*
X133845238Y-53273809D01*
X134464285Y-53702380D02*
X134464285Y-52702380D01*
X135035714Y-53702380D01*
X135035714Y-52702380D01*
X135511904Y-53702380D02*
X135511904Y-52702380D01*
X135750000Y-52702380D01*
X135892857Y-52750000D01*
X135988095Y-52845238D01*
X136035714Y-52940476D01*
X136083333Y-53130952D01*
X136083333Y-53273809D01*
X136035714Y-53464285D01*
X135988095Y-53559523D01*
X135892857Y-53654761D01*
X135750000Y-53702380D01*
X135511904Y-53702380D01*
X133166666Y-48452380D02*
X133500000Y-49452380D01*
X133833333Y-48452380D01*
X134738095Y-49357142D02*
X134690476Y-49404761D01*
X134547619Y-49452380D01*
X134452380Y-49452380D01*
X134309523Y-49404761D01*
X134214285Y-49309523D01*
X134166666Y-49214285D01*
X134119047Y-49023809D01*
X134119047Y-48880952D01*
X134166666Y-48690476D01*
X134214285Y-48595238D01*
X134309523Y-48500000D01*
X134452380Y-48452380D01*
X134547619Y-48452380D01*
X134690476Y-48500000D01*
X134738095Y-48547619D01*
X135738095Y-49357142D02*
X135690476Y-49404761D01*
X135547619Y-49452380D01*
X135452380Y-49452380D01*
X135309523Y-49404761D01*
X135214285Y-49309523D01*
X135166666Y-49214285D01*
X135119047Y-49023809D01*
X135119047Y-48880952D01*
X135166666Y-48690476D01*
X135214285Y-48595238D01*
X135309523Y-48500000D01*
X135452380Y-48452380D01*
X135547619Y-48452380D01*
X135690476Y-48500000D01*
X135738095Y-48547619D01*
D12*
G36*
X121461711Y-94996704D02*
G01*
X120963873Y-95345155D01*
X120904000Y-95377000D01*
X120384898Y-95738005D01*
X120144081Y-96087940D01*
X120142000Y-96114421D01*
X119963113Y-96554492D01*
X119764299Y-96771262D01*
X119195812Y-96968442D01*
X118576251Y-96793089D01*
X118017525Y-96353816D01*
X117631545Y-95759237D01*
X117530221Y-95117963D01*
X117665661Y-94734452D01*
X117834087Y-94270289D01*
X117589878Y-93859498D01*
X117557909Y-93827051D01*
X117129206Y-93567864D01*
X116864375Y-93583935D01*
X116613790Y-93993842D01*
X116658442Y-94560803D01*
X116890800Y-94945200D01*
X117035310Y-95199617D01*
X116951899Y-95250000D01*
X116637406Y-95058580D01*
X116410620Y-94773501D01*
X116250521Y-94292193D01*
X116475557Y-93779618D01*
X116490924Y-93757501D01*
X116905663Y-93346908D01*
X117228881Y-93218000D01*
X117580740Y-93012250D01*
X117953423Y-92511363D01*
X117983000Y-92456000D01*
X118327713Y-91938111D01*
X118640138Y-91696346D01*
X118663890Y-91694000D01*
X118735054Y-91846275D01*
X118509294Y-92181785D01*
X118217139Y-92557505D01*
X118295985Y-92775485D01*
X118561840Y-92933943D01*
X119129568Y-93049794D01*
X119137166Y-93046053D01*
X119137166Y-94016206D01*
X118884756Y-94099116D01*
X118729476Y-94416107D01*
X118769526Y-94527682D01*
X118956915Y-94602073D01*
X118956915Y-95648398D01*
X118583200Y-95776624D01*
X118243223Y-96048558D01*
X118341487Y-96363525D01*
X118388874Y-96422970D01*
X118878113Y-96700146D01*
X119228179Y-96722757D01*
X119681523Y-96491632D01*
X119835686Y-96097676D01*
X119639978Y-95737588D01*
X119501070Y-95663870D01*
X118956915Y-95648398D01*
X118956915Y-94602073D01*
X119038814Y-94634586D01*
X119201236Y-94514364D01*
X119346721Y-94172882D01*
X119137166Y-94016206D01*
X119137166Y-93046053D01*
X119525825Y-92854644D01*
X119842782Y-92541825D01*
X119753999Y-92213593D01*
X119624413Y-92038985D01*
X119386187Y-91718196D01*
X119490102Y-91756290D01*
X119697500Y-91915600D01*
X120056064Y-92334837D01*
X120142000Y-92600241D01*
X120348274Y-92941340D01*
X120821745Y-93267640D01*
X121350275Y-93627909D01*
X121612892Y-93980000D01*
X121582431Y-94119701D01*
X121314148Y-93853000D01*
X120991265Y-93505157D01*
X120762027Y-93551369D01*
X120532842Y-93824587D01*
X120298781Y-94362002D01*
X120426057Y-94798160D01*
X120652180Y-95132360D01*
X120900051Y-95086058D01*
X121178215Y-94850706D01*
X121533575Y-94618655D01*
X121666000Y-94696110D01*
X121461711Y-94996704D01*
X121461711Y-94996704D01*
G37*
X121461711Y-94996704D02*
X120963873Y-95345155D01*
X120904000Y-95377000D01*
X120384898Y-95738005D01*
X120144081Y-96087940D01*
X120142000Y-96114421D01*
X119963113Y-96554492D01*
X119764299Y-96771262D01*
X119195812Y-96968442D01*
X118576251Y-96793089D01*
X118017525Y-96353816D01*
X117631545Y-95759237D01*
X117530221Y-95117963D01*
X117665661Y-94734452D01*
X117834087Y-94270289D01*
X117589878Y-93859498D01*
X117557909Y-93827051D01*
X117129206Y-93567864D01*
X116864375Y-93583935D01*
X116613790Y-93993842D01*
X116658442Y-94560803D01*
X116890800Y-94945200D01*
X117035310Y-95199617D01*
X116951899Y-95250000D01*
X116637406Y-95058580D01*
X116410620Y-94773501D01*
X116250521Y-94292193D01*
X116475557Y-93779618D01*
X116490924Y-93757501D01*
X116905663Y-93346908D01*
X117228881Y-93218000D01*
X117580740Y-93012250D01*
X117953423Y-92511363D01*
X117983000Y-92456000D01*
X118327713Y-91938111D01*
X118640138Y-91696346D01*
X118663890Y-91694000D01*
X118735054Y-91846275D01*
X118509294Y-92181785D01*
X118217139Y-92557505D01*
X118295985Y-92775485D01*
X118561840Y-92933943D01*
X119129568Y-93049794D01*
X119137166Y-93046053D01*
X119137166Y-94016206D01*
X118884756Y-94099116D01*
X118729476Y-94416107D01*
X118769526Y-94527682D01*
X118956915Y-94602073D01*
X118956915Y-95648398D01*
X118583200Y-95776624D01*
X118243223Y-96048558D01*
X118341487Y-96363525D01*
X118388874Y-96422970D01*
X118878113Y-96700146D01*
X119228179Y-96722757D01*
X119681523Y-96491632D01*
X119835686Y-96097676D01*
X119639978Y-95737588D01*
X119501070Y-95663870D01*
X118956915Y-95648398D01*
X118956915Y-94602073D01*
X119038814Y-94634586D01*
X119201236Y-94514364D01*
X119346721Y-94172882D01*
X119137166Y-94016206D01*
X119137166Y-93046053D01*
X119525825Y-92854644D01*
X119842782Y-92541825D01*
X119753999Y-92213593D01*
X119624413Y-92038985D01*
X119386187Y-91718196D01*
X119490102Y-91756290D01*
X119697500Y-91915600D01*
X120056064Y-92334837D01*
X120142000Y-92600241D01*
X120348274Y-92941340D01*
X120821745Y-93267640D01*
X121350275Y-93627909D01*
X121612892Y-93980000D01*
X121582431Y-94119701D01*
X121314148Y-93853000D01*
X120991265Y-93505157D01*
X120762027Y-93551369D01*
X120532842Y-93824587D01*
X120298781Y-94362002D01*
X120426057Y-94798160D01*
X120652180Y-95132360D01*
X120900051Y-95086058D01*
X121178215Y-94850706D01*
X121533575Y-94618655D01*
X121666000Y-94696110D01*
X121461711Y-94996704D01*
G36*
X127568710Y-65425007D02*
G01*
X127138347Y-66321001D01*
X126396065Y-67014576D01*
X126167363Y-67139230D01*
X124768650Y-67528069D01*
X123171837Y-67458924D01*
X121371950Y-66930850D01*
X119364017Y-65942905D01*
X119125600Y-65803366D01*
X118226312Y-65214264D01*
X117276828Y-64502950D01*
X116368823Y-63749835D01*
X115593972Y-63035328D01*
X115043949Y-62439842D01*
X114810429Y-62043787D01*
X114808000Y-62016273D01*
X114983452Y-61746873D01*
X115454457Y-61227218D01*
X116137992Y-60545791D01*
X116571606Y-60136737D01*
X118530338Y-58552106D01*
X120463516Y-57457605D01*
X122401318Y-56838432D01*
X123604321Y-56687508D01*
X125087253Y-56722542D01*
X126261084Y-56988916D01*
X127066049Y-57466030D01*
X127408546Y-57998789D01*
X127591355Y-59053902D01*
X127367882Y-59951322D01*
X126699412Y-60815245D01*
X126461155Y-61037932D01*
X125378141Y-62004864D01*
X126418880Y-62942932D01*
X127033353Y-63583233D01*
X127473156Y-64200988D01*
X127597496Y-64492521D01*
X127568710Y-65425007D01*
X127568710Y-65425007D01*
G37*
X127568710Y-65425007D02*
X127138347Y-66321001D01*
X126396065Y-67014576D01*
X126167363Y-67139230D01*
X124768650Y-67528069D01*
X123171837Y-67458924D01*
X121371950Y-66930850D01*
X119364017Y-65942905D01*
X119125600Y-65803366D01*
X118226312Y-65214264D01*
X117276828Y-64502950D01*
X116368823Y-63749835D01*
X115593972Y-63035328D01*
X115043949Y-62439842D01*
X114810429Y-62043787D01*
X114808000Y-62016273D01*
X114983452Y-61746873D01*
X115454457Y-61227218D01*
X116137992Y-60545791D01*
X116571606Y-60136737D01*
X118530338Y-58552106D01*
X120463516Y-57457605D01*
X122401318Y-56838432D01*
X123604321Y-56687508D01*
X125087253Y-56722542D01*
X126261084Y-56988916D01*
X127066049Y-57466030D01*
X127408546Y-57998789D01*
X127591355Y-59053902D01*
X127367882Y-59951322D01*
X126699412Y-60815245D01*
X126461155Y-61037932D01*
X125378141Y-62004864D01*
X126418880Y-62942932D01*
X127033353Y-63583233D01*
X127473156Y-64200988D01*
X127597496Y-64492521D01*
X127568710Y-65425007D01*
G36*
X103970520Y-76212733D02*
G01*
X103925771Y-76261829D01*
X103781805Y-76633758D01*
X103920460Y-76876521D01*
X104079870Y-77381156D01*
X104037505Y-77624732D01*
X103694100Y-77889868D01*
X103062523Y-77883622D01*
X102272724Y-77623123D01*
X101728087Y-77320354D01*
X101205546Y-76836343D01*
X101175654Y-76365406D01*
X101642694Y-75870659D01*
X101917500Y-75689216D01*
X102621495Y-75351492D01*
X103257348Y-75187802D01*
X103322472Y-75184949D01*
X103849811Y-75357102D01*
X104098683Y-75758344D01*
X103970520Y-76212733D01*
X103970520Y-76212733D01*
G37*
X103970520Y-76212733D02*
X103925771Y-76261829D01*
X103781805Y-76633758D01*
X103920460Y-76876521D01*
X104079870Y-77381156D01*
X104037505Y-77624732D01*
X103694100Y-77889868D01*
X103062523Y-77883622D01*
X102272724Y-77623123D01*
X101728087Y-77320354D01*
X101205546Y-76836343D01*
X101175654Y-76365406D01*
X101642694Y-75870659D01*
X101917500Y-75689216D01*
X102621495Y-75351492D01*
X103257348Y-75187802D01*
X103322472Y-75184949D01*
X103849811Y-75357102D01*
X104098683Y-75758344D01*
X103970520Y-76212733D01*
G36*
X99855284Y-76137809D02*
G01*
X99754490Y-76759320D01*
X99840271Y-77003669D01*
X99887977Y-77471473D01*
X99556833Y-77809621D01*
X98974982Y-77920389D01*
X98694355Y-77877550D01*
X98056289Y-77598266D01*
X97403087Y-77148343D01*
X96738063Y-76576313D01*
X97354609Y-75997097D01*
X97958356Y-75595121D01*
X98689723Y-75322946D01*
X99377985Y-75219864D01*
X99852416Y-75325165D01*
X99928455Y-75404756D01*
X99962648Y-75833777D01*
X99855284Y-76137809D01*
X99855284Y-76137809D01*
G37*
X99855284Y-76137809D02*
X99754490Y-76759320D01*
X99840271Y-77003669D01*
X99887977Y-77471473D01*
X99556833Y-77809621D01*
X98974982Y-77920389D01*
X98694355Y-77877550D01*
X98056289Y-77598266D01*
X97403087Y-77148343D01*
X96738063Y-76576313D01*
X97354609Y-75997097D01*
X97958356Y-75595121D01*
X98689723Y-75322946D01*
X99377985Y-75219864D01*
X99852416Y-75325165D01*
X99928455Y-75404756D01*
X99962648Y-75833777D01*
X99855284Y-76137809D01*
G36*
X94334337Y-80114892D02*
G01*
X94008274Y-80430685D01*
X93376078Y-80468174D01*
X92794572Y-80326510D01*
X92547858Y-79961153D01*
X92504278Y-79709583D01*
X92597886Y-79062872D01*
X92930377Y-78757994D01*
X93602721Y-78616353D01*
X94135144Y-78872198D01*
X94414005Y-79415699D01*
X94334337Y-80114892D01*
X94334337Y-80114892D01*
G37*
X94334337Y-80114892D02*
X94008274Y-80430685D01*
X93376078Y-80468174D01*
X92794572Y-80326510D01*
X92547858Y-79961153D01*
X92504278Y-79709583D01*
X92597886Y-79062872D01*
X92930377Y-78757994D01*
X93602721Y-78616353D01*
X94135144Y-78872198D01*
X94414005Y-79415699D01*
X94334337Y-80114892D01*
G36*
X94334337Y-77066892D02*
G01*
X94008274Y-77382685D01*
X93376078Y-77420174D01*
X92794572Y-77278510D01*
X92547858Y-76913153D01*
X92504278Y-76661583D01*
X92597886Y-76014872D01*
X92930377Y-75709994D01*
X93602721Y-75568353D01*
X94135144Y-75824198D01*
X94414005Y-76367699D01*
X94334337Y-77066892D01*
X94334337Y-77066892D01*
G37*
X94334337Y-77066892D02*
X94008274Y-77382685D01*
X93376078Y-77420174D01*
X92794572Y-77278510D01*
X92547858Y-76913153D01*
X92504278Y-76661583D01*
X92597886Y-76014872D01*
X92930377Y-75709994D01*
X93602721Y-75568353D01*
X94135144Y-75824198D01*
X94414005Y-76367699D01*
X94334337Y-77066892D01*
G36*
X94334337Y-74018892D02*
G01*
X94008274Y-74334685D01*
X93376078Y-74372174D01*
X92794572Y-74230510D01*
X92547858Y-73865153D01*
X92504278Y-73613583D01*
X92597886Y-72966872D01*
X92930377Y-72661994D01*
X93602721Y-72520353D01*
X94135144Y-72776198D01*
X94414005Y-73319699D01*
X94334337Y-74018892D01*
X94334337Y-74018892D01*
G37*
X94334337Y-74018892D02*
X94008274Y-74334685D01*
X93376078Y-74372174D01*
X92794572Y-74230510D01*
X92547858Y-73865153D01*
X92504278Y-73613583D01*
X92597886Y-72966872D01*
X92930377Y-72661994D01*
X93602721Y-72520353D01*
X94135144Y-72776198D01*
X94414005Y-73319699D01*
X94334337Y-74018892D01*
G36*
X89880560Y-76877703D02*
G01*
X89266789Y-77381340D01*
X88445240Y-77791603D01*
X87684631Y-77976844D01*
X87634642Y-77978000D01*
X87119974Y-77789114D01*
X86913043Y-77349655D01*
X87079055Y-76886746D01*
X87199692Y-76396291D01*
X87111361Y-76191481D01*
X86888335Y-75669702D01*
X87072553Y-75360002D01*
X87249568Y-75275635D01*
X87989495Y-75236451D01*
X88881193Y-75559164D01*
X89503290Y-75966436D01*
X89943489Y-76380198D01*
X89998984Y-76690879D01*
X89880560Y-76877703D01*
X89880560Y-76877703D01*
G37*
X89880560Y-76877703D02*
X89266789Y-77381340D01*
X88445240Y-77791603D01*
X87684631Y-77976844D01*
X87634642Y-77978000D01*
X87119974Y-77789114D01*
X86913043Y-77349655D01*
X87079055Y-76886746D01*
X87199692Y-76396291D01*
X87111361Y-76191481D01*
X86888335Y-75669702D01*
X87072553Y-75360002D01*
X87249568Y-75275635D01*
X87989495Y-75236451D01*
X88881193Y-75559164D01*
X89503290Y-75966436D01*
X89943489Y-76380198D01*
X89998984Y-76690879D01*
X89880560Y-76877703D01*
G36*
X85640302Y-76909360D02*
G01*
X85115684Y-77297417D01*
X84443865Y-77665765D01*
X83790562Y-77919447D01*
X83441148Y-77978000D01*
X83015119Y-77779706D01*
X82863485Y-77326593D01*
X83041918Y-76854378D01*
X83193192Y-76478834D01*
X83070334Y-76334622D01*
X82822440Y-75935276D01*
X82897524Y-75451329D01*
X82973334Y-75353333D01*
X83431009Y-75213470D01*
X84112245Y-75326147D01*
X84849930Y-75619192D01*
X85476949Y-76020435D01*
X85826190Y-76457702D01*
X85852000Y-76596553D01*
X85640302Y-76909360D01*
X85640302Y-76909360D01*
G37*
X85640302Y-76909360D02*
X85115684Y-77297417D01*
X84443865Y-77665765D01*
X83790562Y-77919447D01*
X83441148Y-77978000D01*
X83015119Y-77779706D01*
X82863485Y-77326593D01*
X83041918Y-76854378D01*
X83193192Y-76478834D01*
X83070334Y-76334622D01*
X82822440Y-75935276D01*
X82897524Y-75451329D01*
X82973334Y-75353333D01*
X83431009Y-75213470D01*
X84112245Y-75326147D01*
X84849930Y-75619192D01*
X85476949Y-76020435D01*
X85826190Y-76457702D01*
X85852000Y-76596553D01*
X85640302Y-76909360D01*
G36*
X71210040Y-92252352D02*
G01*
X69981500Y-93355137D01*
X68458156Y-94466159D01*
X66833110Y-95452179D01*
X65868276Y-95938147D01*
X64286586Y-96483332D01*
X62794751Y-96659714D01*
X61465659Y-96479237D01*
X60372200Y-95953842D01*
X59587265Y-95095473D01*
X59476665Y-94890929D01*
X59259493Y-93991274D01*
X59514288Y-93097114D01*
X60254406Y-92169205D01*
X60471591Y-91967409D01*
X61471201Y-91075608D01*
X60450559Y-90178304D01*
X59616628Y-89210591D01*
X59269830Y-88215418D01*
X59420030Y-87221533D01*
X59428826Y-87200307D01*
X60002685Y-86453340D01*
X60935622Y-85954142D01*
X62138431Y-85711507D01*
X63521910Y-85734230D01*
X64996853Y-86031105D01*
X66294000Y-86523463D01*
X67618613Y-87235367D01*
X68961469Y-88106213D01*
X70188604Y-89037326D01*
X71166054Y-89930030D01*
X71591040Y-90425161D01*
X72189080Y-91237223D01*
X71210040Y-92252352D01*
X71210040Y-92252352D01*
G37*
X71210040Y-92252352D02*
X69981500Y-93355137D01*
X68458156Y-94466159D01*
X66833110Y-95452179D01*
X65868276Y-95938147D01*
X64286586Y-96483332D01*
X62794751Y-96659714D01*
X61465659Y-96479237D01*
X60372200Y-95953842D01*
X59587265Y-95095473D01*
X59476665Y-94890929D01*
X59259493Y-93991274D01*
X59514288Y-93097114D01*
X60254406Y-92169205D01*
X60471591Y-91967409D01*
X61471201Y-91075608D01*
X60450559Y-90178304D01*
X59616628Y-89210591D01*
X59269830Y-88215418D01*
X59420030Y-87221533D01*
X59428826Y-87200307D01*
X60002685Y-86453340D01*
X60935622Y-85954142D01*
X62138431Y-85711507D01*
X63521910Y-85734230D01*
X64996853Y-86031105D01*
X66294000Y-86523463D01*
X67618613Y-87235367D01*
X68961469Y-88106213D01*
X70188604Y-89037326D01*
X71166054Y-89930030D01*
X71591040Y-90425161D01*
X72189080Y-91237223D01*
X71210040Y-92252352D01*
G36*
X70255255Y-59396754D02*
G01*
X69999504Y-59669435D01*
X69852473Y-59613498D01*
X69850000Y-59577990D01*
X70030411Y-59363152D01*
X70143246Y-59284745D01*
X70317057Y-59254807D01*
X70255255Y-59396754D01*
X70255255Y-59396754D01*
G37*
X70255255Y-59396754D02*
X69999504Y-59669435D01*
X69852473Y-59613498D01*
X69850000Y-59577990D01*
X70030411Y-59363152D01*
X70143246Y-59284745D01*
X70317057Y-59254807D01*
X70255255Y-59396754D01*
G36*
X68754289Y-60839462D02*
G01*
X68612400Y-61023500D01*
X68299066Y-61375279D01*
X68167900Y-61468000D01*
X68091871Y-61344445D01*
X68418160Y-61006785D01*
X68516500Y-60927600D01*
X68817362Y-60707929D01*
X68754289Y-60839462D01*
X68754289Y-60839462D01*
G37*
X68754289Y-60839462D02*
X68612400Y-61023500D01*
X68299066Y-61375279D01*
X68167900Y-61468000D01*
X68091871Y-61344445D01*
X68418160Y-61006785D01*
X68516500Y-60927600D01*
X68817362Y-60707929D01*
X68754289Y-60839462D01*
G36*
X67691000Y-61468000D02*
G01*
X67564000Y-61341000D01*
X67691000Y-61214000D01*
X67818000Y-61341000D01*
X67691000Y-61468000D01*
X67691000Y-61468000D01*
G37*
X67691000Y-61468000D02*
X67564000Y-61341000D01*
X67691000Y-61214000D01*
X67818000Y-61341000D01*
X67691000Y-61468000D01*
G36*
X67145930Y-61134310D02*
G01*
X67056000Y-61087000D01*
X66813430Y-60847677D01*
X66802000Y-60803019D01*
X66966071Y-60785689D01*
X67056000Y-60833000D01*
X67298571Y-61072322D01*
X67310000Y-61116980D01*
X67145930Y-61134310D01*
X67145930Y-61134310D01*
G37*
X67145930Y-61134310D02*
X67056000Y-61087000D01*
X66813430Y-60847677D01*
X66802000Y-60803019D01*
X66966071Y-60785689D01*
X67056000Y-60833000D01*
X67298571Y-61072322D01*
X67310000Y-61116980D01*
X67145930Y-61134310D01*
G36*
X65621930Y-59610310D02*
G01*
X65532000Y-59563000D01*
X65289430Y-59323677D01*
X65278000Y-59279019D01*
X65442071Y-59261689D01*
X65532000Y-59309000D01*
X65774571Y-59548322D01*
X65786000Y-59592980D01*
X65621930Y-59610310D01*
X65621930Y-59610310D01*
G37*
X65621930Y-59610310D02*
X65532000Y-59563000D01*
X65289430Y-59323677D01*
X65278000Y-59279019D01*
X65442071Y-59261689D01*
X65532000Y-59309000D01*
X65774571Y-59548322D01*
X65786000Y-59592980D01*
X65621930Y-59610310D01*
G36*
X63639226Y-61978467D02*
G01*
X63246000Y-62121142D01*
X62835125Y-62117331D01*
X62743648Y-62112071D01*
X62884803Y-61930341D01*
X63219606Y-61501746D01*
X63246000Y-61468000D01*
X63742705Y-60833000D01*
X63748353Y-61477071D01*
X63639226Y-61978467D01*
X63639226Y-61978467D01*
G37*
X63639226Y-61978467D02*
X63246000Y-62121142D01*
X62835125Y-62117331D01*
X62743648Y-62112071D01*
X62884803Y-61930341D01*
X63219606Y-61501746D01*
X63246000Y-61468000D01*
X63742705Y-60833000D01*
X63748353Y-61477071D01*
X63639226Y-61978467D01*
G36*
X58420000Y-97536000D02*
G01*
X58420000Y-55626000D01*
X72223634Y-55626000D01*
X72223634Y-55880000D01*
X67993267Y-55880000D01*
X68477134Y-56451500D01*
X68961000Y-57023000D01*
X68389500Y-56539133D01*
X67959555Y-56217699D01*
X67649999Y-56231066D01*
X67246500Y-56539133D01*
X66675000Y-57023000D01*
X67642734Y-55880000D01*
X58674000Y-55880000D01*
X58674000Y-64262000D01*
X59288819Y-64262000D01*
X59778236Y-64131339D01*
X60034852Y-63651767D01*
X60065839Y-63523501D01*
X60213987Y-63072192D01*
X60500799Y-62837426D01*
X61078463Y-62728507D01*
X61451030Y-62698001D01*
X62213467Y-62690363D01*
X62563815Y-62796118D01*
X62573816Y-62871216D01*
X62282379Y-63015891D01*
X61683349Y-63051156D01*
X61495856Y-63038189D01*
X60842098Y-63017379D01*
X60496230Y-63192100D01*
X60266038Y-63668671D01*
X60244263Y-63730472D01*
X59931917Y-64310508D01*
X59461531Y-64510364D01*
X59322213Y-64516000D01*
X58940086Y-64554501D01*
X58747966Y-64756086D01*
X58681052Y-65249872D01*
X58674000Y-65807586D01*
X58674000Y-67099173D01*
X59880500Y-66031863D01*
X60805274Y-65289429D01*
X61852262Y-64556776D01*
X62420500Y-64208030D01*
X63127678Y-63767315D01*
X63611180Y-63390409D01*
X63754000Y-63193614D01*
X63885167Y-63175147D01*
X64201597Y-63488530D01*
X64210592Y-63499588D01*
X64667184Y-64063455D01*
X67830092Y-62478396D01*
X69129647Y-61813018D01*
X70398179Y-61138749D01*
X71498828Y-60529878D01*
X72294729Y-60060695D01*
X72358394Y-60020421D01*
X73087074Y-59542592D01*
X73443897Y-59244983D01*
X73488234Y-59039289D01*
X73279458Y-58837205D01*
X73194533Y-58776802D01*
X72840789Y-58378526D01*
X72797080Y-58062629D01*
X72704788Y-57693028D01*
X72306530Y-57232964D01*
X72221016Y-57162354D01*
X71738824Y-56862247D01*
X71449346Y-56830102D01*
X71427103Y-56863692D01*
X71474578Y-57316496D01*
X71749263Y-57829124D01*
X72107611Y-58158726D01*
X72208437Y-58185520D01*
X72188831Y-58259272D01*
X71781444Y-58422923D01*
X71501000Y-58512679D01*
X70827179Y-58683216D01*
X70426167Y-58644028D01*
X70095991Y-58366067D01*
X70040670Y-58302659D01*
X69698758Y-57949911D01*
X69467544Y-57979884D01*
X69216539Y-58276174D01*
X68972059Y-58718254D01*
X69086878Y-59139949D01*
X69192116Y-59309721D01*
X69409655Y-59743629D01*
X69271707Y-60013062D01*
X69096343Y-60133843D01*
X68621885Y-60283191D01*
X68365486Y-60135885D01*
X67938134Y-59987395D01*
X67507390Y-60119044D01*
X66829416Y-60242944D01*
X66509194Y-60116330D01*
X66234612Y-59858336D01*
X66314852Y-59519042D01*
X66444325Y-59309049D01*
X66668661Y-58829955D01*
X66540038Y-58419931D01*
X66447117Y-58285761D01*
X66128676Y-57959879D01*
X65804696Y-58047819D01*
X65637729Y-58175587D01*
X65358649Y-58351251D01*
X65361293Y-58245584D01*
X65809111Y-57821477D01*
X66464740Y-57505857D01*
X67105105Y-57385688D01*
X67401575Y-57450199D01*
X67709450Y-57493418D01*
X67709450Y-58493769D01*
X67564000Y-58547000D01*
X67413046Y-58827829D01*
X67519737Y-58985336D01*
X67926551Y-59108230D01*
X68072000Y-59055000D01*
X68222955Y-58774170D01*
X68116264Y-58616663D01*
X67709450Y-58493769D01*
X67709450Y-57493418D01*
X68005099Y-57534922D01*
X68259135Y-57448606D01*
X68811696Y-57391212D01*
X69469000Y-57689071D01*
X70224241Y-58139434D01*
X70696223Y-58356585D01*
X71023883Y-58389830D01*
X71257954Y-58323943D01*
X71512607Y-58098819D01*
X71384954Y-57678466D01*
X71160999Y-57068372D01*
X71151292Y-56582296D01*
X71354512Y-56388000D01*
X71776782Y-56564203D01*
X72306148Y-56990377D01*
X72789159Y-57512868D01*
X73072366Y-57978022D01*
X73093487Y-58129274D01*
X73244761Y-58501973D01*
X73618081Y-58630993D01*
X74083388Y-58561336D01*
X74641342Y-58183614D01*
X75332581Y-57493530D01*
X75907570Y-56839330D01*
X76312054Y-56325813D01*
X76454000Y-56076036D01*
X76213901Y-56011081D01*
X75549147Y-55955219D01*
X74543059Y-55912310D01*
X73278955Y-55886215D01*
X72223634Y-55880000D01*
X72223634Y-55626000D01*
X77271600Y-55626000D01*
X77271600Y-55886992D01*
X76862886Y-56085150D01*
X76364556Y-56573023D01*
X76200000Y-56786717D01*
X75290686Y-57863304D01*
X74074937Y-58946570D01*
X72508858Y-60067427D01*
X70548552Y-61256789D01*
X68150125Y-62545571D01*
X67691000Y-62779130D01*
X65845204Y-63719470D01*
X64378451Y-64490050D01*
X63211150Y-65139561D01*
X62263711Y-65716694D01*
X61456545Y-66270139D01*
X60710061Y-66848586D01*
X59944670Y-67500725D01*
X59880500Y-67557306D01*
X59223041Y-68161396D01*
X58862143Y-68623819D01*
X58708917Y-69133798D01*
X58674470Y-69880557D01*
X58674000Y-70125586D01*
X58695200Y-70923026D01*
X58750235Y-71467823D01*
X58812092Y-71628000D01*
X59246133Y-71526618D01*
X60044197Y-71249129D01*
X61110561Y-70835517D01*
X62349501Y-70325767D01*
X63665293Y-69759864D01*
X64962213Y-69177791D01*
X66144535Y-68619534D01*
X66802000Y-68290570D01*
X68727022Y-67257317D01*
X70166613Y-66391970D01*
X70166613Y-67860333D01*
X69877562Y-67998521D01*
X69225376Y-68315223D01*
X68302980Y-68765179D01*
X67203301Y-69303133D01*
X67055113Y-69375727D01*
X65598628Y-70054595D01*
X63966773Y-70760282D01*
X62388587Y-71396152D01*
X61404500Y-71759853D01*
X60163566Y-72211325D01*
X59342647Y-72560338D01*
X58872928Y-72842669D01*
X58685594Y-73094094D01*
X58674000Y-73179482D01*
X58674000Y-82477112D01*
X58674000Y-97282000D01*
X79738987Y-97282000D01*
X78635160Y-95694500D01*
X77052748Y-93298010D01*
X75502508Y-90692721D01*
X73999405Y-87927834D01*
X73427529Y-86847748D01*
X72925733Y-85921497D01*
X72548829Y-85248853D01*
X72353430Y-84931824D01*
X71992586Y-84749230D01*
X71297322Y-84576010D01*
X70671227Y-84481263D01*
X69827156Y-84350583D01*
X68657798Y-84123417D01*
X67328833Y-83833718D01*
X66214151Y-83567831D01*
X64760179Y-83241293D01*
X63208521Y-82951440D01*
X61775197Y-82735952D01*
X60943651Y-82648448D01*
X58674000Y-82477112D01*
X58674000Y-73179482D01*
X58711263Y-73388603D01*
X58883580Y-73465609D01*
X59281746Y-73398362D01*
X59996555Y-73174726D01*
X60800250Y-72895240D01*
X62701697Y-72191461D01*
X64519601Y-71457521D01*
X66194191Y-70722999D01*
X67665694Y-70017474D01*
X67861003Y-69912932D01*
X67861003Y-70292452D01*
X64889986Y-71545978D01*
X63659147Y-72071683D01*
X62812792Y-72462699D01*
X62265443Y-72777214D01*
X61931625Y-73073417D01*
X61725860Y-73409497D01*
X61577089Y-73801252D01*
X61219294Y-74508279D01*
X60665533Y-75254641D01*
X60035678Y-75910850D01*
X59449600Y-76347417D01*
X59122231Y-76453050D01*
X59103510Y-76341891D01*
X59444893Y-76064938D01*
X59628822Y-75947372D01*
X60346512Y-75356479D01*
X60970459Y-74582004D01*
X61377318Y-73797974D01*
X61467051Y-73353767D01*
X61444676Y-73154149D01*
X61319478Y-73065236D01*
X61005989Y-73101753D01*
X60418743Y-73278424D01*
X59472273Y-73609976D01*
X59005569Y-73777863D01*
X58878156Y-74001670D01*
X58785854Y-74594505D01*
X58725563Y-75596405D01*
X58694182Y-77047407D01*
X58688624Y-77869892D01*
X58675110Y-81852525D01*
X59950140Y-81730011D01*
X60712006Y-81631586D01*
X61244081Y-81516112D01*
X61377185Y-81455482D01*
X61434252Y-81133877D01*
X61401343Y-80499134D01*
X61359353Y-80170846D01*
X61114921Y-79287233D01*
X60603562Y-78452364D01*
X60104502Y-77873112D01*
X59575458Y-77275019D01*
X59256978Y-76854677D01*
X59215107Y-76708000D01*
X59583747Y-76916816D01*
X60081846Y-77458935D01*
X60622881Y-78207858D01*
X61120328Y-79037087D01*
X61487664Y-79820125D01*
X61607570Y-80205800D01*
X61783226Y-80837060D01*
X62033526Y-81248329D01*
X62440771Y-81456763D01*
X63087262Y-81479519D01*
X64055301Y-81333752D01*
X65427187Y-81036619D01*
X65506182Y-81018482D01*
X67627900Y-80400507D01*
X69316025Y-79627327D01*
X69783972Y-79281149D01*
X69783972Y-79757673D01*
X69368792Y-79889883D01*
X68788072Y-80208620D01*
X68746221Y-80235877D01*
X68160114Y-80512857D01*
X67246443Y-80824639D01*
X66177304Y-81114351D01*
X65886776Y-81180870D01*
X64936797Y-81416999D01*
X64223875Y-81647697D01*
X63856417Y-81835469D01*
X63830975Y-81891922D01*
X64095542Y-82047325D01*
X64752072Y-82284739D01*
X65697921Y-82570306D01*
X66690419Y-82835139D01*
X68225500Y-83187712D01*
X69553650Y-83425776D01*
X70607422Y-83542339D01*
X71319373Y-83530407D01*
X71622055Y-83382986D01*
X71628000Y-83347132D01*
X71519480Y-82914741D01*
X71240623Y-82235095D01*
X70861488Y-81444563D01*
X70452131Y-80679515D01*
X70082611Y-80076319D01*
X69822985Y-79771345D01*
X69783972Y-79757673D01*
X69783972Y-79281149D01*
X70555218Y-78710596D01*
X71330136Y-77661968D01*
X71625439Y-76493098D01*
X71628000Y-76368033D01*
X71401686Y-75039081D01*
X70757588Y-73618214D01*
X69747979Y-72206165D01*
X69117683Y-71530235D01*
X67861003Y-70292452D01*
X67861003Y-69912932D01*
X68874340Y-69370525D01*
X69460064Y-69001120D01*
X69460064Y-69342000D01*
X69172556Y-69467121D01*
X68682830Y-69762194D01*
X68259983Y-70083815D01*
X68231429Y-70331560D01*
X68453290Y-70587694D01*
X68795776Y-70847936D01*
X69062711Y-70712200D01*
X69230524Y-70499953D01*
X69506843Y-69989476D01*
X69598520Y-69542366D01*
X69469152Y-69342272D01*
X69460064Y-69342000D01*
X69460064Y-69001120D01*
X69760355Y-68811732D01*
X70263969Y-68370674D01*
X70358000Y-68165402D01*
X70260419Y-67869191D01*
X70166613Y-67860333D01*
X70166613Y-66391970D01*
X70220100Y-66359818D01*
X71054755Y-65760638D01*
X71054755Y-67529442D01*
X71035068Y-67547332D01*
X70837008Y-67845581D01*
X70486609Y-68452417D01*
X70061869Y-69223651D01*
X69640787Y-70015090D01*
X69301361Y-70682544D01*
X69121589Y-71081822D01*
X69119132Y-71089214D01*
X69256911Y-71314306D01*
X69644428Y-71790688D01*
X70002269Y-72197415D01*
X71047714Y-73626537D01*
X71686501Y-75115450D01*
X71876422Y-76389768D01*
X71802286Y-77172136D01*
X71503476Y-77822207D01*
X71007086Y-78436962D01*
X70132172Y-79405387D01*
X70959814Y-81139621D01*
X71787457Y-82873854D01*
X72725232Y-81596349D01*
X73564728Y-80361271D01*
X74100821Y-79286223D01*
X74394814Y-78182130D01*
X74508011Y-76859917D01*
X74516041Y-76073000D01*
X74441234Y-74308545D01*
X74202075Y-72822571D01*
X73748596Y-71398601D01*
X73108945Y-69977000D01*
X72468298Y-68803597D01*
X71887966Y-67975929D01*
X71404576Y-67536907D01*
X71054755Y-67529442D01*
X71054755Y-65760638D01*
X71328187Y-65564347D01*
X72098236Y-64837175D01*
X72577197Y-64144577D01*
X72579229Y-64140571D01*
X73120794Y-63134711D01*
X73854230Y-61857943D01*
X74442792Y-60872505D01*
X74442792Y-61193483D01*
X73928026Y-62202508D01*
X73558772Y-62853518D01*
X73240517Y-63294391D01*
X73155630Y-63370756D01*
X72948932Y-63576220D01*
X72970247Y-63872759D01*
X73257744Y-64351629D01*
X73849592Y-65104086D01*
X73912515Y-65180389D01*
X75506675Y-67502923D01*
X76685386Y-70088192D01*
X77429652Y-72881303D01*
X77720474Y-75827360D01*
X77724000Y-76194529D01*
X77595652Y-78481155D01*
X77176309Y-80461706D01*
X76414523Y-82276795D01*
X75258846Y-84067031D01*
X74492759Y-85025799D01*
X73367917Y-86358599D01*
X74190445Y-87819799D01*
X74618989Y-88576421D01*
X74940601Y-89135522D01*
X75082061Y-89370407D01*
X75339575Y-89325456D01*
X75844288Y-88945392D01*
X76526583Y-88292205D01*
X76941513Y-87838387D01*
X76941513Y-88805269D01*
X76661824Y-88817908D01*
X76164391Y-89034429D01*
X75634830Y-89349901D01*
X75258756Y-89659394D01*
X75184000Y-89798810D01*
X75311533Y-90039571D01*
X75660808Y-90627130D01*
X76181846Y-91479064D01*
X76824663Y-92512952D01*
X76983349Y-92766014D01*
X77951018Y-94293585D01*
X78701247Y-95438276D01*
X79277150Y-96253297D01*
X79721843Y-96791858D01*
X80078441Y-97107168D01*
X80390061Y-97252439D01*
X80642594Y-97282000D01*
X81052989Y-97205612D01*
X81251477Y-96881436D01*
X81328168Y-96329500D01*
X81327618Y-95908225D01*
X81226342Y-95462589D01*
X80983293Y-94910214D01*
X80557423Y-94168727D01*
X79907684Y-93155752D01*
X79271443Y-92202000D01*
X78511407Y-91076308D01*
X77843951Y-90095761D01*
X77323813Y-89340158D01*
X77005730Y-88889300D01*
X76941513Y-88805269D01*
X76941513Y-87838387D01*
X77316839Y-87427883D01*
X77486566Y-87229408D01*
X78977456Y-85151582D01*
X80192592Y-82822110D01*
X81021264Y-80463256D01*
X81249140Y-79652659D01*
X81423327Y-79144919D01*
X81513829Y-79023942D01*
X81520015Y-79068121D01*
X81556372Y-79226263D01*
X81698918Y-79341025D01*
X82014606Y-79417692D01*
X82570388Y-79461548D01*
X83433216Y-79477879D01*
X84670043Y-79471969D01*
X86346725Y-79449121D01*
X91159450Y-79375000D01*
X91004698Y-80518000D01*
X90904983Y-81300041D01*
X90838415Y-81906088D01*
X90827474Y-82042000D01*
X90896679Y-82215597D01*
X91183183Y-82328582D01*
X91768540Y-82392702D01*
X92734306Y-82419708D01*
X93472000Y-82423000D01*
X94708117Y-82399992D01*
X95586417Y-82334800D01*
X96047396Y-82233169D01*
X96102615Y-82169000D01*
X96049929Y-81785055D01*
X95956309Y-81090367D01*
X95896717Y-80645000D01*
X95727205Y-79375000D01*
X100441603Y-79449346D01*
X102280152Y-79478339D01*
X102280152Y-82645282D01*
X101716646Y-82650347D01*
X101659762Y-82667654D01*
X101313667Y-82705448D01*
X100520194Y-82739728D01*
X99339958Y-82769496D01*
X97833574Y-82793753D01*
X96061659Y-82811501D01*
X94084827Y-82821742D01*
X92183962Y-82823718D01*
X89750080Y-82817204D01*
X87769819Y-82812147D01*
X86188972Y-82823262D01*
X84953334Y-82865263D01*
X84008699Y-82952862D01*
X83300860Y-83100774D01*
X82775612Y-83323711D01*
X82378748Y-83636388D01*
X82056062Y-84053517D01*
X81753348Y-84589813D01*
X81416400Y-85259988D01*
X81126708Y-85825061D01*
X80503335Y-86900845D01*
X79790576Y-87971358D01*
X79134716Y-88818053D01*
X79088171Y-88870594D01*
X78039341Y-90038066D01*
X79723171Y-92528380D01*
X80456061Y-93591510D01*
X80969418Y-94275082D01*
X81311843Y-94631009D01*
X81531937Y-94711206D01*
X81661000Y-94598295D01*
X82641710Y-93214021D01*
X83768934Y-92120506D01*
X85115787Y-91279880D01*
X86755385Y-90654271D01*
X88760841Y-90205808D01*
X90626198Y-89954610D01*
X92456000Y-89759096D01*
X92454764Y-90409048D01*
X92430716Y-90744113D01*
X92287522Y-90938448D01*
X91916213Y-91030720D01*
X91207823Y-91059596D01*
X90613264Y-91062507D01*
X88588643Y-91234688D01*
X86727895Y-91718404D01*
X85108695Y-92476316D01*
X83808719Y-93471084D01*
X82905640Y-94665369D01*
X82837088Y-94800650D01*
X82509931Y-95616136D01*
X82317505Y-96365798D01*
X82296000Y-96600193D01*
X82296000Y-97282000D01*
X93853000Y-97282000D01*
X96580223Y-97281030D01*
X98842591Y-97277016D01*
X100683250Y-97268296D01*
X102145342Y-97253211D01*
X103272013Y-97230099D01*
X104106406Y-97197302D01*
X104691666Y-97153159D01*
X105070936Y-97096009D01*
X105287361Y-97024193D01*
X105384084Y-96936050D01*
X105404422Y-96837500D01*
X105186192Y-95910896D01*
X104613936Y-94859343D01*
X103780237Y-93799967D01*
X102777680Y-92849896D01*
X101698852Y-92126258D01*
X101667410Y-92109859D01*
X100568755Y-91672027D01*
X99149834Y-91292649D01*
X97598117Y-91013858D01*
X96203847Y-90881948D01*
X95288157Y-90824609D01*
X94770492Y-90730719D01*
X94540879Y-90562325D01*
X94489347Y-90290248D01*
X94519639Y-90040942D01*
X94679268Y-89900702D01*
X95068936Y-89852733D01*
X95789344Y-89880235D01*
X96593701Y-89939230D01*
X99150536Y-90303703D01*
X101374148Y-90964962D01*
X103237076Y-91907929D01*
X104711855Y-93117529D01*
X105771022Y-94578685D01*
X106026267Y-95117341D01*
X106293198Y-95691095D01*
X106488350Y-95996616D01*
X106516213Y-96012000D01*
X106726772Y-95817716D01*
X107123905Y-95315611D01*
X107622023Y-94626805D01*
X108135535Y-93872418D01*
X108578851Y-93173571D01*
X108810118Y-92765852D01*
X109055159Y-92220649D01*
X109036132Y-91907141D01*
X108805602Y-91666282D01*
X108266933Y-91078877D01*
X107583986Y-90122281D01*
X106816179Y-88892676D01*
X106022928Y-87486244D01*
X105263650Y-85999168D01*
X105123925Y-85706529D01*
X104570264Y-84558397D01*
X104154079Y-83786235D01*
X103809578Y-83300457D01*
X103470966Y-83011474D01*
X103072449Y-82829699D01*
X102990789Y-82801950D01*
X102280152Y-82645282D01*
X102280152Y-79478339D01*
X105156000Y-79523692D01*
X105156000Y-73638307D01*
X100441603Y-73712653D01*
X95727205Y-73787000D01*
X95896717Y-72517000D01*
X96001757Y-71733499D01*
X96080213Y-71154530D01*
X96102615Y-70993000D01*
X95877946Y-70874960D01*
X95205539Y-70790423D01*
X94144899Y-70745134D01*
X93472000Y-70739000D01*
X92257484Y-70750349D01*
X91469065Y-70792230D01*
X91025188Y-70876393D01*
X90844297Y-71014587D01*
X90827474Y-71120000D01*
X90873981Y-71595865D01*
X90964092Y-72338371D01*
X91004427Y-72644000D01*
X91158906Y-73787000D01*
X86288283Y-73734859D01*
X81417659Y-73682719D01*
X81114616Y-72083859D01*
X80651316Y-70145297D01*
X79996342Y-68371511D01*
X79247190Y-66845365D01*
X78602455Y-65795258D01*
X77746420Y-64609601D01*
X76796904Y-63434662D01*
X75871728Y-62416709D01*
X75130105Y-61734124D01*
X74442792Y-61193483D01*
X74442792Y-60872505D01*
X74688423Y-60461241D01*
X75532262Y-59095578D01*
X76294634Y-57911928D01*
X76683053Y-57340500D01*
X77204972Y-56560838D01*
X77434057Y-56106881D01*
X77398007Y-55910220D01*
X77271600Y-55886992D01*
X77271600Y-55626000D01*
X79208074Y-55626000D01*
X79208074Y-55915734D01*
X78968827Y-55927022D01*
X78476088Y-55976083D01*
X78096020Y-56091026D01*
X77746160Y-56347250D01*
X77344041Y-56820152D01*
X76807199Y-57585127D01*
X76263500Y-58400483D01*
X75630211Y-59370317D01*
X75116929Y-60184956D01*
X74780536Y-60752195D01*
X74676000Y-60973836D01*
X74859998Y-61224519D01*
X75322196Y-61640540D01*
X75545296Y-61816750D01*
X76414592Y-62479794D01*
X78431402Y-59455926D01*
X79165760Y-58317194D01*
X79746093Y-57342657D01*
X80130224Y-56608498D01*
X80275978Y-56190899D01*
X80267432Y-56139552D01*
X79906351Y-55967127D01*
X79208074Y-55915734D01*
X79208074Y-55626000D01*
X104704536Y-55626000D01*
X104704536Y-55880000D01*
X93119268Y-55880000D01*
X90394741Y-55880417D01*
X88134791Y-55882963D01*
X86295994Y-55889581D01*
X84834927Y-55902212D01*
X83708167Y-55922798D01*
X82872290Y-55953281D01*
X82283873Y-55995603D01*
X81899493Y-56051706D01*
X81675727Y-56123532D01*
X81569151Y-56213024D01*
X81536342Y-56322122D01*
X81534000Y-56398118D01*
X81741688Y-57288754D01*
X82305960Y-58308662D01*
X83138634Y-59341666D01*
X84151526Y-60271590D01*
X84836000Y-60748266D01*
X86317536Y-61425756D01*
X88119588Y-61882165D01*
X90089182Y-62080456D01*
X90358849Y-62085425D01*
X91385109Y-62100236D01*
X92005586Y-62145073D01*
X92322491Y-62252354D01*
X92438033Y-62454496D01*
X92454349Y-62750023D01*
X92456000Y-63397046D01*
X90517924Y-63211922D01*
X87868332Y-62805976D01*
X85588112Y-62135627D01*
X83697971Y-61211903D01*
X82218615Y-60045828D01*
X81170748Y-58648429D01*
X80903715Y-58092260D01*
X80601808Y-57532114D01*
X80323972Y-57277906D01*
X80248274Y-57286719D01*
X80031915Y-57530774D01*
X79625892Y-58066985D01*
X79115372Y-58774103D01*
X78585525Y-59530880D01*
X78121518Y-60216068D01*
X77808521Y-60708419D01*
X77724000Y-60880337D01*
X77866077Y-61092086D01*
X78244742Y-61610674D01*
X78788649Y-62338910D01*
X79009227Y-62631116D01*
X79653211Y-63573040D01*
X80399022Y-64804970D01*
X81144400Y-66151709D01*
X81667913Y-67186202D01*
X82223192Y-68291264D01*
X82736415Y-69222429D01*
X83152476Y-69885531D01*
X83416269Y-70186406D01*
X83426326Y-70190989D01*
X83802303Y-70238385D01*
X84613569Y-70276622D01*
X85792306Y-70306027D01*
X87270693Y-70326922D01*
X88980912Y-70339634D01*
X90855144Y-70344486D01*
X92825568Y-70341803D01*
X94824367Y-70331911D01*
X96783721Y-70315133D01*
X98635811Y-70291795D01*
X100312817Y-70262220D01*
X101746920Y-70226735D01*
X102870301Y-70185662D01*
X103615142Y-70139328D01*
X103906664Y-70092941D01*
X104237281Y-69759865D01*
X104701052Y-69097486D01*
X105210374Y-68234030D01*
X105332145Y-68006379D01*
X105995464Y-66839930D01*
X106789497Y-65584981D01*
X107503881Y-64566048D01*
X108071287Y-63798353D01*
X108495676Y-63194078D01*
X108702843Y-62859784D01*
X108712000Y-62831176D01*
X108576993Y-62579974D01*
X108211152Y-62002209D01*
X107673246Y-61188687D01*
X107136409Y-60396830D01*
X106445561Y-59395919D01*
X105977815Y-58760283D01*
X105670837Y-58434971D01*
X105462298Y-58365028D01*
X105289865Y-58495502D01*
X105167909Y-58661337D01*
X104306320Y-59803244D01*
X103435650Y-60712442D01*
X102473406Y-61429612D01*
X101337093Y-61995438D01*
X99944219Y-62450601D01*
X98212291Y-62835784D01*
X96058816Y-63191669D01*
X95948500Y-63207967D01*
X95130484Y-63319142D01*
X94694862Y-63319423D01*
X94521480Y-63172138D01*
X94490184Y-62840616D01*
X94490352Y-62762939D01*
X94516483Y-62418525D01*
X94665472Y-62217689D01*
X95047813Y-62117090D01*
X95774001Y-62073389D01*
X96283124Y-62059753D01*
X98213993Y-61864774D01*
X100032211Y-61402275D01*
X101603289Y-60715161D01*
X102565033Y-60055699D01*
X103558347Y-59059936D01*
X104177196Y-58035631D01*
X104527493Y-56823723D01*
X104704536Y-55880000D01*
X104704536Y-55626000D01*
X106150784Y-55626000D01*
X106150784Y-55887861D01*
X105726957Y-56189789D01*
X105591929Y-56578500D01*
X105501191Y-57152466D01*
X105448058Y-57452066D01*
X105570238Y-57721655D01*
X105929577Y-58299934D01*
X106461922Y-59086602D01*
X106792814Y-59554486D01*
X107551525Y-60639437D01*
X108326061Y-61791832D01*
X108974568Y-62799636D01*
X109097204Y-62998920D01*
X109579678Y-63751404D01*
X109976098Y-64294223D01*
X110204312Y-64515392D01*
X110210115Y-64516000D01*
X110497040Y-64348033D01*
X110943865Y-63937759D01*
X110999837Y-63879045D01*
X111367307Y-63451433D01*
X111462948Y-63109035D01*
X111307205Y-62633261D01*
X111148315Y-62291545D01*
X110772650Y-61592590D01*
X110197315Y-60629647D01*
X109505168Y-59530385D01*
X108779071Y-58422474D01*
X108101882Y-57433581D01*
X107556460Y-56691375D01*
X107358002Y-56451500D01*
X106732571Y-55972358D01*
X106150784Y-55887861D01*
X106150784Y-55626000D01*
X128270000Y-55626000D01*
X128270000Y-55880000D01*
X107099449Y-55880000D01*
X107612002Y-56451500D01*
X107970398Y-56907978D01*
X108514472Y-57667460D01*
X109156095Y-58605052D01*
X109538697Y-59182000D01*
X110176301Y-60214919D01*
X110946491Y-61553942D01*
X111707798Y-62943364D01*
X111707798Y-63709365D01*
X111406271Y-63784804D01*
X110997672Y-64132671D01*
X110690890Y-64429480D01*
X108991775Y-66357079D01*
X107521261Y-68592692D01*
X106376164Y-70973092D01*
X105818483Y-72644000D01*
X105594970Y-73877601D01*
X105467617Y-75446128D01*
X105436539Y-77185668D01*
X105501850Y-78932312D01*
X105663664Y-80522145D01*
X105812427Y-81356859D01*
X106662866Y-84079824D01*
X107970811Y-86690212D01*
X109686151Y-89095213D01*
X110438932Y-89939509D01*
X110438932Y-90684832D01*
X110236261Y-90886194D01*
X109868563Y-91423079D01*
X109411717Y-92183764D01*
X109365371Y-92265500D01*
X108728162Y-93315849D01*
X107996064Y-94408299D01*
X107468491Y-95123000D01*
X106787335Y-96051073D01*
X106475656Y-96678191D01*
X106538273Y-97057078D01*
X106980008Y-97240458D01*
X107665854Y-97282000D01*
X108199412Y-97269701D01*
X108624134Y-97191418D01*
X109005501Y-96985067D01*
X109408992Y-96588564D01*
X109900089Y-95939826D01*
X110544272Y-94976770D01*
X111246980Y-93886669D01*
X112366541Y-92142338D01*
X111491771Y-91417001D01*
X110925871Y-90976673D01*
X110522773Y-90715291D01*
X110438932Y-90684832D01*
X110438932Y-89939509D01*
X110457923Y-89960809D01*
X112464704Y-92075000D01*
X113185328Y-90606216D01*
X113602689Y-89642469D01*
X113727583Y-89032689D01*
X113658476Y-88801928D01*
X113376887Y-88428144D01*
X112900411Y-87802834D01*
X112455987Y-87222712D01*
X110987465Y-84923725D01*
X109953851Y-82406750D01*
X109345953Y-79642859D01*
X109154654Y-76835000D01*
X109180704Y-75392556D01*
X109292121Y-74266569D01*
X109513676Y-73269120D01*
X109703317Y-72672811D01*
X110406420Y-71023563D01*
X111315805Y-69451803D01*
X112322412Y-68136247D01*
X112720250Y-67728907D01*
X113492223Y-67004815D01*
X112810673Y-65569907D01*
X112325928Y-64556686D01*
X111986327Y-63951582D01*
X111707798Y-63709365D01*
X111707798Y-62943364D01*
X111764140Y-63046191D01*
X112544118Y-64538788D01*
X112756405Y-64960500D01*
X114559970Y-68580000D01*
X115144478Y-68580000D01*
X115144478Y-70510308D01*
X114911993Y-70631094D01*
X114324164Y-71270354D01*
X113674545Y-72206836D01*
X113076701Y-73260992D01*
X112674052Y-74169368D01*
X112433307Y-75259180D01*
X112346400Y-76666450D01*
X112405955Y-78226894D01*
X112604601Y-79776227D01*
X112934962Y-81150166D01*
X112995504Y-81331211D01*
X113535038Y-82661002D01*
X114172941Y-83905311D01*
X114827827Y-84918535D01*
X115302717Y-85458978D01*
X115546392Y-85648206D01*
X115752386Y-85656015D01*
X115985791Y-85414222D01*
X116311698Y-84854645D01*
X116795199Y-83909102D01*
X116809511Y-83880640D01*
X117826125Y-81858696D01*
X116968946Y-81027885D01*
X115963045Y-79776091D01*
X115350642Y-78403848D01*
X115145009Y-77001762D01*
X115359418Y-75660442D01*
X116007141Y-74470496D01*
X116008236Y-74469130D01*
X116759183Y-73533000D01*
X116036019Y-71915704D01*
X115641851Y-71075382D01*
X115366783Y-70632189D01*
X115144478Y-70510308D01*
X115144478Y-68580000D01*
X115373223Y-68580000D01*
X115373223Y-69458198D01*
X115303178Y-69476924D01*
X115316760Y-69742359D01*
X115527229Y-70336917D01*
X115891198Y-71142139D01*
X115974706Y-71310327D01*
X116399219Y-72161480D01*
X116727895Y-72836019D01*
X116898415Y-73205748D01*
X116906683Y-73227532D01*
X117154078Y-73252019D01*
X117710093Y-73090737D01*
X118114011Y-72927309D01*
X118900838Y-72629167D01*
X119983191Y-72282052D01*
X121161086Y-71948945D01*
X121484411Y-71865854D01*
X122452607Y-71612195D01*
X123188272Y-71397861D01*
X123587117Y-71254348D01*
X123627344Y-71218676D01*
X123271273Y-71053791D01*
X122529252Y-70829817D01*
X121506575Y-70568787D01*
X120308536Y-70292731D01*
X119040430Y-70023683D01*
X117807551Y-69783674D01*
X116715194Y-69594735D01*
X115868653Y-69478899D01*
X115373223Y-69458198D01*
X115373223Y-68580000D01*
X115613749Y-68580000D01*
X116238808Y-68637868D01*
X117236220Y-68796843D01*
X118485469Y-69034977D01*
X119866038Y-69330324D01*
X120373265Y-69446728D01*
X121893000Y-69779127D01*
X123443390Y-70078640D01*
X124258222Y-70215164D01*
X124258222Y-71676024D01*
X123592540Y-71712254D01*
X122588186Y-71886114D01*
X121383920Y-72161672D01*
X120118499Y-72502994D01*
X118930682Y-72874146D01*
X117959228Y-73239196D01*
X117626929Y-73393282D01*
X116437239Y-74246432D01*
X115676602Y-75343682D01*
X115361822Y-76632288D01*
X115509702Y-78059508D01*
X115842519Y-78994000D01*
X116220219Y-79645785D01*
X116793665Y-80428378D01*
X117469582Y-81237619D01*
X118154696Y-81969344D01*
X118755734Y-82519391D01*
X119179421Y-82783598D01*
X119244324Y-82792903D01*
X119569002Y-82692337D01*
X120256223Y-82427082D01*
X121203947Y-82037934D01*
X122266468Y-81584643D01*
X125025936Y-80387480D01*
X125531826Y-79031327D01*
X126008234Y-78026503D01*
X126594218Y-77373232D01*
X126898740Y-77167157D01*
X127759764Y-76659141D01*
X126881589Y-75633191D01*
X126285675Y-74775082D01*
X125744529Y-73730204D01*
X125529646Y-73181120D01*
X125235115Y-72372660D01*
X124968873Y-71931929D01*
X124627174Y-71736113D01*
X124258222Y-71676024D01*
X124258222Y-70215164D01*
X124861892Y-70316309D01*
X125985961Y-70463179D01*
X126174500Y-70480184D01*
X128270000Y-70646911D01*
X128270000Y-71374000D01*
X126915334Y-71374000D01*
X126129712Y-71399707D01*
X125572212Y-71465682D01*
X125412349Y-71522318D01*
X125397544Y-71845106D01*
X125555623Y-72482618D01*
X125835080Y-73293823D01*
X126184413Y-74137688D01*
X126552115Y-74873181D01*
X126753363Y-75194340D01*
X127254068Y-75781256D01*
X127747132Y-76191088D01*
X127779664Y-76209453D01*
X128001692Y-76301151D01*
X128144095Y-76234902D01*
X128157519Y-76183748D01*
X128157519Y-76708000D01*
X127636295Y-76895032D01*
X126986862Y-77364278D01*
X126366801Y-77977963D01*
X125933688Y-78598312D01*
X125892529Y-78688348D01*
X125573909Y-79579326D01*
X125495998Y-80118187D01*
X125619414Y-80264000D01*
X125914746Y-80171411D01*
X126519675Y-79933570D01*
X127016414Y-79724721D01*
X128180311Y-79224026D01*
X128180311Y-79603460D01*
X127843818Y-79632939D01*
X127825500Y-79640779D01*
X127339483Y-79833203D01*
X126580252Y-80115100D01*
X126067656Y-80299196D01*
X125283830Y-80592406D01*
X124236019Y-81005519D01*
X123037435Y-81491444D01*
X121801287Y-82003089D01*
X120640786Y-82493361D01*
X119669144Y-82915169D01*
X118999570Y-83221422D01*
X118811947Y-83317337D01*
X118334876Y-83538111D01*
X118174131Y-83521586D01*
X118399811Y-83284390D01*
X118465390Y-83235136D01*
X118775718Y-82949215D01*
X118664229Y-82701153D01*
X118486451Y-82546223D01*
X118118657Y-82333026D01*
X117822739Y-82515283D01*
X117689351Y-82686587D01*
X117442326Y-83233033D01*
X117428662Y-83589744D01*
X117323121Y-84031147D01*
X117059825Y-84290396D01*
X116676422Y-84694117D01*
X116586000Y-84982943D01*
X116691812Y-85127179D01*
X117051931Y-85053847D01*
X117730387Y-84741649D01*
X118427500Y-84370404D01*
X119249990Y-83953473D01*
X120346322Y-83445413D01*
X121623635Y-82884093D01*
X122989068Y-82307384D01*
X124349758Y-81753156D01*
X125612845Y-81259279D01*
X126685466Y-80863625D01*
X127474761Y-80604063D01*
X127873928Y-80518000D01*
X128004909Y-80431885D01*
X128004909Y-81534000D01*
X127564908Y-81631775D01*
X126763572Y-81898075D01*
X125702550Y-82292362D01*
X124483494Y-82774098D01*
X123208054Y-83302744D01*
X121977881Y-83837763D01*
X120894625Y-84338617D01*
X120558396Y-84503655D01*
X119314193Y-85160286D01*
X117989388Y-85912409D01*
X116819259Y-86625141D01*
X116534007Y-86810815D01*
X115597884Y-87467685D01*
X114949563Y-88048389D01*
X114438375Y-88722751D01*
X113913651Y-89660597D01*
X113788279Y-89905650D01*
X113228805Y-90942099D01*
X112493991Y-92211927D01*
X111693892Y-93528256D01*
X111164506Y-94361000D01*
X110518997Y-95369800D01*
X109988243Y-96230045D01*
X109627805Y-96849530D01*
X109493338Y-97134425D01*
X109652888Y-97070004D01*
X110098949Y-96711448D01*
X110756870Y-96121868D01*
X111315500Y-95593939D01*
X112303775Y-94666515D01*
X113201968Y-93894472D01*
X114106896Y-93213717D01*
X115115374Y-92560158D01*
X116324221Y-91869702D01*
X117830251Y-91078256D01*
X119126000Y-90423397D01*
X121089475Y-89423205D01*
X122668997Y-88573796D01*
X123946615Y-87823703D01*
X125004378Y-87121458D01*
X125924336Y-86415593D01*
X126788538Y-85654640D01*
X126909675Y-85540849D01*
X127611336Y-84857120D01*
X128017736Y-84358745D01*
X128209338Y-83889176D01*
X128266601Y-83291865D01*
X128270000Y-82894155D01*
X128270000Y-86097429D01*
X126682500Y-87338904D01*
X125756086Y-88024737D01*
X124820507Y-88654762D01*
X124070294Y-89098344D01*
X124037426Y-89115166D01*
X123401368Y-89459074D01*
X123130568Y-89741125D01*
X123134800Y-90124394D01*
X123251615Y-90535437D01*
X123484105Y-91071940D01*
X123717501Y-91285078D01*
X123763031Y-91272809D01*
X123837244Y-91347496D01*
X123680783Y-91726171D01*
X123479210Y-92064271D01*
X123345587Y-92096925D01*
X123232734Y-91760188D01*
X123093474Y-90990113D01*
X123080570Y-90912628D01*
X122886707Y-90166239D01*
X122620144Y-89582433D01*
X122599763Y-89553261D01*
X122443252Y-89394389D01*
X122220352Y-89338779D01*
X121857362Y-89411209D01*
X121280580Y-89636458D01*
X120416305Y-90039306D01*
X119190836Y-90644532D01*
X118856494Y-90811782D01*
X116863159Y-91837734D01*
X115314832Y-92695565D01*
X114218228Y-93381027D01*
X113580063Y-93889873D01*
X113407054Y-94217855D01*
X113420764Y-94249798D01*
X113741758Y-94391821D01*
X114386615Y-94479147D01*
X114514634Y-94483521D01*
X114514634Y-94996000D01*
X114310001Y-95167363D01*
X114398677Y-95581687D01*
X114720367Y-96055499D01*
X115191321Y-96451872D01*
X115496337Y-96463441D01*
X115570000Y-96222500D01*
X115405751Y-95810818D01*
X115034614Y-95342659D01*
X114639010Y-95030021D01*
X114514634Y-94996000D01*
X114514634Y-94483521D01*
X114759491Y-94491889D01*
X115399628Y-94529931D01*
X115676173Y-94624681D01*
X115636544Y-94695498D01*
X115454539Y-94951001D01*
X115529967Y-95427652D01*
X115625071Y-95697915D01*
X115782637Y-96289747D01*
X115762640Y-96662138D01*
X115748645Y-96680022D01*
X115383247Y-96732160D01*
X114872127Y-96456475D01*
X114347062Y-95950656D01*
X113958793Y-95353176D01*
X113551934Y-94732305D01*
X113085267Y-94529161D01*
X112507106Y-94753111D01*
X111765765Y-95413522D01*
X111398698Y-95817137D01*
X110822170Y-96485184D01*
X110406187Y-96984349D01*
X110236485Y-97211617D01*
X110236000Y-97214137D01*
X110480488Y-97229815D01*
X111175901Y-97244214D01*
X112265165Y-97256904D01*
X113691207Y-97267457D01*
X115396953Y-97275441D01*
X117325329Y-97280428D01*
X119253000Y-97282000D01*
X128270000Y-97282000D01*
X128270000Y-92697378D01*
X128266664Y-91068890D01*
X128252486Y-89884304D01*
X128221211Y-89079542D01*
X128166584Y-88590526D01*
X128082350Y-88353178D01*
X127962255Y-88303421D01*
X127845661Y-88350230D01*
X127455865Y-88731075D01*
X127060194Y-89350833D01*
X127014944Y-89442351D01*
X126661813Y-90024826D01*
X126219100Y-90260781D01*
X125700695Y-90297000D01*
X124950638Y-90401588D01*
X124359553Y-90655599D01*
X124330827Y-90678000D01*
X124015927Y-90915252D01*
X124017538Y-90791870D01*
X124174128Y-90486051D01*
X124448970Y-90119399D01*
X124852635Y-90007351D01*
X125469803Y-90071470D01*
X126123040Y-90140884D01*
X126482247Y-89997400D01*
X126751093Y-89529893D01*
X126838337Y-89324783D01*
X127225393Y-88637153D01*
X127679905Y-88134787D01*
X127743247Y-88090765D01*
X128175933Y-87553389D01*
X128270000Y-86929616D01*
X128270000Y-86097429D01*
X128270000Y-82894155D01*
X128224816Y-82114211D01*
X128106139Y-81629411D01*
X128004909Y-81534000D01*
X128004909Y-80431885D01*
X128199734Y-80303794D01*
X128270000Y-79982824D01*
X128180311Y-79603460D01*
X128180311Y-79224026D01*
X128270000Y-79185442D01*
X128270000Y-77946721D01*
X128249271Y-77232327D01*
X128196400Y-76784739D01*
X128157519Y-76708000D01*
X128157519Y-76183748D01*
X128224497Y-75928519D01*
X128260522Y-75299817D01*
X128269796Y-74266608D01*
X128270000Y-73922936D01*
X128270000Y-71374000D01*
X128270000Y-70646911D01*
X128270000Y-55880000D01*
X128270000Y-55626000D01*
X128524000Y-55626000D01*
X128524000Y-97536000D01*
X58420000Y-97536000D01*
X58420000Y-97536000D01*
G37*
X58420000Y-97536000D02*
X58420000Y-55626000D01*
X72223634Y-55626000D01*
X72223634Y-55880000D01*
X67993267Y-55880000D01*
X68477134Y-56451500D01*
X68961000Y-57023000D01*
X68389500Y-56539133D01*
X67959555Y-56217699D01*
X67649999Y-56231066D01*
X67246500Y-56539133D01*
X66675000Y-57023000D01*
X67642734Y-55880000D01*
X58674000Y-55880000D01*
X58674000Y-64262000D01*
X59288819Y-64262000D01*
X59778236Y-64131339D01*
X60034852Y-63651767D01*
X60065839Y-63523501D01*
X60213987Y-63072192D01*
X60500799Y-62837426D01*
X61078463Y-62728507D01*
X61451030Y-62698001D01*
X62213467Y-62690363D01*
X62563815Y-62796118D01*
X62573816Y-62871216D01*
X62282379Y-63015891D01*
X61683349Y-63051156D01*
X61495856Y-63038189D01*
X60842098Y-63017379D01*
X60496230Y-63192100D01*
X60266038Y-63668671D01*
X60244263Y-63730472D01*
X59931917Y-64310508D01*
X59461531Y-64510364D01*
X59322213Y-64516000D01*
X58940086Y-64554501D01*
X58747966Y-64756086D01*
X58681052Y-65249872D01*
X58674000Y-65807586D01*
X58674000Y-67099173D01*
X59880500Y-66031863D01*
X60805274Y-65289429D01*
X61852262Y-64556776D01*
X62420500Y-64208030D01*
X63127678Y-63767315D01*
X63611180Y-63390409D01*
X63754000Y-63193614D01*
X63885167Y-63175147D01*
X64201597Y-63488530D01*
X64210592Y-63499588D01*
X64667184Y-64063455D01*
X67830092Y-62478396D01*
X69129647Y-61813018D01*
X70398179Y-61138749D01*
X71498828Y-60529878D01*
X72294729Y-60060695D01*
X72358394Y-60020421D01*
X73087074Y-59542592D01*
X73443897Y-59244983D01*
X73488234Y-59039289D01*
X73279458Y-58837205D01*
X73194533Y-58776802D01*
X72840789Y-58378526D01*
X72797080Y-58062629D01*
X72704788Y-57693028D01*
X72306530Y-57232964D01*
X72221016Y-57162354D01*
X71738824Y-56862247D01*
X71449346Y-56830102D01*
X71427103Y-56863692D01*
X71474578Y-57316496D01*
X71749263Y-57829124D01*
X72107611Y-58158726D01*
X72208437Y-58185520D01*
X72188831Y-58259272D01*
X71781444Y-58422923D01*
X71501000Y-58512679D01*
X70827179Y-58683216D01*
X70426167Y-58644028D01*
X70095991Y-58366067D01*
X70040670Y-58302659D01*
X69698758Y-57949911D01*
X69467544Y-57979884D01*
X69216539Y-58276174D01*
X68972059Y-58718254D01*
X69086878Y-59139949D01*
X69192116Y-59309721D01*
X69409655Y-59743629D01*
X69271707Y-60013062D01*
X69096343Y-60133843D01*
X68621885Y-60283191D01*
X68365486Y-60135885D01*
X67938134Y-59987395D01*
X67507390Y-60119044D01*
X66829416Y-60242944D01*
X66509194Y-60116330D01*
X66234612Y-59858336D01*
X66314852Y-59519042D01*
X66444325Y-59309049D01*
X66668661Y-58829955D01*
X66540038Y-58419931D01*
X66447117Y-58285761D01*
X66128676Y-57959879D01*
X65804696Y-58047819D01*
X65637729Y-58175587D01*
X65358649Y-58351251D01*
X65361293Y-58245584D01*
X65809111Y-57821477D01*
X66464740Y-57505857D01*
X67105105Y-57385688D01*
X67401575Y-57450199D01*
X67709450Y-57493418D01*
X67709450Y-58493769D01*
X67564000Y-58547000D01*
X67413046Y-58827829D01*
X67519737Y-58985336D01*
X67926551Y-59108230D01*
X68072000Y-59055000D01*
X68222955Y-58774170D01*
X68116264Y-58616663D01*
X67709450Y-58493769D01*
X67709450Y-57493418D01*
X68005099Y-57534922D01*
X68259135Y-57448606D01*
X68811696Y-57391212D01*
X69469000Y-57689071D01*
X70224241Y-58139434D01*
X70696223Y-58356585D01*
X71023883Y-58389830D01*
X71257954Y-58323943D01*
X71512607Y-58098819D01*
X71384954Y-57678466D01*
X71160999Y-57068372D01*
X71151292Y-56582296D01*
X71354512Y-56388000D01*
X71776782Y-56564203D01*
X72306148Y-56990377D01*
X72789159Y-57512868D01*
X73072366Y-57978022D01*
X73093487Y-58129274D01*
X73244761Y-58501973D01*
X73618081Y-58630993D01*
X74083388Y-58561336D01*
X74641342Y-58183614D01*
X75332581Y-57493530D01*
X75907570Y-56839330D01*
X76312054Y-56325813D01*
X76454000Y-56076036D01*
X76213901Y-56011081D01*
X75549147Y-55955219D01*
X74543059Y-55912310D01*
X73278955Y-55886215D01*
X72223634Y-55880000D01*
X72223634Y-55626000D01*
X77271600Y-55626000D01*
X77271600Y-55886992D01*
X76862886Y-56085150D01*
X76364556Y-56573023D01*
X76200000Y-56786717D01*
X75290686Y-57863304D01*
X74074937Y-58946570D01*
X72508858Y-60067427D01*
X70548552Y-61256789D01*
X68150125Y-62545571D01*
X67691000Y-62779130D01*
X65845204Y-63719470D01*
X64378451Y-64490050D01*
X63211150Y-65139561D01*
X62263711Y-65716694D01*
X61456545Y-66270139D01*
X60710061Y-66848586D01*
X59944670Y-67500725D01*
X59880500Y-67557306D01*
X59223041Y-68161396D01*
X58862143Y-68623819D01*
X58708917Y-69133798D01*
X58674470Y-69880557D01*
X58674000Y-70125586D01*
X58695200Y-70923026D01*
X58750235Y-71467823D01*
X58812092Y-71628000D01*
X59246133Y-71526618D01*
X60044197Y-71249129D01*
X61110561Y-70835517D01*
X62349501Y-70325767D01*
X63665293Y-69759864D01*
X64962213Y-69177791D01*
X66144535Y-68619534D01*
X66802000Y-68290570D01*
X68727022Y-67257317D01*
X70166613Y-66391970D01*
X70166613Y-67860333D01*
X69877562Y-67998521D01*
X69225376Y-68315223D01*
X68302980Y-68765179D01*
X67203301Y-69303133D01*
X67055113Y-69375727D01*
X65598628Y-70054595D01*
X63966773Y-70760282D01*
X62388587Y-71396152D01*
X61404500Y-71759853D01*
X60163566Y-72211325D01*
X59342647Y-72560338D01*
X58872928Y-72842669D01*
X58685594Y-73094094D01*
X58674000Y-73179482D01*
X58674000Y-82477112D01*
X58674000Y-97282000D01*
X79738987Y-97282000D01*
X78635160Y-95694500D01*
X77052748Y-93298010D01*
X75502508Y-90692721D01*
X73999405Y-87927834D01*
X73427529Y-86847748D01*
X72925733Y-85921497D01*
X72548829Y-85248853D01*
X72353430Y-84931824D01*
X71992586Y-84749230D01*
X71297322Y-84576010D01*
X70671227Y-84481263D01*
X69827156Y-84350583D01*
X68657798Y-84123417D01*
X67328833Y-83833718D01*
X66214151Y-83567831D01*
X64760179Y-83241293D01*
X63208521Y-82951440D01*
X61775197Y-82735952D01*
X60943651Y-82648448D01*
X58674000Y-82477112D01*
X58674000Y-73179482D01*
X58711263Y-73388603D01*
X58883580Y-73465609D01*
X59281746Y-73398362D01*
X59996555Y-73174726D01*
X60800250Y-72895240D01*
X62701697Y-72191461D01*
X64519601Y-71457521D01*
X66194191Y-70722999D01*
X67665694Y-70017474D01*
X67861003Y-69912932D01*
X67861003Y-70292452D01*
X64889986Y-71545978D01*
X63659147Y-72071683D01*
X62812792Y-72462699D01*
X62265443Y-72777214D01*
X61931625Y-73073417D01*
X61725860Y-73409497D01*
X61577089Y-73801252D01*
X61219294Y-74508279D01*
X60665533Y-75254641D01*
X60035678Y-75910850D01*
X59449600Y-76347417D01*
X59122231Y-76453050D01*
X59103510Y-76341891D01*
X59444893Y-76064938D01*
X59628822Y-75947372D01*
X60346512Y-75356479D01*
X60970459Y-74582004D01*
X61377318Y-73797974D01*
X61467051Y-73353767D01*
X61444676Y-73154149D01*
X61319478Y-73065236D01*
X61005989Y-73101753D01*
X60418743Y-73278424D01*
X59472273Y-73609976D01*
X59005569Y-73777863D01*
X58878156Y-74001670D01*
X58785854Y-74594505D01*
X58725563Y-75596405D01*
X58694182Y-77047407D01*
X58688624Y-77869892D01*
X58675110Y-81852525D01*
X59950140Y-81730011D01*
X60712006Y-81631586D01*
X61244081Y-81516112D01*
X61377185Y-81455482D01*
X61434252Y-81133877D01*
X61401343Y-80499134D01*
X61359353Y-80170846D01*
X61114921Y-79287233D01*
X60603562Y-78452364D01*
X60104502Y-77873112D01*
X59575458Y-77275019D01*
X59256978Y-76854677D01*
X59215107Y-76708000D01*
X59583747Y-76916816D01*
X60081846Y-77458935D01*
X60622881Y-78207858D01*
X61120328Y-79037087D01*
X61487664Y-79820125D01*
X61607570Y-80205800D01*
X61783226Y-80837060D01*
X62033526Y-81248329D01*
X62440771Y-81456763D01*
X63087262Y-81479519D01*
X64055301Y-81333752D01*
X65427187Y-81036619D01*
X65506182Y-81018482D01*
X67627900Y-80400507D01*
X69316025Y-79627327D01*
X69783972Y-79281149D01*
X69783972Y-79757673D01*
X69368792Y-79889883D01*
X68788072Y-80208620D01*
X68746221Y-80235877D01*
X68160114Y-80512857D01*
X67246443Y-80824639D01*
X66177304Y-81114351D01*
X65886776Y-81180870D01*
X64936797Y-81416999D01*
X64223875Y-81647697D01*
X63856417Y-81835469D01*
X63830975Y-81891922D01*
X64095542Y-82047325D01*
X64752072Y-82284739D01*
X65697921Y-82570306D01*
X66690419Y-82835139D01*
X68225500Y-83187712D01*
X69553650Y-83425776D01*
X70607422Y-83542339D01*
X71319373Y-83530407D01*
X71622055Y-83382986D01*
X71628000Y-83347132D01*
X71519480Y-82914741D01*
X71240623Y-82235095D01*
X70861488Y-81444563D01*
X70452131Y-80679515D01*
X70082611Y-80076319D01*
X69822985Y-79771345D01*
X69783972Y-79757673D01*
X69783972Y-79281149D01*
X70555218Y-78710596D01*
X71330136Y-77661968D01*
X71625439Y-76493098D01*
X71628000Y-76368033D01*
X71401686Y-75039081D01*
X70757588Y-73618214D01*
X69747979Y-72206165D01*
X69117683Y-71530235D01*
X67861003Y-70292452D01*
X67861003Y-69912932D01*
X68874340Y-69370525D01*
X69460064Y-69001120D01*
X69460064Y-69342000D01*
X69172556Y-69467121D01*
X68682830Y-69762194D01*
X68259983Y-70083815D01*
X68231429Y-70331560D01*
X68453290Y-70587694D01*
X68795776Y-70847936D01*
X69062711Y-70712200D01*
X69230524Y-70499953D01*
X69506843Y-69989476D01*
X69598520Y-69542366D01*
X69469152Y-69342272D01*
X69460064Y-69342000D01*
X69460064Y-69001120D01*
X69760355Y-68811732D01*
X70263969Y-68370674D01*
X70358000Y-68165402D01*
X70260419Y-67869191D01*
X70166613Y-67860333D01*
X70166613Y-66391970D01*
X70220100Y-66359818D01*
X71054755Y-65760638D01*
X71054755Y-67529442D01*
X71035068Y-67547332D01*
X70837008Y-67845581D01*
X70486609Y-68452417D01*
X70061869Y-69223651D01*
X69640787Y-70015090D01*
X69301361Y-70682544D01*
X69121589Y-71081822D01*
X69119132Y-71089214D01*
X69256911Y-71314306D01*
X69644428Y-71790688D01*
X70002269Y-72197415D01*
X71047714Y-73626537D01*
X71686501Y-75115450D01*
X71876422Y-76389768D01*
X71802286Y-77172136D01*
X71503476Y-77822207D01*
X71007086Y-78436962D01*
X70132172Y-79405387D01*
X70959814Y-81139621D01*
X71787457Y-82873854D01*
X72725232Y-81596349D01*
X73564728Y-80361271D01*
X74100821Y-79286223D01*
X74394814Y-78182130D01*
X74508011Y-76859917D01*
X74516041Y-76073000D01*
X74441234Y-74308545D01*
X74202075Y-72822571D01*
X73748596Y-71398601D01*
X73108945Y-69977000D01*
X72468298Y-68803597D01*
X71887966Y-67975929D01*
X71404576Y-67536907D01*
X71054755Y-67529442D01*
X71054755Y-65760638D01*
X71328187Y-65564347D01*
X72098236Y-64837175D01*
X72577197Y-64144577D01*
X72579229Y-64140571D01*
X73120794Y-63134711D01*
X73854230Y-61857943D01*
X74442792Y-60872505D01*
X74442792Y-61193483D01*
X73928026Y-62202508D01*
X73558772Y-62853518D01*
X73240517Y-63294391D01*
X73155630Y-63370756D01*
X72948932Y-63576220D01*
X72970247Y-63872759D01*
X73257744Y-64351629D01*
X73849592Y-65104086D01*
X73912515Y-65180389D01*
X75506675Y-67502923D01*
X76685386Y-70088192D01*
X77429652Y-72881303D01*
X77720474Y-75827360D01*
X77724000Y-76194529D01*
X77595652Y-78481155D01*
X77176309Y-80461706D01*
X76414523Y-82276795D01*
X75258846Y-84067031D01*
X74492759Y-85025799D01*
X73367917Y-86358599D01*
X74190445Y-87819799D01*
X74618989Y-88576421D01*
X74940601Y-89135522D01*
X75082061Y-89370407D01*
X75339575Y-89325456D01*
X75844288Y-88945392D01*
X76526583Y-88292205D01*
X76941513Y-87838387D01*
X76941513Y-88805269D01*
X76661824Y-88817908D01*
X76164391Y-89034429D01*
X75634830Y-89349901D01*
X75258756Y-89659394D01*
X75184000Y-89798810D01*
X75311533Y-90039571D01*
X75660808Y-90627130D01*
X76181846Y-91479064D01*
X76824663Y-92512952D01*
X76983349Y-92766014D01*
X77951018Y-94293585D01*
X78701247Y-95438276D01*
X79277150Y-96253297D01*
X79721843Y-96791858D01*
X80078441Y-97107168D01*
X80390061Y-97252439D01*
X80642594Y-97282000D01*
X81052989Y-97205612D01*
X81251477Y-96881436D01*
X81328168Y-96329500D01*
X81327618Y-95908225D01*
X81226342Y-95462589D01*
X80983293Y-94910214D01*
X80557423Y-94168727D01*
X79907684Y-93155752D01*
X79271443Y-92202000D01*
X78511407Y-91076308D01*
X77843951Y-90095761D01*
X77323813Y-89340158D01*
X77005730Y-88889300D01*
X76941513Y-88805269D01*
X76941513Y-87838387D01*
X77316839Y-87427883D01*
X77486566Y-87229408D01*
X78977456Y-85151582D01*
X80192592Y-82822110D01*
X81021264Y-80463256D01*
X81249140Y-79652659D01*
X81423327Y-79144919D01*
X81513829Y-79023942D01*
X81520015Y-79068121D01*
X81556372Y-79226263D01*
X81698918Y-79341025D01*
X82014606Y-79417692D01*
X82570388Y-79461548D01*
X83433216Y-79477879D01*
X84670043Y-79471969D01*
X86346725Y-79449121D01*
X91159450Y-79375000D01*
X91004698Y-80518000D01*
X90904983Y-81300041D01*
X90838415Y-81906088D01*
X90827474Y-82042000D01*
X90896679Y-82215597D01*
X91183183Y-82328582D01*
X91768540Y-82392702D01*
X92734306Y-82419708D01*
X93472000Y-82423000D01*
X94708117Y-82399992D01*
X95586417Y-82334800D01*
X96047396Y-82233169D01*
X96102615Y-82169000D01*
X96049929Y-81785055D01*
X95956309Y-81090367D01*
X95896717Y-80645000D01*
X95727205Y-79375000D01*
X100441603Y-79449346D01*
X102280152Y-79478339D01*
X102280152Y-82645282D01*
X101716646Y-82650347D01*
X101659762Y-82667654D01*
X101313667Y-82705448D01*
X100520194Y-82739728D01*
X99339958Y-82769496D01*
X97833574Y-82793753D01*
X96061659Y-82811501D01*
X94084827Y-82821742D01*
X92183962Y-82823718D01*
X89750080Y-82817204D01*
X87769819Y-82812147D01*
X86188972Y-82823262D01*
X84953334Y-82865263D01*
X84008699Y-82952862D01*
X83300860Y-83100774D01*
X82775612Y-83323711D01*
X82378748Y-83636388D01*
X82056062Y-84053517D01*
X81753348Y-84589813D01*
X81416400Y-85259988D01*
X81126708Y-85825061D01*
X80503335Y-86900845D01*
X79790576Y-87971358D01*
X79134716Y-88818053D01*
X79088171Y-88870594D01*
X78039341Y-90038066D01*
X79723171Y-92528380D01*
X80456061Y-93591510D01*
X80969418Y-94275082D01*
X81311843Y-94631009D01*
X81531937Y-94711206D01*
X81661000Y-94598295D01*
X82641710Y-93214021D01*
X83768934Y-92120506D01*
X85115787Y-91279880D01*
X86755385Y-90654271D01*
X88760841Y-90205808D01*
X90626198Y-89954610D01*
X92456000Y-89759096D01*
X92454764Y-90409048D01*
X92430716Y-90744113D01*
X92287522Y-90938448D01*
X91916213Y-91030720D01*
X91207823Y-91059596D01*
X90613264Y-91062507D01*
X88588643Y-91234688D01*
X86727895Y-91718404D01*
X85108695Y-92476316D01*
X83808719Y-93471084D01*
X82905640Y-94665369D01*
X82837088Y-94800650D01*
X82509931Y-95616136D01*
X82317505Y-96365798D01*
X82296000Y-96600193D01*
X82296000Y-97282000D01*
X93853000Y-97282000D01*
X96580223Y-97281030D01*
X98842591Y-97277016D01*
X100683250Y-97268296D01*
X102145342Y-97253211D01*
X103272013Y-97230099D01*
X104106406Y-97197302D01*
X104691666Y-97153159D01*
X105070936Y-97096009D01*
X105287361Y-97024193D01*
X105384084Y-96936050D01*
X105404422Y-96837500D01*
X105186192Y-95910896D01*
X104613936Y-94859343D01*
X103780237Y-93799967D01*
X102777680Y-92849896D01*
X101698852Y-92126258D01*
X101667410Y-92109859D01*
X100568755Y-91672027D01*
X99149834Y-91292649D01*
X97598117Y-91013858D01*
X96203847Y-90881948D01*
X95288157Y-90824609D01*
X94770492Y-90730719D01*
X94540879Y-90562325D01*
X94489347Y-90290248D01*
X94519639Y-90040942D01*
X94679268Y-89900702D01*
X95068936Y-89852733D01*
X95789344Y-89880235D01*
X96593701Y-89939230D01*
X99150536Y-90303703D01*
X101374148Y-90964962D01*
X103237076Y-91907929D01*
X104711855Y-93117529D01*
X105771022Y-94578685D01*
X106026267Y-95117341D01*
X106293198Y-95691095D01*
X106488350Y-95996616D01*
X106516213Y-96012000D01*
X106726772Y-95817716D01*
X107123905Y-95315611D01*
X107622023Y-94626805D01*
X108135535Y-93872418D01*
X108578851Y-93173571D01*
X108810118Y-92765852D01*
X109055159Y-92220649D01*
X109036132Y-91907141D01*
X108805602Y-91666282D01*
X108266933Y-91078877D01*
X107583986Y-90122281D01*
X106816179Y-88892676D01*
X106022928Y-87486244D01*
X105263650Y-85999168D01*
X105123925Y-85706529D01*
X104570264Y-84558397D01*
X104154079Y-83786235D01*
X103809578Y-83300457D01*
X103470966Y-83011474D01*
X103072449Y-82829699D01*
X102990789Y-82801950D01*
X102280152Y-82645282D01*
X102280152Y-79478339D01*
X105156000Y-79523692D01*
X105156000Y-73638307D01*
X100441603Y-73712653D01*
X95727205Y-73787000D01*
X95896717Y-72517000D01*
X96001757Y-71733499D01*
X96080213Y-71154530D01*
X96102615Y-70993000D01*
X95877946Y-70874960D01*
X95205539Y-70790423D01*
X94144899Y-70745134D01*
X93472000Y-70739000D01*
X92257484Y-70750349D01*
X91469065Y-70792230D01*
X91025188Y-70876393D01*
X90844297Y-71014587D01*
X90827474Y-71120000D01*
X90873981Y-71595865D01*
X90964092Y-72338371D01*
X91004427Y-72644000D01*
X91158906Y-73787000D01*
X86288283Y-73734859D01*
X81417659Y-73682719D01*
X81114616Y-72083859D01*
X80651316Y-70145297D01*
X79996342Y-68371511D01*
X79247190Y-66845365D01*
X78602455Y-65795258D01*
X77746420Y-64609601D01*
X76796904Y-63434662D01*
X75871728Y-62416709D01*
X75130105Y-61734124D01*
X74442792Y-61193483D01*
X74442792Y-60872505D01*
X74688423Y-60461241D01*
X75532262Y-59095578D01*
X76294634Y-57911928D01*
X76683053Y-57340500D01*
X77204972Y-56560838D01*
X77434057Y-56106881D01*
X77398007Y-55910220D01*
X77271600Y-55886992D01*
X77271600Y-55626000D01*
X79208074Y-55626000D01*
X79208074Y-55915734D01*
X78968827Y-55927022D01*
X78476088Y-55976083D01*
X78096020Y-56091026D01*
X77746160Y-56347250D01*
X77344041Y-56820152D01*
X76807199Y-57585127D01*
X76263500Y-58400483D01*
X75630211Y-59370317D01*
X75116929Y-60184956D01*
X74780536Y-60752195D01*
X74676000Y-60973836D01*
X74859998Y-61224519D01*
X75322196Y-61640540D01*
X75545296Y-61816750D01*
X76414592Y-62479794D01*
X78431402Y-59455926D01*
X79165760Y-58317194D01*
X79746093Y-57342657D01*
X80130224Y-56608498D01*
X80275978Y-56190899D01*
X80267432Y-56139552D01*
X79906351Y-55967127D01*
X79208074Y-55915734D01*
X79208074Y-55626000D01*
X104704536Y-55626000D01*
X104704536Y-55880000D01*
X93119268Y-55880000D01*
X90394741Y-55880417D01*
X88134791Y-55882963D01*
X86295994Y-55889581D01*
X84834927Y-55902212D01*
X83708167Y-55922798D01*
X82872290Y-55953281D01*
X82283873Y-55995603D01*
X81899493Y-56051706D01*
X81675727Y-56123532D01*
X81569151Y-56213024D01*
X81536342Y-56322122D01*
X81534000Y-56398118D01*
X81741688Y-57288754D01*
X82305960Y-58308662D01*
X83138634Y-59341666D01*
X84151526Y-60271590D01*
X84836000Y-60748266D01*
X86317536Y-61425756D01*
X88119588Y-61882165D01*
X90089182Y-62080456D01*
X90358849Y-62085425D01*
X91385109Y-62100236D01*
X92005586Y-62145073D01*
X92322491Y-62252354D01*
X92438033Y-62454496D01*
X92454349Y-62750023D01*
X92456000Y-63397046D01*
X90517924Y-63211922D01*
X87868332Y-62805976D01*
X85588112Y-62135627D01*
X83697971Y-61211903D01*
X82218615Y-60045828D01*
X81170748Y-58648429D01*
X80903715Y-58092260D01*
X80601808Y-57532114D01*
X80323972Y-57277906D01*
X80248274Y-57286719D01*
X80031915Y-57530774D01*
X79625892Y-58066985D01*
X79115372Y-58774103D01*
X78585525Y-59530880D01*
X78121518Y-60216068D01*
X77808521Y-60708419D01*
X77724000Y-60880337D01*
X77866077Y-61092086D01*
X78244742Y-61610674D01*
X78788649Y-62338910D01*
X79009227Y-62631116D01*
X79653211Y-63573040D01*
X80399022Y-64804970D01*
X81144400Y-66151709D01*
X81667913Y-67186202D01*
X82223192Y-68291264D01*
X82736415Y-69222429D01*
X83152476Y-69885531D01*
X83416269Y-70186406D01*
X83426326Y-70190989D01*
X83802303Y-70238385D01*
X84613569Y-70276622D01*
X85792306Y-70306027D01*
X87270693Y-70326922D01*
X88980912Y-70339634D01*
X90855144Y-70344486D01*
X92825568Y-70341803D01*
X94824367Y-70331911D01*
X96783721Y-70315133D01*
X98635811Y-70291795D01*
X100312817Y-70262220D01*
X101746920Y-70226735D01*
X102870301Y-70185662D01*
X103615142Y-70139328D01*
X103906664Y-70092941D01*
X104237281Y-69759865D01*
X104701052Y-69097486D01*
X105210374Y-68234030D01*
X105332145Y-68006379D01*
X105995464Y-66839930D01*
X106789497Y-65584981D01*
X107503881Y-64566048D01*
X108071287Y-63798353D01*
X108495676Y-63194078D01*
X108702843Y-62859784D01*
X108712000Y-62831176D01*
X108576993Y-62579974D01*
X108211152Y-62002209D01*
X107673246Y-61188687D01*
X107136409Y-60396830D01*
X106445561Y-59395919D01*
X105977815Y-58760283D01*
X105670837Y-58434971D01*
X105462298Y-58365028D01*
X105289865Y-58495502D01*
X105167909Y-58661337D01*
X104306320Y-59803244D01*
X103435650Y-60712442D01*
X102473406Y-61429612D01*
X101337093Y-61995438D01*
X99944219Y-62450601D01*
X98212291Y-62835784D01*
X96058816Y-63191669D01*
X95948500Y-63207967D01*
X95130484Y-63319142D01*
X94694862Y-63319423D01*
X94521480Y-63172138D01*
X94490184Y-62840616D01*
X94490352Y-62762939D01*
X94516483Y-62418525D01*
X94665472Y-62217689D01*
X95047813Y-62117090D01*
X95774001Y-62073389D01*
X96283124Y-62059753D01*
X98213993Y-61864774D01*
X100032211Y-61402275D01*
X101603289Y-60715161D01*
X102565033Y-60055699D01*
X103558347Y-59059936D01*
X104177196Y-58035631D01*
X104527493Y-56823723D01*
X104704536Y-55880000D01*
X104704536Y-55626000D01*
X106150784Y-55626000D01*
X106150784Y-55887861D01*
X105726957Y-56189789D01*
X105591929Y-56578500D01*
X105501191Y-57152466D01*
X105448058Y-57452066D01*
X105570238Y-57721655D01*
X105929577Y-58299934D01*
X106461922Y-59086602D01*
X106792814Y-59554486D01*
X107551525Y-60639437D01*
X108326061Y-61791832D01*
X108974568Y-62799636D01*
X109097204Y-62998920D01*
X109579678Y-63751404D01*
X109976098Y-64294223D01*
X110204312Y-64515392D01*
X110210115Y-64516000D01*
X110497040Y-64348033D01*
X110943865Y-63937759D01*
X110999837Y-63879045D01*
X111367307Y-63451433D01*
X111462948Y-63109035D01*
X111307205Y-62633261D01*
X111148315Y-62291545D01*
X110772650Y-61592590D01*
X110197315Y-60629647D01*
X109505168Y-59530385D01*
X108779071Y-58422474D01*
X108101882Y-57433581D01*
X107556460Y-56691375D01*
X107358002Y-56451500D01*
X106732571Y-55972358D01*
X106150784Y-55887861D01*
X106150784Y-55626000D01*
X128270000Y-55626000D01*
X128270000Y-55880000D01*
X107099449Y-55880000D01*
X107612002Y-56451500D01*
X107970398Y-56907978D01*
X108514472Y-57667460D01*
X109156095Y-58605052D01*
X109538697Y-59182000D01*
X110176301Y-60214919D01*
X110946491Y-61553942D01*
X111707798Y-62943364D01*
X111707798Y-63709365D01*
X111406271Y-63784804D01*
X110997672Y-64132671D01*
X110690890Y-64429480D01*
X108991775Y-66357079D01*
X107521261Y-68592692D01*
X106376164Y-70973092D01*
X105818483Y-72644000D01*
X105594970Y-73877601D01*
X105467617Y-75446128D01*
X105436539Y-77185668D01*
X105501850Y-78932312D01*
X105663664Y-80522145D01*
X105812427Y-81356859D01*
X106662866Y-84079824D01*
X107970811Y-86690212D01*
X109686151Y-89095213D01*
X110438932Y-89939509D01*
X110438932Y-90684832D01*
X110236261Y-90886194D01*
X109868563Y-91423079D01*
X109411717Y-92183764D01*
X109365371Y-92265500D01*
X108728162Y-93315849D01*
X107996064Y-94408299D01*
X107468491Y-95123000D01*
X106787335Y-96051073D01*
X106475656Y-96678191D01*
X106538273Y-97057078D01*
X106980008Y-97240458D01*
X107665854Y-97282000D01*
X108199412Y-97269701D01*
X108624134Y-97191418D01*
X109005501Y-96985067D01*
X109408992Y-96588564D01*
X109900089Y-95939826D01*
X110544272Y-94976770D01*
X111246980Y-93886669D01*
X112366541Y-92142338D01*
X111491771Y-91417001D01*
X110925871Y-90976673D01*
X110522773Y-90715291D01*
X110438932Y-90684832D01*
X110438932Y-89939509D01*
X110457923Y-89960809D01*
X112464704Y-92075000D01*
X113185328Y-90606216D01*
X113602689Y-89642469D01*
X113727583Y-89032689D01*
X113658476Y-88801928D01*
X113376887Y-88428144D01*
X112900411Y-87802834D01*
X112455987Y-87222712D01*
X110987465Y-84923725D01*
X109953851Y-82406750D01*
X109345953Y-79642859D01*
X109154654Y-76835000D01*
X109180704Y-75392556D01*
X109292121Y-74266569D01*
X109513676Y-73269120D01*
X109703317Y-72672811D01*
X110406420Y-71023563D01*
X111315805Y-69451803D01*
X112322412Y-68136247D01*
X112720250Y-67728907D01*
X113492223Y-67004815D01*
X112810673Y-65569907D01*
X112325928Y-64556686D01*
X111986327Y-63951582D01*
X111707798Y-63709365D01*
X111707798Y-62943364D01*
X111764140Y-63046191D01*
X112544118Y-64538788D01*
X112756405Y-64960500D01*
X114559970Y-68580000D01*
X115144478Y-68580000D01*
X115144478Y-70510308D01*
X114911993Y-70631094D01*
X114324164Y-71270354D01*
X113674545Y-72206836D01*
X113076701Y-73260992D01*
X112674052Y-74169368D01*
X112433307Y-75259180D01*
X112346400Y-76666450D01*
X112405955Y-78226894D01*
X112604601Y-79776227D01*
X112934962Y-81150166D01*
X112995504Y-81331211D01*
X113535038Y-82661002D01*
X114172941Y-83905311D01*
X114827827Y-84918535D01*
X115302717Y-85458978D01*
X115546392Y-85648206D01*
X115752386Y-85656015D01*
X115985791Y-85414222D01*
X116311698Y-84854645D01*
X116795199Y-83909102D01*
X116809511Y-83880640D01*
X117826125Y-81858696D01*
X116968946Y-81027885D01*
X115963045Y-79776091D01*
X115350642Y-78403848D01*
X115145009Y-77001762D01*
X115359418Y-75660442D01*
X116007141Y-74470496D01*
X116008236Y-74469130D01*
X116759183Y-73533000D01*
X116036019Y-71915704D01*
X115641851Y-71075382D01*
X115366783Y-70632189D01*
X115144478Y-70510308D01*
X115144478Y-68580000D01*
X115373223Y-68580000D01*
X115373223Y-69458198D01*
X115303178Y-69476924D01*
X115316760Y-69742359D01*
X115527229Y-70336917D01*
X115891198Y-71142139D01*
X115974706Y-71310327D01*
X116399219Y-72161480D01*
X116727895Y-72836019D01*
X116898415Y-73205748D01*
X116906683Y-73227532D01*
X117154078Y-73252019D01*
X117710093Y-73090737D01*
X118114011Y-72927309D01*
X118900838Y-72629167D01*
X119983191Y-72282052D01*
X121161086Y-71948945D01*
X121484411Y-71865854D01*
X122452607Y-71612195D01*
X123188272Y-71397861D01*
X123587117Y-71254348D01*
X123627344Y-71218676D01*
X123271273Y-71053791D01*
X122529252Y-70829817D01*
X121506575Y-70568787D01*
X120308536Y-70292731D01*
X119040430Y-70023683D01*
X117807551Y-69783674D01*
X116715194Y-69594735D01*
X115868653Y-69478899D01*
X115373223Y-69458198D01*
X115373223Y-68580000D01*
X115613749Y-68580000D01*
X116238808Y-68637868D01*
X117236220Y-68796843D01*
X118485469Y-69034977D01*
X119866038Y-69330324D01*
X120373265Y-69446728D01*
X121893000Y-69779127D01*
X123443390Y-70078640D01*
X124258222Y-70215164D01*
X124258222Y-71676024D01*
X123592540Y-71712254D01*
X122588186Y-71886114D01*
X121383920Y-72161672D01*
X120118499Y-72502994D01*
X118930682Y-72874146D01*
X117959228Y-73239196D01*
X117626929Y-73393282D01*
X116437239Y-74246432D01*
X115676602Y-75343682D01*
X115361822Y-76632288D01*
X115509702Y-78059508D01*
X115842519Y-78994000D01*
X116220219Y-79645785D01*
X116793665Y-80428378D01*
X117469582Y-81237619D01*
X118154696Y-81969344D01*
X118755734Y-82519391D01*
X119179421Y-82783598D01*
X119244324Y-82792903D01*
X119569002Y-82692337D01*
X120256223Y-82427082D01*
X121203947Y-82037934D01*
X122266468Y-81584643D01*
X125025936Y-80387480D01*
X125531826Y-79031327D01*
X126008234Y-78026503D01*
X126594218Y-77373232D01*
X126898740Y-77167157D01*
X127759764Y-76659141D01*
X126881589Y-75633191D01*
X126285675Y-74775082D01*
X125744529Y-73730204D01*
X125529646Y-73181120D01*
X125235115Y-72372660D01*
X124968873Y-71931929D01*
X124627174Y-71736113D01*
X124258222Y-71676024D01*
X124258222Y-70215164D01*
X124861892Y-70316309D01*
X125985961Y-70463179D01*
X126174500Y-70480184D01*
X128270000Y-70646911D01*
X128270000Y-71374000D01*
X126915334Y-71374000D01*
X126129712Y-71399707D01*
X125572212Y-71465682D01*
X125412349Y-71522318D01*
X125397544Y-71845106D01*
X125555623Y-72482618D01*
X125835080Y-73293823D01*
X126184413Y-74137688D01*
X126552115Y-74873181D01*
X126753363Y-75194340D01*
X127254068Y-75781256D01*
X127747132Y-76191088D01*
X127779664Y-76209453D01*
X128001692Y-76301151D01*
X128144095Y-76234902D01*
X128157519Y-76183748D01*
X128157519Y-76708000D01*
X127636295Y-76895032D01*
X126986862Y-77364278D01*
X126366801Y-77977963D01*
X125933688Y-78598312D01*
X125892529Y-78688348D01*
X125573909Y-79579326D01*
X125495998Y-80118187D01*
X125619414Y-80264000D01*
X125914746Y-80171411D01*
X126519675Y-79933570D01*
X127016414Y-79724721D01*
X128180311Y-79224026D01*
X128180311Y-79603460D01*
X127843818Y-79632939D01*
X127825500Y-79640779D01*
X127339483Y-79833203D01*
X126580252Y-80115100D01*
X126067656Y-80299196D01*
X125283830Y-80592406D01*
X124236019Y-81005519D01*
X123037435Y-81491444D01*
X121801287Y-82003089D01*
X120640786Y-82493361D01*
X119669144Y-82915169D01*
X118999570Y-83221422D01*
X118811947Y-83317337D01*
X118334876Y-83538111D01*
X118174131Y-83521586D01*
X118399811Y-83284390D01*
X118465390Y-83235136D01*
X118775718Y-82949215D01*
X118664229Y-82701153D01*
X118486451Y-82546223D01*
X118118657Y-82333026D01*
X117822739Y-82515283D01*
X117689351Y-82686587D01*
X117442326Y-83233033D01*
X117428662Y-83589744D01*
X117323121Y-84031147D01*
X117059825Y-84290396D01*
X116676422Y-84694117D01*
X116586000Y-84982943D01*
X116691812Y-85127179D01*
X117051931Y-85053847D01*
X117730387Y-84741649D01*
X118427500Y-84370404D01*
X119249990Y-83953473D01*
X120346322Y-83445413D01*
X121623635Y-82884093D01*
X122989068Y-82307384D01*
X124349758Y-81753156D01*
X125612845Y-81259279D01*
X126685466Y-80863625D01*
X127474761Y-80604063D01*
X127873928Y-80518000D01*
X128004909Y-80431885D01*
X128004909Y-81534000D01*
X127564908Y-81631775D01*
X126763572Y-81898075D01*
X125702550Y-82292362D01*
X124483494Y-82774098D01*
X123208054Y-83302744D01*
X121977881Y-83837763D01*
X120894625Y-84338617D01*
X120558396Y-84503655D01*
X119314193Y-85160286D01*
X117989388Y-85912409D01*
X116819259Y-86625141D01*
X116534007Y-86810815D01*
X115597884Y-87467685D01*
X114949563Y-88048389D01*
X114438375Y-88722751D01*
X113913651Y-89660597D01*
X113788279Y-89905650D01*
X113228805Y-90942099D01*
X112493991Y-92211927D01*
X111693892Y-93528256D01*
X111164506Y-94361000D01*
X110518997Y-95369800D01*
X109988243Y-96230045D01*
X109627805Y-96849530D01*
X109493338Y-97134425D01*
X109652888Y-97070004D01*
X110098949Y-96711448D01*
X110756870Y-96121868D01*
X111315500Y-95593939D01*
X112303775Y-94666515D01*
X113201968Y-93894472D01*
X114106896Y-93213717D01*
X115115374Y-92560158D01*
X116324221Y-91869702D01*
X117830251Y-91078256D01*
X119126000Y-90423397D01*
X121089475Y-89423205D01*
X122668997Y-88573796D01*
X123946615Y-87823703D01*
X125004378Y-87121458D01*
X125924336Y-86415593D01*
X126788538Y-85654640D01*
X126909675Y-85540849D01*
X127611336Y-84857120D01*
X128017736Y-84358745D01*
X128209338Y-83889176D01*
X128266601Y-83291865D01*
X128270000Y-82894155D01*
X128270000Y-86097429D01*
X126682500Y-87338904D01*
X125756086Y-88024737D01*
X124820507Y-88654762D01*
X124070294Y-89098344D01*
X124037426Y-89115166D01*
X123401368Y-89459074D01*
X123130568Y-89741125D01*
X123134800Y-90124394D01*
X123251615Y-90535437D01*
X123484105Y-91071940D01*
X123717501Y-91285078D01*
X123763031Y-91272809D01*
X123837244Y-91347496D01*
X123680783Y-91726171D01*
X123479210Y-92064271D01*
X123345587Y-92096925D01*
X123232734Y-91760188D01*
X123093474Y-90990113D01*
X123080570Y-90912628D01*
X122886707Y-90166239D01*
X122620144Y-89582433D01*
X122599763Y-89553261D01*
X122443252Y-89394389D01*
X122220352Y-89338779D01*
X121857362Y-89411209D01*
X121280580Y-89636458D01*
X120416305Y-90039306D01*
X119190836Y-90644532D01*
X118856494Y-90811782D01*
X116863159Y-91837734D01*
X115314832Y-92695565D01*
X114218228Y-93381027D01*
X113580063Y-93889873D01*
X113407054Y-94217855D01*
X113420764Y-94249798D01*
X113741758Y-94391821D01*
X114386615Y-94479147D01*
X114514634Y-94483521D01*
X114514634Y-94996000D01*
X114310001Y-95167363D01*
X114398677Y-95581687D01*
X114720367Y-96055499D01*
X115191321Y-96451872D01*
X115496337Y-96463441D01*
X115570000Y-96222500D01*
X115405751Y-95810818D01*
X115034614Y-95342659D01*
X114639010Y-95030021D01*
X114514634Y-94996000D01*
X114514634Y-94483521D01*
X114759491Y-94491889D01*
X115399628Y-94529931D01*
X115676173Y-94624681D01*
X115636544Y-94695498D01*
X115454539Y-94951001D01*
X115529967Y-95427652D01*
X115625071Y-95697915D01*
X115782637Y-96289747D01*
X115762640Y-96662138D01*
X115748645Y-96680022D01*
X115383247Y-96732160D01*
X114872127Y-96456475D01*
X114347062Y-95950656D01*
X113958793Y-95353176D01*
X113551934Y-94732305D01*
X113085267Y-94529161D01*
X112507106Y-94753111D01*
X111765765Y-95413522D01*
X111398698Y-95817137D01*
X110822170Y-96485184D01*
X110406187Y-96984349D01*
X110236485Y-97211617D01*
X110236000Y-97214137D01*
X110480488Y-97229815D01*
X111175901Y-97244214D01*
X112265165Y-97256904D01*
X113691207Y-97267457D01*
X115396953Y-97275441D01*
X117325329Y-97280428D01*
X119253000Y-97282000D01*
X128270000Y-97282000D01*
X128270000Y-92697378D01*
X128266664Y-91068890D01*
X128252486Y-89884304D01*
X128221211Y-89079542D01*
X128166584Y-88590526D01*
X128082350Y-88353178D01*
X127962255Y-88303421D01*
X127845661Y-88350230D01*
X127455865Y-88731075D01*
X127060194Y-89350833D01*
X127014944Y-89442351D01*
X126661813Y-90024826D01*
X126219100Y-90260781D01*
X125700695Y-90297000D01*
X124950638Y-90401588D01*
X124359553Y-90655599D01*
X124330827Y-90678000D01*
X124015927Y-90915252D01*
X124017538Y-90791870D01*
X124174128Y-90486051D01*
X124448970Y-90119399D01*
X124852635Y-90007351D01*
X125469803Y-90071470D01*
X126123040Y-90140884D01*
X126482247Y-89997400D01*
X126751093Y-89529893D01*
X126838337Y-89324783D01*
X127225393Y-88637153D01*
X127679905Y-88134787D01*
X127743247Y-88090765D01*
X128175933Y-87553389D01*
X128270000Y-86929616D01*
X128270000Y-86097429D01*
X128270000Y-82894155D01*
X128224816Y-82114211D01*
X128106139Y-81629411D01*
X128004909Y-81534000D01*
X128004909Y-80431885D01*
X128199734Y-80303794D01*
X128270000Y-79982824D01*
X128180311Y-79603460D01*
X128180311Y-79224026D01*
X128270000Y-79185442D01*
X128270000Y-77946721D01*
X128249271Y-77232327D01*
X128196400Y-76784739D01*
X128157519Y-76708000D01*
X128157519Y-76183748D01*
X128224497Y-75928519D01*
X128260522Y-75299817D01*
X128269796Y-74266608D01*
X128270000Y-73922936D01*
X128270000Y-71374000D01*
X128270000Y-70646911D01*
X128270000Y-55880000D01*
X128270000Y-55626000D01*
X128524000Y-55626000D01*
X128524000Y-97536000D01*
X58420000Y-97536000D01*
G36*
X138116203Y-105330749D02*
G01*
X137097841Y-106775219D01*
X135741172Y-107856101D01*
X134804987Y-108323141D01*
X134639322Y-108374653D01*
X134385032Y-108421476D01*
X134018970Y-108463828D01*
X133517988Y-108501923D01*
X132858940Y-108535978D01*
X132018677Y-108566209D01*
X130974051Y-108592833D01*
X129701917Y-108616064D01*
X128179125Y-108636120D01*
X126382530Y-108653216D01*
X124288982Y-108667569D01*
X121875336Y-108679394D01*
X119118442Y-108688908D01*
X115995155Y-108696326D01*
X112482326Y-108701866D01*
X108556809Y-108705742D01*
X104195455Y-108708171D01*
X99375117Y-108709370D01*
X94072648Y-108709553D01*
X93416659Y-108709518D01*
X52959000Y-108707037D01*
X51671001Y-108107284D01*
X50751725Y-107561429D01*
X49887611Y-106860324D01*
X49568205Y-106522265D01*
X49325564Y-106233325D01*
X49109399Y-105966897D01*
X48918197Y-105693498D01*
X48750444Y-105383643D01*
X48604623Y-105007848D01*
X48479221Y-104536629D01*
X48372723Y-103940500D01*
X48283614Y-103189978D01*
X48210380Y-102255577D01*
X48151505Y-101107814D01*
X48105475Y-99717205D01*
X48070776Y-98054263D01*
X48045892Y-96089506D01*
X48029310Y-93793449D01*
X48019513Y-91136607D01*
X48014988Y-88089495D01*
X48014220Y-84622630D01*
X48015694Y-80706527D01*
X48017881Y-76344398D01*
X48020058Y-72076084D01*
X48022922Y-68285807D01*
X48027009Y-64943606D01*
X48032852Y-62019520D01*
X48040988Y-59483585D01*
X48051950Y-57305840D01*
X48066273Y-55456324D01*
X48084493Y-53905073D01*
X48107143Y-52622127D01*
X48134758Y-51577522D01*
X48167874Y-50741298D01*
X48207025Y-50083492D01*
X48252745Y-49574142D01*
X48305569Y-49183286D01*
X48366033Y-48880962D01*
X48434671Y-48637208D01*
X48512017Y-48422062D01*
X48516409Y-48410785D01*
X49303678Y-46940618D01*
X50414581Y-45813900D01*
X51689000Y-45055355D01*
X52959000Y-44454962D01*
X78272253Y-44453410D01*
X78272253Y-44733261D01*
X73906956Y-44733837D01*
X69997627Y-44738116D01*
X66531260Y-44746163D01*
X63494850Y-44758043D01*
X60875392Y-44773821D01*
X58659881Y-44793561D01*
X56835311Y-44817328D01*
X55388677Y-44845186D01*
X54306975Y-44877200D01*
X53577198Y-44913436D01*
X53186342Y-44953957D01*
X53169703Y-44957304D01*
X51960957Y-45379258D01*
X50819504Y-46155252D01*
X50656757Y-46295362D01*
X50325796Y-46573034D01*
X50030787Y-46809977D01*
X49769669Y-47035337D01*
X49540380Y-47278258D01*
X49340862Y-47567885D01*
X49169052Y-47933361D01*
X49022892Y-48403832D01*
X48900320Y-49008443D01*
X48799276Y-49776336D01*
X48717700Y-50736658D01*
X48653531Y-51918552D01*
X48604709Y-53351163D01*
X48569174Y-55063635D01*
X48544864Y-57085114D01*
X48529720Y-59444742D01*
X48521681Y-62171665D01*
X48518687Y-65295028D01*
X48518678Y-68843974D01*
X48519592Y-72847649D01*
X48519579Y-76525658D01*
X48519321Y-80875717D01*
X48520704Y-84746430D01*
X48524123Y-88166449D01*
X48529976Y-91164426D01*
X48538658Y-93769015D01*
X48550566Y-96008866D01*
X48566097Y-97912634D01*
X48585646Y-99508969D01*
X48609611Y-100826524D01*
X48638387Y-101893952D01*
X48672371Y-102739905D01*
X48711960Y-103393034D01*
X48757549Y-103881994D01*
X48809536Y-104235435D01*
X48868316Y-104482011D01*
X48907874Y-104592658D01*
X49640407Y-105812501D01*
X50725827Y-106940807D01*
X51943000Y-107781757D01*
X52959000Y-108331000D01*
X133985000Y-108331000D01*
X135037209Y-107768260D01*
X136156096Y-106976927D01*
X137157351Y-105922563D01*
X137897092Y-104772009D01*
X138135219Y-104175955D01*
X138184580Y-103757112D01*
X138229747Y-102871691D01*
X138270720Y-101561096D01*
X138307498Y-99866731D01*
X138340082Y-97830002D01*
X138368472Y-95492312D01*
X138392668Y-92895066D01*
X138412669Y-90079668D01*
X138428477Y-87087523D01*
X138440090Y-83960036D01*
X138447509Y-80738610D01*
X138450733Y-77464650D01*
X138449763Y-74179561D01*
X138444599Y-70924747D01*
X138435241Y-67741613D01*
X138421689Y-64671562D01*
X138403942Y-61756000D01*
X138382001Y-59036330D01*
X138355866Y-56553958D01*
X138325537Y-54350288D01*
X138291013Y-52466723D01*
X138252295Y-50944669D01*
X138209383Y-49825530D01*
X138162276Y-49150711D01*
X138135219Y-48986044D01*
X137594053Y-47852459D01*
X136714539Y-46725973D01*
X135640563Y-45773426D01*
X135037209Y-45393739D01*
X133985000Y-44831000D01*
X94234000Y-44753109D01*
X88422770Y-44742962D01*
X83106523Y-44736325D01*
X78272253Y-44733261D01*
X78272253Y-44453410D01*
X93416659Y-44452481D01*
X98777318Y-44452559D01*
X103653124Y-44453627D01*
X108067227Y-44455901D01*
X112042772Y-44459596D01*
X115602908Y-44464929D01*
X118770781Y-44472115D01*
X121569540Y-44481371D01*
X124022331Y-44492914D01*
X126152302Y-44506958D01*
X127982601Y-44523720D01*
X129536375Y-44543417D01*
X130836771Y-44566264D01*
X131906937Y-44592477D01*
X132770021Y-44622273D01*
X133449169Y-44655868D01*
X133967529Y-44693477D01*
X134348249Y-44735317D01*
X134614476Y-44781604D01*
X134789357Y-44832553D01*
X134804987Y-44838858D01*
X136374202Y-45732818D01*
X137578321Y-46966154D01*
X138116203Y-47831250D01*
X138811000Y-49149000D01*
X138811000Y-104013000D01*
X138116203Y-105330749D01*
X138116203Y-105330749D01*
G37*
X138116203Y-105330749D02*
X137097841Y-106775219D01*
X135741172Y-107856101D01*
X134804987Y-108323141D01*
X134639322Y-108374653D01*
X134385032Y-108421476D01*
X134018970Y-108463828D01*
X133517988Y-108501923D01*
X132858940Y-108535978D01*
X132018677Y-108566209D01*
X130974051Y-108592833D01*
X129701917Y-108616064D01*
X128179125Y-108636120D01*
X126382530Y-108653216D01*
X124288982Y-108667569D01*
X121875336Y-108679394D01*
X119118442Y-108688908D01*
X115995155Y-108696326D01*
X112482326Y-108701866D01*
X108556809Y-108705742D01*
X104195455Y-108708171D01*
X99375117Y-108709370D01*
X94072648Y-108709553D01*
X93416659Y-108709518D01*
X52959000Y-108707037D01*
X51671001Y-108107284D01*
X50751725Y-107561429D01*
X49887611Y-106860324D01*
X49568205Y-106522265D01*
X49325564Y-106233325D01*
X49109399Y-105966897D01*
X48918197Y-105693498D01*
X48750444Y-105383643D01*
X48604623Y-105007848D01*
X48479221Y-104536629D01*
X48372723Y-103940500D01*
X48283614Y-103189978D01*
X48210380Y-102255577D01*
X48151505Y-101107814D01*
X48105475Y-99717205D01*
X48070776Y-98054263D01*
X48045892Y-96089506D01*
X48029310Y-93793449D01*
X48019513Y-91136607D01*
X48014988Y-88089495D01*
X48014220Y-84622630D01*
X48015694Y-80706527D01*
X48017881Y-76344398D01*
X48020058Y-72076084D01*
X48022922Y-68285807D01*
X48027009Y-64943606D01*
X48032852Y-62019520D01*
X48040988Y-59483585D01*
X48051950Y-57305840D01*
X48066273Y-55456324D01*
X48084493Y-53905073D01*
X48107143Y-52622127D01*
X48134758Y-51577522D01*
X48167874Y-50741298D01*
X48207025Y-50083492D01*
X48252745Y-49574142D01*
X48305569Y-49183286D01*
X48366033Y-48880962D01*
X48434671Y-48637208D01*
X48512017Y-48422062D01*
X48516409Y-48410785D01*
X49303678Y-46940618D01*
X50414581Y-45813900D01*
X51689000Y-45055355D01*
X52959000Y-44454962D01*
X78272253Y-44453410D01*
X78272253Y-44733261D01*
X73906956Y-44733837D01*
X69997627Y-44738116D01*
X66531260Y-44746163D01*
X63494850Y-44758043D01*
X60875392Y-44773821D01*
X58659881Y-44793561D01*
X56835311Y-44817328D01*
X55388677Y-44845186D01*
X54306975Y-44877200D01*
X53577198Y-44913436D01*
X53186342Y-44953957D01*
X53169703Y-44957304D01*
X51960957Y-45379258D01*
X50819504Y-46155252D01*
X50656757Y-46295362D01*
X50325796Y-46573034D01*
X50030787Y-46809977D01*
X49769669Y-47035337D01*
X49540380Y-47278258D01*
X49340862Y-47567885D01*
X49169052Y-47933361D01*
X49022892Y-48403832D01*
X48900320Y-49008443D01*
X48799276Y-49776336D01*
X48717700Y-50736658D01*
X48653531Y-51918552D01*
X48604709Y-53351163D01*
X48569174Y-55063635D01*
X48544864Y-57085114D01*
X48529720Y-59444742D01*
X48521681Y-62171665D01*
X48518687Y-65295028D01*
X48518678Y-68843974D01*
X48519592Y-72847649D01*
X48519579Y-76525658D01*
X48519321Y-80875717D01*
X48520704Y-84746430D01*
X48524123Y-88166449D01*
X48529976Y-91164426D01*
X48538658Y-93769015D01*
X48550566Y-96008866D01*
X48566097Y-97912634D01*
X48585646Y-99508969D01*
X48609611Y-100826524D01*
X48638387Y-101893952D01*
X48672371Y-102739905D01*
X48711960Y-103393034D01*
X48757549Y-103881994D01*
X48809536Y-104235435D01*
X48868316Y-104482011D01*
X48907874Y-104592658D01*
X49640407Y-105812501D01*
X50725827Y-106940807D01*
X51943000Y-107781757D01*
X52959000Y-108331000D01*
X133985000Y-108331000D01*
X135037209Y-107768260D01*
X136156096Y-106976927D01*
X137157351Y-105922563D01*
X137897092Y-104772009D01*
X138135219Y-104175955D01*
X138184580Y-103757112D01*
X138229747Y-102871691D01*
X138270720Y-101561096D01*
X138307498Y-99866731D01*
X138340082Y-97830002D01*
X138368472Y-95492312D01*
X138392668Y-92895066D01*
X138412669Y-90079668D01*
X138428477Y-87087523D01*
X138440090Y-83960036D01*
X138447509Y-80738610D01*
X138450733Y-77464650D01*
X138449763Y-74179561D01*
X138444599Y-70924747D01*
X138435241Y-67741613D01*
X138421689Y-64671562D01*
X138403942Y-61756000D01*
X138382001Y-59036330D01*
X138355866Y-56553958D01*
X138325537Y-54350288D01*
X138291013Y-52466723D01*
X138252295Y-50944669D01*
X138209383Y-49825530D01*
X138162276Y-49150711D01*
X138135219Y-48986044D01*
X137594053Y-47852459D01*
X136714539Y-46725973D01*
X135640563Y-45773426D01*
X135037209Y-45393739D01*
X133985000Y-44831000D01*
X94234000Y-44753109D01*
X88422770Y-44742962D01*
X83106523Y-44736325D01*
X78272253Y-44733261D01*
X78272253Y-44453410D01*
X93416659Y-44452481D01*
X98777318Y-44452559D01*
X103653124Y-44453627D01*
X108067227Y-44455901D01*
X112042772Y-44459596D01*
X115602908Y-44464929D01*
X118770781Y-44472115D01*
X121569540Y-44481371D01*
X124022331Y-44492914D01*
X126152302Y-44506958D01*
X127982601Y-44523720D01*
X129536375Y-44543417D01*
X130836771Y-44566264D01*
X131906937Y-44592477D01*
X132770021Y-44622273D01*
X133449169Y-44655868D01*
X133967529Y-44693477D01*
X134348249Y-44735317D01*
X134614476Y-44781604D01*
X134789357Y-44832553D01*
X134804987Y-44838858D01*
X136374202Y-45732818D01*
X137578321Y-46966154D01*
X138116203Y-47831250D01*
X138811000Y-49149000D01*
X138811000Y-104013000D01*
X138116203Y-105330749D01*
D13*
X136450600Y-32850000D02*
X136450600Y-44915000D01*
X136450600Y-44915000D02*
X126849400Y-44915000D01*
X126849400Y-44915000D02*
X126849400Y-32850000D01*
D14*
X120700000Y-57488000D02*
X123300000Y-57488000D01*
X123300000Y-57488000D02*
X123300000Y-59012000D01*
X123300000Y-59012000D02*
X120700000Y-59012000D01*
X120700000Y-59012000D02*
X120700000Y-57488000D01*
D15*
X58635877Y-94500000D02*
G75*
G03X58635877Y-94500000I-3635877J0D01*
G01*
X134985877Y-94550000D02*
G75*
G03X134985877Y-94550000I-3635877J0D01*
G01*
X134835877Y-56450000D02*
G75*
G03X134835877Y-56450000I-3635877J0D01*
G01*
X55485877Y-37300000D02*
G75*
G03X55485877Y-37300000I-3635877J0D01*
G01*
D16*
X129745000Y-37730428D02*
X129406333Y-37730428D01*
X129237000Y-37803000D01*
X129152333Y-37875571D01*
X128983000Y-38093285D01*
X128898333Y-38383571D01*
X128898333Y-38964142D01*
X128983000Y-39109285D01*
X129067666Y-39181857D01*
X129237000Y-39254428D01*
X129575666Y-39254428D01*
X129745000Y-39181857D01*
X129829666Y-39109285D01*
X129914333Y-38964142D01*
X129914333Y-38601285D01*
X129829666Y-38456142D01*
X129745000Y-38383571D01*
X129575666Y-38311000D01*
X129237000Y-38311000D01*
X129067666Y-38383571D01*
X128983000Y-38456142D01*
X128898333Y-38601285D01*
X130676333Y-39254428D02*
X130676333Y-37730428D01*
X131353666Y-37730428D01*
X131523000Y-37803000D01*
X131607666Y-37875571D01*
X131692333Y-38020714D01*
X131692333Y-38238428D01*
X131607666Y-38383571D01*
X131523000Y-38456142D01*
X131353666Y-38528714D01*
X130676333Y-38528714D01*
X132454333Y-39254428D02*
X132454333Y-37730428D01*
X133301000Y-39254428D02*
X133301000Y-37730428D01*
X134317000Y-39254428D01*
X134317000Y-37730428D01*
M02*
