G04 #@! TF.GenerationSoftware,KiCad,Pcbnew,(5.1.4)-1*
G04 #@! TF.CreationDate,2020-12-29T20:37:27-06:00*
G04 #@! TF.ProjectId,lets_split,6c657473-5f73-4706-9c69-742e6b696361,rev?*
G04 #@! TF.SameCoordinates,Original*
G04 #@! TF.FileFunction,Soldermask,Top*
G04 #@! TF.FilePolarity,Negative*
%FSLAX46Y46*%
G04 Gerber Fmt 4.6, Leading zero omitted, Abs format (unit mm)*
G04 Created by KiCad (PCBNEW (5.1.4)-1) date 2020-12-29 20:37:27*
%MOMM*%
%LPD*%
G04 APERTURE LIST*
%ADD10C,2.051000*%
%ADD11C,2.398980*%
%ADD12R,2.398980X2.398980*%
%ADD13O,2.457400X2.152600*%
%ADD14C,2.152600*%
%ADD15C,1.390600*%
%ADD16C,2.900000*%
%ADD17C,2.900000*%
%ADD18C,4.387810*%
%ADD19C,2.101810*%
%ADD20C,2.400000*%
%ADD21R,1.924000X1.924000*%
%ADD22C,1.924000*%
%ADD23C,1.107000*%
%ADD24C,0.100000*%
%ADD25C,0.753624*%
%ADD26R,0.900000X1.400000*%
%ADD27R,1.400000X1.400000*%
%ADD28C,1.400000*%
%ADD29C,0.900000*%
%ADD30C,8.400000*%
%ADD31R,2.152600X2.152600*%
G04 APERTURE END LIST*
D10*
X101480000Y-56300000D03*
X91320000Y-56300000D03*
D11*
X131247460Y-100340000D03*
D12*
X131247460Y-110500000D03*
D11*
X74097460Y-99240000D03*
D12*
X74097460Y-109400000D03*
D11*
X93147460Y-98940000D03*
D12*
X93147460Y-109100000D03*
D11*
X112147460Y-99040000D03*
D12*
X112147460Y-109200000D03*
D11*
X125410000Y-94497460D03*
D12*
X115250000Y-94497460D03*
D11*
X145760000Y-75347460D03*
D12*
X135600000Y-75347460D03*
D11*
X147160000Y-94497460D03*
D12*
X137000000Y-94497460D03*
D11*
X112297460Y-80240000D03*
D12*
X112297460Y-90400000D03*
D11*
X93247460Y-80240000D03*
D12*
X93247460Y-90400000D03*
D11*
X74047460Y-79790000D03*
D12*
X74047460Y-89950000D03*
D11*
X39890000Y-75402540D03*
D12*
X50050000Y-75402540D03*
D11*
X54997460Y-100090000D03*
D12*
X54997460Y-110250000D03*
D11*
X69860000Y-75447460D03*
D12*
X59700000Y-75447460D03*
D11*
X93047460Y-60990000D03*
D12*
X93047460Y-71150000D03*
D11*
X112247460Y-61140000D03*
D12*
X112247460Y-71300000D03*
D11*
X131250000Y-63000000D03*
D12*
X131297460Y-71550000D03*
D11*
X146060000Y-56247460D03*
D12*
X137500000Y-56250000D03*
D11*
X125000000Y-56250000D03*
D12*
X116750000Y-56297460D03*
D11*
X112197460Y-42090000D03*
D12*
X112197460Y-52250000D03*
D11*
X93247460Y-42090000D03*
D12*
X93247460Y-52250000D03*
D11*
X78390000Y-56352540D03*
D12*
X88550000Y-56352540D03*
D11*
X40790000Y-56352540D03*
D12*
X50950000Y-56352540D03*
D11*
X54997460Y-78590000D03*
D12*
X54997460Y-88750000D03*
D11*
X131247460Y-77840000D03*
D12*
X131247460Y-88000000D03*
D13*
X136298200Y-35745600D03*
D14*
X128043200Y-40749400D03*
X133250200Y-43848200D03*
D13*
X127001800Y-35745600D03*
D14*
X130049800Y-43848200D03*
X135256800Y-40749400D03*
D15*
X131650000Y-35745600D03*
X131650000Y-40749400D03*
D10*
X103970000Y-56300000D03*
X114130000Y-56300000D03*
D16*
X43020000Y-42060000D03*
D17*
X43000276Y-41770672D02*
X43039724Y-42349328D01*
D16*
X49095000Y-43580000D03*
D17*
X48690184Y-42849693D02*
X49499816Y-44310307D01*
D18*
X45500000Y-46850000D03*
D19*
X40420000Y-46850000D03*
X50580000Y-46850000D03*
D16*
X42095000Y-43580000D03*
D17*
X42500453Y-42850046D02*
X41689547Y-44309954D01*
D16*
X48020000Y-42060000D03*
D17*
X48039724Y-41770672D02*
X48000276Y-42349328D01*
D16*
X43070000Y-61160000D03*
D17*
X43050276Y-60870672D02*
X43089724Y-61449328D01*
D16*
X49145000Y-62680000D03*
D17*
X48740184Y-61949693D02*
X49549816Y-63410307D01*
D18*
X45550000Y-65950000D03*
D19*
X40470000Y-65950000D03*
X50630000Y-65950000D03*
D16*
X42145000Y-62680000D03*
D17*
X42550453Y-61950046D02*
X41739547Y-63409954D01*
D16*
X48070000Y-61160000D03*
D17*
X48089724Y-60870672D02*
X48050276Y-61449328D01*
D16*
X43020000Y-80210000D03*
D17*
X43000276Y-79920672D02*
X43039724Y-80499328D01*
D16*
X49095000Y-81730000D03*
D17*
X48690184Y-80999693D02*
X49499816Y-82460307D01*
D18*
X45500000Y-85000000D03*
D19*
X40420000Y-85000000D03*
X50580000Y-85000000D03*
D16*
X42095000Y-81730000D03*
D17*
X42500453Y-81000046D02*
X41689547Y-82459954D01*
D16*
X48020000Y-80210000D03*
D17*
X48039724Y-79920672D02*
X48000276Y-80499328D01*
D16*
X43020000Y-99360000D03*
D17*
X43000276Y-99070672D02*
X43039724Y-99649328D01*
D16*
X49095000Y-100880000D03*
D17*
X48690184Y-100149693D02*
X49499816Y-101610307D01*
D18*
X45500000Y-104150000D03*
D19*
X40420000Y-104150000D03*
X50580000Y-104150000D03*
D16*
X42095000Y-100880000D03*
D17*
X42500453Y-100150046D02*
X41689547Y-101609954D01*
D16*
X48020000Y-99360000D03*
D17*
X48039724Y-99070672D02*
X48000276Y-99649328D01*
D16*
X62070000Y-42060000D03*
D17*
X62050276Y-41770672D02*
X62089724Y-42349328D01*
D16*
X68145000Y-43580000D03*
D17*
X67740184Y-42849693D02*
X68549816Y-44310307D01*
D18*
X64550000Y-46850000D03*
D19*
X59470000Y-46850000D03*
X69630000Y-46850000D03*
D16*
X61145000Y-43580000D03*
D17*
X61550453Y-42850046D02*
X60739547Y-44309954D01*
D16*
X67070000Y-42060000D03*
D17*
X67089724Y-41770672D02*
X67050276Y-42349328D01*
D16*
X62070000Y-61110000D03*
D17*
X62050276Y-60820672D02*
X62089724Y-61399328D01*
D16*
X68145000Y-62630000D03*
D17*
X67740184Y-61899693D02*
X68549816Y-63360307D01*
D18*
X64550000Y-65900000D03*
D19*
X59470000Y-65900000D03*
X69630000Y-65900000D03*
D16*
X61145000Y-62630000D03*
D17*
X61550453Y-61900046D02*
X60739547Y-63359954D01*
D16*
X67070000Y-61110000D03*
D17*
X67089724Y-60820672D02*
X67050276Y-61399328D01*
D16*
X62070000Y-80160000D03*
D17*
X62050276Y-79870672D02*
X62089724Y-80449328D01*
D16*
X68145000Y-81680000D03*
D17*
X67740184Y-80949693D02*
X68549816Y-82410307D01*
D18*
X64550000Y-84950000D03*
D19*
X59470000Y-84950000D03*
X69630000Y-84950000D03*
D16*
X61145000Y-81680000D03*
D17*
X61550453Y-80950046D02*
X60739547Y-82409954D01*
D16*
X67070000Y-80160000D03*
D17*
X67089724Y-79870672D02*
X67050276Y-80449328D01*
D16*
X62070000Y-99210000D03*
D17*
X62050276Y-98920672D02*
X62089724Y-99499328D01*
D16*
X68145000Y-100730000D03*
D17*
X67740184Y-99999693D02*
X68549816Y-101460307D01*
D18*
X64550000Y-104000000D03*
D19*
X59470000Y-104000000D03*
X69630000Y-104000000D03*
D16*
X61145000Y-100730000D03*
D17*
X61550453Y-100000046D02*
X60739547Y-101459954D01*
D16*
X67070000Y-99210000D03*
D17*
X67089724Y-98920672D02*
X67050276Y-99499328D01*
D16*
X81120000Y-42060000D03*
D17*
X81100276Y-41770672D02*
X81139724Y-42349328D01*
D16*
X87195000Y-43580000D03*
D17*
X86790184Y-42849693D02*
X87599816Y-44310307D01*
D18*
X83600000Y-46850000D03*
D19*
X78520000Y-46850000D03*
X88680000Y-46850000D03*
D16*
X80195000Y-43580000D03*
D17*
X80600453Y-42850046D02*
X79789547Y-44309954D01*
D16*
X86120000Y-42060000D03*
D17*
X86139724Y-41770672D02*
X86100276Y-42349328D01*
D16*
X81120000Y-61110000D03*
D17*
X81100276Y-60820672D02*
X81139724Y-61399328D01*
D16*
X87195000Y-62630000D03*
D17*
X86790184Y-61899693D02*
X87599816Y-63360307D01*
D18*
X83600000Y-65900000D03*
D19*
X78520000Y-65900000D03*
X88680000Y-65900000D03*
D16*
X80195000Y-62630000D03*
D17*
X80600453Y-61900046D02*
X79789547Y-63359954D01*
D16*
X86120000Y-61110000D03*
D17*
X86139724Y-60820672D02*
X86100276Y-61399328D01*
D16*
X81120000Y-80160000D03*
D17*
X81100276Y-79870672D02*
X81139724Y-80449328D01*
D16*
X87195000Y-81680000D03*
D17*
X86790184Y-80949693D02*
X87599816Y-82410307D01*
D18*
X83600000Y-84950000D03*
D19*
X78520000Y-84950000D03*
X88680000Y-84950000D03*
D16*
X80195000Y-81680000D03*
D17*
X80600453Y-80950046D02*
X79789547Y-82409954D01*
D16*
X86120000Y-80160000D03*
D17*
X86139724Y-79870672D02*
X86100276Y-80449328D01*
D16*
X81120000Y-99210000D03*
D17*
X81100276Y-98920672D02*
X81139724Y-99499328D01*
D16*
X87195000Y-100730000D03*
D17*
X86790184Y-99999693D02*
X87599816Y-101460307D01*
D18*
X83600000Y-104000000D03*
D19*
X78520000Y-104000000D03*
X88680000Y-104000000D03*
D16*
X80195000Y-100730000D03*
D17*
X80600453Y-100000046D02*
X79789547Y-101459954D01*
D16*
X86120000Y-99210000D03*
D17*
X86139724Y-98920672D02*
X86100276Y-99499328D01*
D16*
X100170000Y-42060000D03*
D17*
X100150276Y-41770672D02*
X100189724Y-42349328D01*
D16*
X106245000Y-43580000D03*
D17*
X105840184Y-42849693D02*
X106649816Y-44310307D01*
D18*
X102650000Y-46850000D03*
D19*
X97570000Y-46850000D03*
X107730000Y-46850000D03*
D16*
X99245000Y-43580000D03*
D17*
X99650453Y-42850046D02*
X98839547Y-44309954D01*
D16*
X105170000Y-42060000D03*
D17*
X105189724Y-41770672D02*
X105150276Y-42349328D01*
D16*
X100170000Y-61110000D03*
D17*
X100150276Y-60820672D02*
X100189724Y-61399328D01*
D16*
X106245000Y-62630000D03*
D17*
X105840184Y-61899693D02*
X106649816Y-63360307D01*
D18*
X102650000Y-65900000D03*
D19*
X97570000Y-65900000D03*
X107730000Y-65900000D03*
D16*
X99245000Y-62630000D03*
D17*
X99650453Y-61900046D02*
X98839547Y-63359954D01*
D16*
X105170000Y-61110000D03*
D17*
X105189724Y-60820672D02*
X105150276Y-61399328D01*
D16*
X100170000Y-80160000D03*
D17*
X100150276Y-79870672D02*
X100189724Y-80449328D01*
D16*
X106245000Y-81680000D03*
D17*
X105840184Y-80949693D02*
X106649816Y-82410307D01*
D18*
X102650000Y-84950000D03*
D19*
X97570000Y-84950000D03*
X107730000Y-84950000D03*
D16*
X99245000Y-81680000D03*
D17*
X99650453Y-80950046D02*
X98839547Y-82409954D01*
D16*
X105170000Y-80160000D03*
D17*
X105189724Y-79870672D02*
X105150276Y-80449328D01*
D16*
X100170000Y-99210000D03*
D17*
X100150276Y-98920672D02*
X100189724Y-99499328D01*
D16*
X106245000Y-100730000D03*
D17*
X105840184Y-99999693D02*
X106649816Y-101460307D01*
D18*
X102650000Y-104000000D03*
D19*
X97570000Y-104000000D03*
X107730000Y-104000000D03*
D16*
X99245000Y-100730000D03*
D17*
X99650453Y-100000046D02*
X98839547Y-101459954D01*
D16*
X105170000Y-99210000D03*
D17*
X105189724Y-98920672D02*
X105150276Y-99499328D01*
D16*
X119220000Y-42060000D03*
D17*
X119200276Y-41770672D02*
X119239724Y-42349328D01*
D16*
X125295000Y-43580000D03*
D17*
X124890184Y-42849693D02*
X125699816Y-44310307D01*
D18*
X121700000Y-46850000D03*
D19*
X116620000Y-46850000D03*
X126780000Y-46850000D03*
D16*
X118295000Y-43580000D03*
D17*
X118700453Y-42850046D02*
X117889547Y-44309954D01*
D16*
X124220000Y-42060000D03*
D17*
X124239724Y-41770672D02*
X124200276Y-42349328D01*
D16*
X119220000Y-61110000D03*
D17*
X119200276Y-60820672D02*
X119239724Y-61399328D01*
D16*
X125295000Y-62630000D03*
D17*
X124890184Y-61899693D02*
X125699816Y-63360307D01*
D18*
X121700000Y-65900000D03*
D19*
X116620000Y-65900000D03*
X126780000Y-65900000D03*
D16*
X118295000Y-62630000D03*
D17*
X118700453Y-61900046D02*
X117889547Y-63359954D01*
D16*
X124220000Y-61110000D03*
D17*
X124239724Y-60820672D02*
X124200276Y-61399328D01*
D16*
X119220000Y-80160000D03*
D17*
X119200276Y-79870672D02*
X119239724Y-80449328D01*
D16*
X125295000Y-81680000D03*
D17*
X124890184Y-80949693D02*
X125699816Y-82410307D01*
D18*
X121700000Y-84950000D03*
D19*
X116620000Y-84950000D03*
X126780000Y-84950000D03*
D16*
X118295000Y-81680000D03*
D17*
X118700453Y-80950046D02*
X117889547Y-82409954D01*
D16*
X124220000Y-80160000D03*
D17*
X124239724Y-79870672D02*
X124200276Y-80449328D01*
D16*
X119220000Y-99210000D03*
D17*
X119200276Y-98920672D02*
X119239724Y-99499328D01*
D16*
X125295000Y-100730000D03*
D17*
X124890184Y-99999693D02*
X125699816Y-101460307D01*
D18*
X121700000Y-104000000D03*
D19*
X116620000Y-104000000D03*
X126780000Y-104000000D03*
D16*
X118295000Y-100730000D03*
D17*
X118700453Y-100000046D02*
X117889547Y-101459954D01*
D16*
X124220000Y-99210000D03*
D17*
X124239724Y-98920672D02*
X124200276Y-99499328D01*
D16*
X138270000Y-42060000D03*
D17*
X138250276Y-41770672D02*
X138289724Y-42349328D01*
D16*
X144345000Y-43580000D03*
D17*
X143940184Y-42849693D02*
X144749816Y-44310307D01*
D18*
X140750000Y-46850000D03*
D19*
X135670000Y-46850000D03*
X145830000Y-46850000D03*
D16*
X137345000Y-43580000D03*
D17*
X137750453Y-42850046D02*
X136939547Y-44309954D01*
D16*
X143270000Y-42060000D03*
D17*
X143289724Y-41770672D02*
X143250276Y-42349328D01*
D16*
X138270000Y-61110000D03*
D17*
X138250276Y-60820672D02*
X138289724Y-61399328D01*
D16*
X144345000Y-62630000D03*
D17*
X143940184Y-61899693D02*
X144749816Y-63360307D01*
D18*
X140750000Y-65900000D03*
D19*
X135670000Y-65900000D03*
X145830000Y-65900000D03*
D16*
X137345000Y-62630000D03*
D17*
X137750453Y-61900046D02*
X136939547Y-63359954D01*
D16*
X143270000Y-61110000D03*
D17*
X143289724Y-60820672D02*
X143250276Y-61399328D01*
D16*
X138270000Y-80160000D03*
D17*
X138250276Y-79870672D02*
X138289724Y-80449328D01*
D16*
X144345000Y-81680000D03*
D17*
X143940184Y-80949693D02*
X144749816Y-82410307D01*
D18*
X140750000Y-84950000D03*
D19*
X135670000Y-84950000D03*
X145830000Y-84950000D03*
D16*
X137345000Y-81680000D03*
D17*
X137750453Y-80950046D02*
X136939547Y-82409954D01*
D16*
X143270000Y-80160000D03*
D17*
X143289724Y-79870672D02*
X143250276Y-80449328D01*
D16*
X138270000Y-99210000D03*
D17*
X138250276Y-98920672D02*
X138289724Y-99499328D01*
D16*
X144345000Y-100730000D03*
D17*
X143940184Y-99999693D02*
X144749816Y-101460307D01*
D18*
X140750000Y-104000000D03*
D19*
X135670000Y-104000000D03*
X145830000Y-104000000D03*
D16*
X137345000Y-100730000D03*
D17*
X137750453Y-100000046D02*
X136939547Y-101459954D01*
D16*
X143270000Y-99210000D03*
D17*
X143289724Y-98920672D02*
X143250276Y-99499328D01*
D20*
X131000000Y-48000000D03*
D21*
X137400000Y-53100000D03*
X137400000Y-51100000D03*
X137400000Y-49100000D03*
X137400000Y-53100000D03*
X137400000Y-51100000D03*
X137400000Y-49100000D03*
D22*
X137410000Y-51110000D03*
X137390000Y-49100000D03*
X137410000Y-53110000D03*
D21*
X125650000Y-53000000D03*
X125650000Y-51000000D03*
X125650000Y-49000000D03*
X125650000Y-53000000D03*
X125650000Y-51000000D03*
X125650000Y-49000000D03*
D22*
X125660000Y-51010000D03*
X125640000Y-49000000D03*
X125660000Y-53010000D03*
D23*
X122058800Y-58275400D03*
D24*
G36*
X122058800Y-59058167D02*
G01*
X121276033Y-58275400D01*
X122058800Y-57492633D01*
X122841567Y-58275400D01*
X122058800Y-59058167D01*
X122058800Y-59058167D01*
G37*
D25*
X121418800Y-58525400D03*
D24*
G36*
X120435907Y-58975400D02*
G01*
X121335907Y-58075400D01*
X121501693Y-58075400D01*
X122401693Y-58975400D01*
X120435907Y-58975400D01*
X120435907Y-58975400D01*
G37*
D25*
X121418800Y-58025400D03*
D24*
G36*
X122401693Y-57575400D02*
G01*
X121501693Y-58475400D01*
X121335907Y-58475400D01*
X120435907Y-57575400D01*
X122401693Y-57575400D01*
X122401693Y-57575400D01*
G37*
D26*
X121168800Y-58275400D03*
D25*
X121418800Y-58525400D03*
D24*
G36*
X120435907Y-58975400D02*
G01*
X121335907Y-58075400D01*
X121501693Y-58075400D01*
X122401693Y-58975400D01*
X120435907Y-58975400D01*
X120435907Y-58975400D01*
G37*
D27*
X122560000Y-58260000D03*
D23*
X122058800Y-58275400D03*
D24*
G36*
X122058800Y-59058167D02*
G01*
X121276033Y-58275400D01*
X122058800Y-57492633D01*
X122841567Y-58275400D01*
X122058800Y-59058167D01*
X122058800Y-59058167D01*
G37*
D25*
X121418800Y-58025400D03*
D24*
G36*
X122401693Y-57575400D02*
G01*
X121501693Y-58475400D01*
X121335907Y-58475400D01*
X120435907Y-57575400D01*
X122401693Y-57575400D01*
X122401693Y-57575400D01*
G37*
D26*
X121168800Y-58275400D03*
D27*
X122560000Y-58270000D03*
D28*
X122520000Y-58270000D03*
D29*
X121180000Y-58290000D03*
D30*
X55000000Y-94500000D03*
X131350000Y-94550000D03*
X131200000Y-56450000D03*
X51850000Y-37300000D03*
D14*
X56820000Y-53618000D03*
X56820000Y-58698000D03*
X72060000Y-53618000D03*
X56820000Y-61238000D03*
X56820000Y-35838000D03*
X72060000Y-43458000D03*
X72060000Y-45998000D03*
X56820000Y-43458000D03*
X56820000Y-40918000D03*
X72060000Y-40918000D03*
X56820000Y-45998000D03*
X72060000Y-38378000D03*
X56820000Y-63778000D03*
X56820000Y-48538000D03*
X72060000Y-48538000D03*
X56820000Y-38378000D03*
X72060000Y-61238000D03*
X72060000Y-56158000D03*
D31*
X72060000Y-35838000D03*
D14*
X72060000Y-51078000D03*
X56820000Y-51078000D03*
X72060000Y-63778000D03*
X56820000Y-56158000D03*
X72060000Y-58698000D03*
M02*
