M48
; DRILL file {KiCad (5.1.4)-1} date 12/29/2020 8:37:02 PM
; FORMAT={-:-/ absolute / inch / decimal}
; #@! TF.CreationDate,2020-12-29T20:37:02-06:00
; #@! TF.GenerationSoftware,Kicad,Pcbnew,(5.1.4)-1
FMAT,2
INCH
T1C0.0059
T2C0.0098
T3C0.0157
T4C0.0390
T5C0.0394
T6C0.0394
T7C0.0430
T8C0.0500
T9C0.0591
T10C0.3150
T11C0.0390
T12C0.0670
T13C0.1570
%
G90
G05
T1
X4.7709Y-2.2949
X4.8236Y-2.2941
T2
X5.4091Y-1.9331
X5.4098Y-2.0122
X5.4098Y-2.0909
X4.9465Y-1.9291
X4.9472Y-2.0083
X4.9472Y-2.087
T3
X3.4665Y-1.9252
T4
X4.0933Y-2.2165
X4.4933Y-2.2165
X3.5953Y-2.2165
X3.9953Y-2.2165
T5
X5.1575Y-1.8898
T6
X2.1653Y-3.4941
X2.1653Y-4.3406
X2.9172Y-4.3071
X4.5374Y-3.7204
X2.9153Y-3.5413
X4.4172Y-2.0571
X5.1692Y-2.8169
X4.4212Y-3.5591
X5.4134Y-2.2146
X5.1672Y-3.4646
X3.6633Y-2.8012
X5.1672Y-4.3504
X3.6712Y-3.5591
X4.4153Y-4.2992
X5.3386Y-2.9664
X2.3504Y-2.9704
X1.9705Y-2.9686
X3.4862Y-2.2186
X3.6712Y-2.0571
X3.6672Y-4.2953
X5.3937Y-3.7204
X4.4192Y-2.8071
X4.5965Y-2.2164
X2.0059Y-2.2186
T7
X5.0411Y-1.6043
X5.1201Y-1.7263
X5.2461Y-1.7263
X5.3251Y-1.6043
X2.237Y-1.4109
X2.237Y-1.5109
X2.237Y-1.6109
X2.237Y-1.7109
X2.237Y-1.8109
X2.237Y-1.9109
X2.237Y-2.0109
X2.237Y-2.1109
X2.237Y-2.2109
X2.237Y-2.3109
X2.237Y-2.4109
X2.237Y-2.5109
X2.837Y-1.4109
X2.837Y-1.5109
X2.837Y-1.6109
X2.837Y-1.7109
X2.837Y-1.8109
X2.837Y-1.9109
X2.837Y-2.0109
X2.837Y-2.1109
X2.837Y-2.2109
X2.837Y-2.3109
X2.837Y-2.4109
X2.837Y-2.5109
T8
X1.6059Y-2.2186
X2.1653Y-3.0941
X2.1653Y-3.9406
X2.9172Y-3.9071
X4.9374Y-3.7204
X2.9153Y-3.1413
X4.4172Y-1.6571
X5.1673Y-2.4803
X4.4212Y-3.1591
X5.7504Y-2.2145
X5.1672Y-3.0646
X3.6633Y-2.4012
X5.1672Y-3.9504
X3.6712Y-3.1591
X4.4153Y-3.8992
X5.7386Y-2.9664
X2.7504Y-2.9704
X1.5705Y-2.9686
X3.0862Y-2.2186
X3.6712Y-1.6571
X3.6672Y-3.8953
X5.7937Y-3.7204
X4.4192Y-2.4071
X4.9213Y-2.2146
T10
X5.1654Y-2.2224
X2.0413Y-1.4685
X5.1713Y-3.7224
X2.1654Y-3.7205
T11
X5.1831Y-1.4073
X5.1831Y-1.6043
T12
X3.8413Y-4.0945
X4.2413Y-4.0945
X4.5913Y-4.0945
X4.9913Y-4.0945
X3.8413Y-1.8445
X4.2413Y-1.8445
X3.0913Y-1.8445
X3.4913Y-1.8445
X5.3413Y-1.8445
X5.7413Y-1.8445
X2.3413Y-3.3445
X2.7413Y-3.3445
X3.0913Y-4.0945
X3.4913Y-4.0945
X5.3413Y-3.3445
X5.7413Y-3.3445
X3.0913Y-2.5945
X3.4913Y-2.5945
X1.5913Y-1.8445
X1.9913Y-1.8445
X4.5913Y-1.8445
X4.9913Y-1.8445
X5.3413Y-2.5945
X5.7413Y-2.5945
X4.5913Y-3.3445
X4.9913Y-3.3445
X3.8413Y-3.3445
X4.2413Y-3.3445
X5.3413Y-4.0945
X5.7413Y-4.0945
X1.5913Y-4.1004
X1.9913Y-4.1004
X3.8413Y-2.5945
X4.2413Y-2.5945
X2.3413Y-1.8445
X2.7413Y-1.8445
X1.5933Y-2.5965
X1.9933Y-2.5965
X2.3413Y-2.5945
X2.7413Y-2.5945
X2.3413Y-4.0945
X2.7413Y-4.0945
X3.0913Y-3.3445
X3.4913Y-3.3445
X1.5913Y-3.3465
X1.9913Y-3.3465
X4.5913Y-2.5945
X4.9913Y-2.5945
T13
X2.5413Y-1.8445
X1.7933Y-2.5965
X2.5413Y-2.5945
X2.5413Y-4.0945
X3.2913Y-3.3445
X1.7913Y-3.3465
X4.7913Y-2.5945
X4.0413Y-4.0945
X4.7913Y-4.0945
X4.0413Y-1.8445
X3.2913Y-1.8445
X5.5413Y-1.8445
X2.5413Y-3.3445
X3.2913Y-4.0945
X5.5413Y-3.3445
X3.2913Y-2.5945
X1.7913Y-1.8445
X4.7913Y-1.8445
X5.5413Y-2.5945
X4.7913Y-3.3445
X4.0413Y-3.3445
X5.5413Y-4.0945
X1.7913Y-4.1004
X4.0413Y-2.5945
T7
G00X5.0061Y-1.4073
M15
G01X4.9941Y-1.4073
M16
G05
G00X5.3721Y-1.4073
M15
G01X5.3601Y-1.4073
M16
G05
T9
G00X2.4232Y-1.687
M15
G01X2.3913Y-1.7445
M16
G05
G00X2.4429Y-1.6445
M15
G01X2.4445Y-1.6673
M16
G05
G00X2.6413Y-1.6445
M15
G01X2.6398Y-1.6673
M16
G05
G00X2.6669Y-1.687
M15
G01X2.6988Y-1.7445
M16
G05
G00X1.6752Y-2.439
M15
G01X1.6433Y-2.4965
M16
G05
G00X1.6949Y-2.3965
M15
G01X1.6964Y-2.4193
M16
G05
G00X1.8933Y-2.3965
M15
G01X1.8917Y-2.4193
M16
G05
G00X1.9189Y-2.439
M15
G01X1.9508Y-2.4965
M16
G05
G00X2.4232Y-2.437
M15
G01X2.3913Y-2.4945
M16
G05
G00X2.4429Y-2.3945
M15
G01X2.4445Y-2.4173
M16
G05
G00X2.6413Y-2.3945
M15
G01X2.6398Y-2.4173
M16
G05
G00X2.6669Y-2.437
M15
G01X2.6988Y-2.4945
M16
G05
G00X2.4232Y-3.937
M15
G01X2.3913Y-3.9945
M16
G05
G00X2.4429Y-3.8945
M15
G01X2.4445Y-3.9173
M16
G05
G00X2.6413Y-3.8945
M15
G01X2.6398Y-3.9173
M16
G05
G00X2.6669Y-3.937
M15
G01X2.6988Y-3.9945
M16
G05
G00X3.1732Y-3.187
M15
G01X3.1413Y-3.2445
M16
G05
G00X3.1929Y-3.1445
M15
G01X3.1945Y-3.1673
M16
G05
G00X3.3913Y-3.1445
M15
G01X3.3898Y-3.1673
M16
G05
G00X3.4169Y-3.187
M15
G01X3.4488Y-3.2445
M16
G05
G00X1.6732Y-3.189
M15
G01X1.6413Y-3.2465
M16
G05
G00X1.6929Y-3.1465
M15
G01X1.6945Y-3.1693
M16
G05
G00X1.8913Y-3.1465
M15
G01X1.8898Y-3.1693
M16
G05
G00X1.9169Y-3.189
M15
G01X1.9488Y-3.2465
M16
G05
G00X4.6732Y-2.437
M15
G01X4.6413Y-2.4945
M16
G05
G00X4.6929Y-2.3945
M15
G01X4.6945Y-2.4173
M16
G05
G00X4.8913Y-2.3945
M15
G01X4.8898Y-2.4173
M16
G05
G00X4.9169Y-2.437
M15
G01X4.9488Y-2.4945
M16
G05
G00X3.9232Y-3.937
M15
G01X3.8913Y-3.9945
M16
G05
G00X3.9429Y-3.8945
M15
G01X3.9445Y-3.9173
M16
G05
G00X4.1413Y-3.8945
M15
G01X4.1398Y-3.9173
M16
G05
G00X4.1669Y-3.937
M15
G01X4.1988Y-3.9945
M16
G05
G00X4.6732Y-3.937
M15
G01X4.6413Y-3.9945
M16
G05
G00X4.6929Y-3.8945
M15
G01X4.6945Y-3.9173
M16
G05
G00X4.8913Y-3.8945
M15
G01X4.8898Y-3.9173
M16
G05
G00X4.9169Y-3.937
M15
G01X4.9488Y-3.9945
M16
G05
G00X3.9232Y-1.687
M15
G01X3.8913Y-1.7445
M16
G05
G00X3.9429Y-1.6445
M15
G01X3.9445Y-1.6673
M16
G05
G00X4.1413Y-1.6445
M15
G01X4.1398Y-1.6673
M16
G05
G00X4.1669Y-1.687
M15
G01X4.1988Y-1.7445
M16
G05
G00X3.1732Y-1.687
M15
G01X3.1413Y-1.7445
M16
G05
G00X3.1929Y-1.6445
M15
G01X3.1945Y-1.6673
M16
G05
G00X3.3913Y-1.6445
M15
G01X3.3898Y-1.6673
M16
G05
G00X3.4169Y-1.687
M15
G01X3.4488Y-1.7445
M16
G05
G00X5.4232Y-1.687
M15
G01X5.3913Y-1.7445
M16
G05
G00X5.4429Y-1.6445
M15
G01X5.4445Y-1.6673
M16
G05
G00X5.6413Y-1.6445
M15
G01X5.6398Y-1.6673
M16
G05
G00X5.6669Y-1.687
M15
G01X5.6988Y-1.7445
M16
G05
G00X2.4232Y-3.187
M15
G01X2.3913Y-3.2445
M16
G05
G00X2.4429Y-3.1445
M15
G01X2.4445Y-3.1673
M16
G05
G00X2.6413Y-3.1445
M15
G01X2.6398Y-3.1673
M16
G05
G00X2.6669Y-3.187
M15
G01X2.6988Y-3.2445
M16
G05
G00X3.1732Y-3.937
M15
G01X3.1413Y-3.9945
M16
G05
G00X3.1929Y-3.8945
M15
G01X3.1945Y-3.9173
M16
G05
G00X3.3913Y-3.8945
M15
G01X3.3898Y-3.9173
M16
G05
G00X3.4169Y-3.937
M15
G01X3.4488Y-3.9945
M16
G05
G00X5.4232Y-3.187
M15
G01X5.3913Y-3.2445
M16
G05
G00X5.4429Y-3.1445
M15
G01X5.4445Y-3.1673
M16
G05
G00X5.6413Y-3.1445
M15
G01X5.6398Y-3.1673
M16
G05
G00X5.6669Y-3.187
M15
G01X5.6988Y-3.2445
M16
G05
G00X3.1732Y-2.437
M15
G01X3.1413Y-2.4945
M16
G05
G00X3.1929Y-2.3945
M15
G01X3.1945Y-2.4173
M16
G05
G00X3.3913Y-2.3945
M15
G01X3.3898Y-2.4173
M16
G05
G00X3.4169Y-2.437
M15
G01X3.4488Y-2.4945
M16
G05
G00X1.6732Y-1.687
M15
G01X1.6413Y-1.7445
M16
G05
G00X1.6929Y-1.6445
M15
G01X1.6945Y-1.6673
M16
G05
G00X1.8913Y-1.6445
M15
G01X1.8898Y-1.6673
M16
G05
G00X1.9169Y-1.687
M15
G01X1.9488Y-1.7445
M16
G05
G00X4.6732Y-1.687
M15
G01X4.6413Y-1.7445
M16
G05
G00X4.6929Y-1.6445
M15
G01X4.6945Y-1.6673
M16
G05
G00X4.8913Y-1.6445
M15
G01X4.8898Y-1.6673
M16
G05
G00X4.9169Y-1.687
M15
G01X4.9488Y-1.7445
M16
G05
G00X5.4232Y-2.437
M15
G01X5.3913Y-2.4945
M16
G05
G00X5.4429Y-2.3945
M15
G01X5.4445Y-2.4173
M16
G05
G00X5.6413Y-2.3945
M15
G01X5.6398Y-2.4173
M16
G05
G00X5.6669Y-2.437
M15
G01X5.6988Y-2.4945
M16
G05
G00X4.6732Y-3.187
M15
G01X4.6413Y-3.2445
M16
G05
G00X4.6929Y-3.1445
M15
G01X4.6945Y-3.1673
M16
G05
G00X4.8913Y-3.1445
M15
G01X4.8898Y-3.1673
M16
G05
G00X4.9169Y-3.187
M15
G01X4.9488Y-3.2445
M16
G05
G00X3.9232Y-3.187
M15
G01X3.8913Y-3.2445
M16
G05
G00X3.9429Y-3.1445
M15
G01X3.9445Y-3.1673
M16
G05
G00X4.1413Y-3.1445
M15
G01X4.1398Y-3.1673
M16
G05
G00X4.1669Y-3.187
M15
G01X4.1988Y-3.2445
M16
G05
G00X5.4232Y-3.937
M15
G01X5.3913Y-3.9945
M16
G05
G00X5.4429Y-3.8945
M15
G01X5.4445Y-3.9173
M16
G05
G00X5.6413Y-3.8945
M15
G01X5.6398Y-3.9173
M16
G05
G00X5.6669Y-3.937
M15
G01X5.6988Y-3.9945
M16
G05
G00X1.6732Y-3.9429
M15
G01X1.6413Y-4.0004
M16
G05
G00X1.6929Y-3.9004
M15
G01X1.6945Y-3.9232
M16
G05
G00X1.8913Y-3.9004
M15
G01X1.8898Y-3.9232
M16
G05
G00X1.9169Y-3.9429
M15
G01X1.9488Y-4.0004
M16
G05
G00X3.9232Y-2.437
M15
G01X3.8913Y-2.4945
M16
G05
G00X3.9429Y-2.3945
M15
G01X3.9445Y-2.4173
M16
G05
G00X4.1413Y-2.3945
M15
G01X4.1398Y-2.4173
M16
G05
G00X4.1669Y-2.437
M15
G01X4.1988Y-2.4945
M16
G05
T0
M30
