G04 #@! TF.GenerationSoftware,KiCad,Pcbnew,(5.1.4)-1*
G04 #@! TF.CreationDate,2020-12-29T20:37:27-06:00*
G04 #@! TF.ProjectId,lets_split,6c657473-5f73-4706-9c69-742e6b696361,rev?*
G04 #@! TF.SameCoordinates,Original*
G04 #@! TF.FileFunction,Other,Fab,Bot*
%FSLAX46Y46*%
G04 Gerber Fmt 4.6, Leading zero omitted, Abs format (unit mm)*
G04 Created by KiCad (PCBNEW (5.1.4)-1) date 2020-12-29 20:37:27*
%MOMM*%
%LPD*%
G04 APERTURE LIST*
%ADD10C,0.150000*%
G04 APERTURE END LIST*
D10*
X53292380Y-46633238D02*
X52292380Y-46633238D01*
X52292380Y-47014190D01*
X52340000Y-47109428D01*
X52387619Y-47157047D01*
X52482857Y-47204666D01*
X52625714Y-47204666D01*
X52720952Y-47157047D01*
X52768571Y-47109428D01*
X52816190Y-47014190D01*
X52816190Y-46633238D01*
X53292380Y-47633238D02*
X52625714Y-47633238D01*
X52816190Y-47633238D02*
X52720952Y-47680857D01*
X52673333Y-47728476D01*
X52625714Y-47823714D01*
X52625714Y-47918952D01*
X53292380Y-48395142D02*
X53244761Y-48299904D01*
X53197142Y-48252285D01*
X53101904Y-48204666D01*
X52816190Y-48204666D01*
X52720952Y-48252285D01*
X52673333Y-48299904D01*
X52625714Y-48395142D01*
X52625714Y-48538000D01*
X52673333Y-48633238D01*
X52720952Y-48680857D01*
X52816190Y-48728476D01*
X53101904Y-48728476D01*
X53197142Y-48680857D01*
X53244761Y-48633238D01*
X53292380Y-48538000D01*
X53292380Y-48395142D01*
X53292380Y-49918952D02*
X52292380Y-49918952D01*
X53006666Y-50252285D01*
X52292380Y-50585619D01*
X53292380Y-50585619D01*
X53292380Y-51061809D02*
X52625714Y-51061809D01*
X52292380Y-51061809D02*
X52340000Y-51014190D01*
X52387619Y-51061809D01*
X52340000Y-51109428D01*
X52292380Y-51061809D01*
X52387619Y-51061809D01*
X53244761Y-51966571D02*
X53292380Y-51871333D01*
X53292380Y-51680857D01*
X53244761Y-51585619D01*
X53197142Y-51538000D01*
X53101904Y-51490380D01*
X52816190Y-51490380D01*
X52720952Y-51538000D01*
X52673333Y-51585619D01*
X52625714Y-51680857D01*
X52625714Y-51871333D01*
X52673333Y-51966571D01*
X53292380Y-52395142D02*
X52625714Y-52395142D01*
X52816190Y-52395142D02*
X52720952Y-52442761D01*
X52673333Y-52490380D01*
X52625714Y-52585619D01*
X52625714Y-52680857D01*
X53292380Y-53157047D02*
X53244761Y-53061809D01*
X53197142Y-53014190D01*
X53101904Y-52966571D01*
X52816190Y-52966571D01*
X52720952Y-53014190D01*
X52673333Y-53061809D01*
X52625714Y-53157047D01*
X52625714Y-53299904D01*
X52673333Y-53395142D01*
X52720952Y-53442761D01*
X52816190Y-53490380D01*
X53101904Y-53490380D01*
X53197142Y-53442761D01*
X53244761Y-53395142D01*
X53292380Y-53299904D01*
X53292380Y-53157047D01*
M02*
