G04 #@! TF.GenerationSoftware,KiCad,Pcbnew,(5.1.4)-1*
G04 #@! TF.CreationDate,2020-12-29T20:37:27-06:00*
G04 #@! TF.ProjectId,lets_split,6c657473-5f73-4706-9c69-742e6b696361,rev?*
G04 #@! TF.SameCoordinates,Original*
G04 #@! TF.FileFunction,Legend,Bot*
G04 #@! TF.FilePolarity,Positive*
%FSLAX46Y46*%
G04 Gerber Fmt 4.6, Leading zero omitted, Abs format (unit mm)*
G04 Created by KiCad (PCBNEW (5.1.4)-1) date 2020-12-29 20:37:27*
%MOMM*%
%LPD*%
G04 APERTURE LIST*
%ADD10C,0.500000*%
%ADD11C,0.300000*%
%ADD12C,0.250000*%
%ADD13C,0.010000*%
%ADD14C,0.381000*%
%ADD15C,0.304800*%
%ADD16C,0.457200*%
G04 APERTURE END LIST*
D10*
X109086755Y-76937904D02*
X111467708Y-76937904D01*
X110842708Y-71937904D01*
X107092708Y-74318857D02*
X105426041Y-74318857D01*
X105039136Y-76937904D02*
X107420089Y-76937904D01*
X106795089Y-71937904D01*
X104414136Y-71937904D01*
X102985565Y-71937904D02*
X100128422Y-71937904D01*
X102181994Y-76937904D02*
X101556994Y-71937904D01*
X98223660Y-71937904D02*
X98818898Y-72890285D01*
X96914136Y-76699809D02*
X96229613Y-76937904D01*
X95039136Y-76937904D01*
X94533184Y-76699809D01*
X94265327Y-76461714D01*
X93967708Y-75985523D01*
X93908184Y-75509333D01*
X94086755Y-75033142D01*
X94295089Y-74795047D01*
X94741517Y-74556952D01*
X95664136Y-74318857D01*
X96110565Y-74080761D01*
X96318898Y-73842666D01*
X96497470Y-73366476D01*
X96437946Y-72890285D01*
X96140327Y-72414095D01*
X95872470Y-72176000D01*
X95366517Y-71937904D01*
X94176041Y-71937904D01*
X93491517Y-72176000D01*
X84920089Y-72176000D02*
X85366517Y-71937904D01*
X86080803Y-71937904D01*
X86824851Y-72176000D01*
X87360565Y-72652190D01*
X87658184Y-73128380D01*
X88015327Y-74080761D01*
X88104613Y-74795047D01*
X87985565Y-75747428D01*
X87806994Y-76223619D01*
X87390327Y-76699809D01*
X86705803Y-76937904D01*
X86229613Y-76937904D01*
X85485565Y-76699809D01*
X85217708Y-76461714D01*
X85009375Y-74795047D01*
X85961755Y-74795047D01*
X83193898Y-75509333D02*
X80812946Y-75509333D01*
X83848660Y-76937904D02*
X81556994Y-71937904D01*
X80515327Y-76937904D01*
X78848660Y-76937904D02*
X78223660Y-71937904D01*
X77003422Y-75509333D01*
X74890327Y-71937904D01*
X75515327Y-76937904D01*
X72806994Y-74318857D02*
X71140327Y-74318857D01*
X70753422Y-76937904D02*
X73134375Y-76937904D01*
X72509375Y-71937904D01*
X70128422Y-71937904D01*
D11*
X66214285Y-51403571D02*
X65642857Y-51403571D01*
X66000000Y-50903571D02*
X66000000Y-52189285D01*
X65928571Y-52332142D01*
X65785714Y-52403571D01*
X65642857Y-52403571D01*
X64928571Y-52403571D02*
X65071428Y-52332142D01*
X65142857Y-52260714D01*
X65214285Y-52117857D01*
X65214285Y-51689285D01*
X65142857Y-51546428D01*
X65071428Y-51475000D01*
X64928571Y-51403571D01*
X64714285Y-51403571D01*
X64571428Y-51475000D01*
X64500000Y-51546428D01*
X64428571Y-51689285D01*
X64428571Y-52117857D01*
X64500000Y-52260714D01*
X64571428Y-52332142D01*
X64714285Y-52403571D01*
X64928571Y-52403571D01*
X63785714Y-51403571D02*
X63785714Y-52903571D01*
X63785714Y-51475000D02*
X63642857Y-51403571D01*
X63357142Y-51403571D01*
X63214285Y-51475000D01*
X63142857Y-51546428D01*
X63071428Y-51689285D01*
X63071428Y-52117857D01*
X63142857Y-52260714D01*
X63214285Y-52332142D01*
X63357142Y-52403571D01*
X63642857Y-52403571D01*
X63785714Y-52332142D01*
X64357142Y-53953571D02*
X64357142Y-54953571D01*
X65000000Y-53953571D02*
X65000000Y-54739285D01*
X64928571Y-54882142D01*
X64785714Y-54953571D01*
X64571428Y-54953571D01*
X64428571Y-54882142D01*
X64357142Y-54810714D01*
X63642857Y-53953571D02*
X63642857Y-55453571D01*
X63642857Y-54025000D02*
X63500000Y-53953571D01*
X63214285Y-53953571D01*
X63071428Y-54025000D01*
X63000000Y-54096428D01*
X62928571Y-54239285D01*
X62928571Y-54667857D01*
X63000000Y-54810714D01*
X63071428Y-54882142D01*
X63214285Y-54953571D01*
X63500000Y-54953571D01*
X63642857Y-54882142D01*
D12*
X128761904Y-52750000D02*
X128857142Y-52702380D01*
X129000000Y-52702380D01*
X129142857Y-52750000D01*
X129238095Y-52845238D01*
X129285714Y-52940476D01*
X129333333Y-53130952D01*
X129333333Y-53273809D01*
X129285714Y-53464285D01*
X129238095Y-53559523D01*
X129142857Y-53654761D01*
X129000000Y-53702380D01*
X128904761Y-53702380D01*
X128761904Y-53654761D01*
X128714285Y-53607142D01*
X128714285Y-53273809D01*
X128904761Y-53273809D01*
X128285714Y-53702380D02*
X128285714Y-52702380D01*
X127714285Y-53702380D01*
X127714285Y-52702380D01*
X127238095Y-53702380D02*
X127238095Y-52702380D01*
X127000000Y-52702380D01*
X126857142Y-52750000D01*
X126761904Y-52845238D01*
X126714285Y-52940476D01*
X126666666Y-53130952D01*
X126666666Y-53273809D01*
X126714285Y-53464285D01*
X126761904Y-53559523D01*
X126857142Y-53654761D01*
X127000000Y-53702380D01*
X127238095Y-53702380D01*
X129083333Y-48452380D02*
X128750000Y-49452380D01*
X128416666Y-48452380D01*
X127511904Y-49357142D02*
X127559523Y-49404761D01*
X127702380Y-49452380D01*
X127797619Y-49452380D01*
X127940476Y-49404761D01*
X128035714Y-49309523D01*
X128083333Y-49214285D01*
X128130952Y-49023809D01*
X128130952Y-48880952D01*
X128083333Y-48690476D01*
X128035714Y-48595238D01*
X127940476Y-48500000D01*
X127797619Y-48452380D01*
X127702380Y-48452380D01*
X127559523Y-48500000D01*
X127511904Y-48547619D01*
X126511904Y-49357142D02*
X126559523Y-49404761D01*
X126702380Y-49452380D01*
X126797619Y-49452380D01*
X126940476Y-49404761D01*
X127035714Y-49309523D01*
X127083333Y-49214285D01*
X127130952Y-49023809D01*
X127130952Y-48880952D01*
X127083333Y-48690476D01*
X127035714Y-48595238D01*
X126940476Y-48500000D01*
X126797619Y-48452380D01*
X126702380Y-48452380D01*
X126559523Y-48500000D01*
X126511904Y-48547619D01*
X135833333Y-48452380D02*
X135500000Y-49452380D01*
X135166666Y-48452380D01*
X134261904Y-49357142D02*
X134309523Y-49404761D01*
X134452380Y-49452380D01*
X134547619Y-49452380D01*
X134690476Y-49404761D01*
X134785714Y-49309523D01*
X134833333Y-49214285D01*
X134880952Y-49023809D01*
X134880952Y-48880952D01*
X134833333Y-48690476D01*
X134785714Y-48595238D01*
X134690476Y-48500000D01*
X134547619Y-48452380D01*
X134452380Y-48452380D01*
X134309523Y-48500000D01*
X134261904Y-48547619D01*
X133261904Y-49357142D02*
X133309523Y-49404761D01*
X133452380Y-49452380D01*
X133547619Y-49452380D01*
X133690476Y-49404761D01*
X133785714Y-49309523D01*
X133833333Y-49214285D01*
X133880952Y-49023809D01*
X133880952Y-48880952D01*
X133833333Y-48690476D01*
X133785714Y-48595238D01*
X133690476Y-48500000D01*
X133547619Y-48452380D01*
X133452380Y-48452380D01*
X133309523Y-48500000D01*
X133261904Y-48547619D01*
X135511904Y-52750000D02*
X135607142Y-52702380D01*
X135750000Y-52702380D01*
X135892857Y-52750000D01*
X135988095Y-52845238D01*
X136035714Y-52940476D01*
X136083333Y-53130952D01*
X136083333Y-53273809D01*
X136035714Y-53464285D01*
X135988095Y-53559523D01*
X135892857Y-53654761D01*
X135750000Y-53702380D01*
X135654761Y-53702380D01*
X135511904Y-53654761D01*
X135464285Y-53607142D01*
X135464285Y-53273809D01*
X135654761Y-53273809D01*
X135035714Y-53702380D02*
X135035714Y-52702380D01*
X134464285Y-53702380D01*
X134464285Y-52702380D01*
X133988095Y-53702380D02*
X133988095Y-52702380D01*
X133750000Y-52702380D01*
X133607142Y-52750000D01*
X133511904Y-52845238D01*
X133464285Y-52940476D01*
X133416666Y-53130952D01*
X133416666Y-53273809D01*
X133464285Y-53464285D01*
X133511904Y-53559523D01*
X133607142Y-53654761D01*
X133750000Y-53702380D01*
X133988095Y-53702380D01*
D13*
G36*
X133847653Y-57413131D02*
G01*
X133323494Y-57303909D01*
X132921449Y-57299710D01*
X132624666Y-57399833D01*
X132416295Y-57603575D01*
X132308022Y-57823621D01*
X132270669Y-58019700D01*
X132233264Y-58383619D01*
X132198182Y-58880029D01*
X132167800Y-59473587D01*
X132144495Y-60128943D01*
X132139177Y-60334941D01*
X132120982Y-60981319D01*
X132099024Y-61557202D01*
X132074933Y-62032284D01*
X132050335Y-62376258D01*
X132026860Y-62558817D01*
X132018618Y-62579524D01*
X131888598Y-62582938D01*
X131646254Y-62524170D01*
X131548738Y-62491469D01*
X130751507Y-62288617D01*
X129861795Y-62202276D01*
X128948831Y-62231178D01*
X128081843Y-62374054D01*
X127476550Y-62566029D01*
X127114942Y-62751669D01*
X126703157Y-63022893D01*
X126285208Y-63343314D01*
X125905100Y-63676544D01*
X125606844Y-63986195D01*
X125434450Y-64235881D01*
X125422828Y-64264077D01*
X125299477Y-64496012D01*
X125241667Y-64572542D01*
X125121207Y-64637979D01*
X124831984Y-64762770D01*
X124396653Y-64938095D01*
X123837874Y-65155136D01*
X123178305Y-65405072D01*
X122440603Y-65679086D01*
X121763767Y-65926254D01*
X120726434Y-66305886D01*
X119861228Y-66632567D01*
X119147238Y-66916792D01*
X118563552Y-67169060D01*
X118089257Y-67399869D01*
X117703442Y-67619717D01*
X117385195Y-67839103D01*
X117113605Y-68068523D01*
X116867758Y-68318475D01*
X116763357Y-68436499D01*
X116150321Y-69284166D01*
X115735490Y-70175544D01*
X115518207Y-71112567D01*
X115497819Y-72097172D01*
X115502986Y-72159423D01*
X115620621Y-72872149D01*
X115854960Y-73538090D01*
X116229471Y-74214605D01*
X116509993Y-74620568D01*
X117204290Y-75418270D01*
X117992017Y-76050257D01*
X118855369Y-76502667D01*
X118995487Y-76556068D01*
X119731136Y-76761751D01*
X120455868Y-76827456D01*
X121235600Y-76756003D01*
X121664125Y-76670312D01*
X122254510Y-76551747D01*
X122907519Y-76447864D01*
X123568000Y-76364925D01*
X124180790Y-76309192D01*
X124690736Y-76286926D01*
X124966604Y-76295424D01*
X125181119Y-76322006D01*
X125368288Y-76374363D01*
X125569455Y-76475257D01*
X125825958Y-76647446D01*
X126179141Y-76913689D01*
X126396490Y-77082625D01*
X126853972Y-77425365D01*
X127335455Y-77762490D01*
X127774526Y-78048595D01*
X128027874Y-78197927D01*
X128358498Y-78385864D01*
X128613002Y-78543869D01*
X128743507Y-78641943D01*
X128749767Y-78650225D01*
X128686002Y-78730776D01*
X128478267Y-78886430D01*
X128160269Y-79093703D01*
X127821221Y-79297124D01*
X126031782Y-80394896D01*
X124344993Y-81551889D01*
X122775923Y-82754716D01*
X121339638Y-83989991D01*
X120051202Y-85244332D01*
X118925682Y-86504353D01*
X117978145Y-87756667D01*
X117544283Y-88427472D01*
X117330892Y-88811076D01*
X117074351Y-89321069D01*
X116805109Y-89894433D01*
X116553617Y-90468155D01*
X116524237Y-90538464D01*
X115958702Y-91900372D01*
X114804213Y-91507601D01*
X114198934Y-91313176D01*
X113748438Y-91199005D01*
X113422350Y-91161645D01*
X113190289Y-91197655D01*
X113021877Y-91303595D01*
X113019929Y-91305459D01*
X112940085Y-91438453D01*
X112802075Y-91726808D01*
X112621101Y-92136392D01*
X112412364Y-92633075D01*
X112248862Y-93036871D01*
X111609076Y-94642057D01*
X110502301Y-94266724D01*
X110037459Y-94118688D01*
X109622564Y-94004031D01*
X109306973Y-93935336D01*
X109152842Y-93922590D01*
X108994494Y-93958759D01*
X108853374Y-94038035D01*
X108717297Y-94182529D01*
X108574084Y-94414354D01*
X108411551Y-94755620D01*
X108217516Y-95228441D01*
X107979798Y-95854926D01*
X107763608Y-96444169D01*
X107496956Y-97184156D01*
X107297790Y-97760812D01*
X107160554Y-98200423D01*
X107079697Y-98529277D01*
X107049660Y-98773660D01*
X107064892Y-98959859D01*
X107119835Y-99114164D01*
X107177959Y-99215719D01*
X107232665Y-99253497D01*
X107370524Y-99320001D01*
X107598527Y-99417837D01*
X107923667Y-99549610D01*
X108352934Y-99717923D01*
X108893320Y-99925382D01*
X109551817Y-100174591D01*
X110335416Y-100468156D01*
X111251108Y-100808681D01*
X112305886Y-101198771D01*
X113506740Y-101641029D01*
X114860661Y-102138062D01*
X116374643Y-102692474D01*
X118055675Y-103306869D01*
X119910751Y-103983854D01*
X121946860Y-104726031D01*
X122914347Y-105078446D01*
X138541583Y-110769734D01*
X138893323Y-110636816D01*
X139245060Y-110503899D01*
X139974496Y-108499791D01*
X138195356Y-107852237D01*
X138067564Y-108191497D01*
X137971853Y-108411620D01*
X137941447Y-108462225D01*
X137901589Y-108467518D01*
X137803982Y-108449842D01*
X137640382Y-108406265D01*
X137402542Y-108333848D01*
X137082219Y-108229660D01*
X136671166Y-108090765D01*
X136161139Y-107914231D01*
X135543892Y-107697120D01*
X134811183Y-107436501D01*
X133954764Y-107129438D01*
X132966391Y-106772998D01*
X131837818Y-106364245D01*
X130560801Y-105900246D01*
X129127096Y-105378066D01*
X127528456Y-104794770D01*
X125756636Y-104147425D01*
X123803392Y-103433096D01*
X123555503Y-103342401D01*
X109264379Y-98113475D01*
X109994113Y-96108547D01*
X138635944Y-106533321D01*
X138336105Y-107443221D01*
X138195356Y-107852237D01*
X139974496Y-108499791D01*
X140079251Y-108211978D01*
X140340547Y-107492846D01*
X140539117Y-106938926D01*
X140681779Y-106524502D01*
X140775348Y-106223855D01*
X140826641Y-106011267D01*
X140842471Y-105861023D01*
X140829658Y-105747402D01*
X140795014Y-105644689D01*
X140773286Y-105593233D01*
X140703576Y-105451099D01*
X140611153Y-105338003D01*
X140460333Y-105232459D01*
X140215429Y-105112989D01*
X139840755Y-104958110D01*
X139487291Y-104819127D01*
X138341452Y-104371846D01*
X138575409Y-103665759D01*
X136721136Y-102990859D01*
X136593328Y-103330139D01*
X136497595Y-103550285D01*
X136467177Y-103600901D01*
X136425462Y-103607752D01*
X136324912Y-103590756D01*
X136156304Y-103546650D01*
X135910416Y-103472170D01*
X135578025Y-103364054D01*
X135149909Y-103219035D01*
X134616845Y-103033852D01*
X133969611Y-102805240D01*
X133198986Y-102529937D01*
X132295746Y-102204678D01*
X131250669Y-101826200D01*
X130054532Y-101391238D01*
X128698114Y-100896532D01*
X127172192Y-100338813D01*
X125467544Y-99714822D01*
X124945416Y-99523555D01*
X113518532Y-95337041D01*
X114248266Y-93332113D01*
X137161731Y-101671932D01*
X136861892Y-102581833D01*
X136721136Y-102990859D01*
X138575409Y-103665759D01*
X138890445Y-102714970D01*
X139117628Y-102033970D01*
X139278924Y-101510108D01*
X139359061Y-101112969D01*
X139342768Y-100812142D01*
X139214774Y-100577213D01*
X138959809Y-100377768D01*
X138562601Y-100183393D01*
X138007878Y-99963677D01*
X137392059Y-99730831D01*
X135626093Y-99058717D01*
X135839305Y-98379477D01*
X135999002Y-97928001D01*
X136233139Y-97341329D01*
X136521738Y-96664194D01*
X136844820Y-95941330D01*
X137182408Y-95217471D01*
X137514522Y-94537352D01*
X137810965Y-93964677D01*
X138539739Y-92703691D01*
X139304768Y-91577627D01*
X140153770Y-90518536D01*
X140520375Y-90106308D01*
X141333594Y-89212155D01*
X142022720Y-88443789D01*
X142603378Y-87779452D01*
X143091191Y-87197386D01*
X143501785Y-86675830D01*
X143850782Y-86193029D01*
X144153806Y-85727221D01*
X144426480Y-85256650D01*
X144684428Y-84759556D01*
X144943275Y-84214181D01*
X145218644Y-83598767D01*
X145258655Y-83507492D01*
X145822224Y-82099778D01*
X144020843Y-81444129D01*
X143730620Y-82225000D01*
X143448336Y-82928386D01*
X143196626Y-83495650D01*
X143191857Y-83505627D01*
X142982083Y-83932456D01*
X142775176Y-84323029D01*
X142556243Y-84696613D01*
X142310388Y-85072476D01*
X142022718Y-85469884D01*
X141678338Y-85908104D01*
X141262354Y-86406403D01*
X140759872Y-86984047D01*
X140155997Y-87660305D01*
X139435835Y-88454443D01*
X138981540Y-88951990D01*
X138151237Y-89936042D01*
X137358590Y-91035636D01*
X136592364Y-92269671D01*
X135841321Y-93657043D01*
X135094230Y-95216649D01*
X134633852Y-96264861D01*
X134383006Y-96849701D01*
X134155427Y-97373199D01*
X133964301Y-97805587D01*
X133822819Y-98117098D01*
X133744168Y-98277964D01*
X133736401Y-98290460D01*
X133686482Y-98297338D01*
X133561248Y-98273425D01*
X133350315Y-98215082D01*
X133043296Y-98118669D01*
X132629807Y-97980548D01*
X132099461Y-97797078D01*
X131441873Y-97564622D01*
X130646659Y-97279539D01*
X129703432Y-96938191D01*
X128601808Y-96536938D01*
X127331399Y-96072141D01*
X125881823Y-95540163D01*
X125762426Y-95496291D01*
X117868157Y-92595357D01*
X118235902Y-91500683D01*
X118630997Y-90478018D01*
X119113055Y-89530631D01*
X119716777Y-88596149D01*
X120229707Y-87917105D01*
X121322569Y-86666318D01*
X122605481Y-85419749D01*
X124065373Y-84187138D01*
X125689171Y-82978223D01*
X127463800Y-81802741D01*
X129376186Y-80670431D01*
X131395326Y-79600020D01*
X131919930Y-79334047D01*
X132292121Y-79134392D01*
X132542527Y-78979138D01*
X132701778Y-78846364D01*
X132800500Y-78714153D01*
X132869324Y-78560584D01*
X132877046Y-78539630D01*
X132954377Y-78108581D01*
X132851444Y-77759073D01*
X132577783Y-77500075D01*
X132142929Y-77340556D01*
X131556416Y-77289484D01*
X131548043Y-77289571D01*
X130759148Y-77221716D01*
X129947343Y-76995429D01*
X129097132Y-76603735D01*
X128193020Y-76039662D01*
X127342664Y-75396892D01*
X126951178Y-75094518D01*
X126577482Y-74831690D01*
X126272368Y-74642848D01*
X126128574Y-74573756D01*
X125561624Y-74440171D01*
X124831578Y-74382723D01*
X123963409Y-74400593D01*
X122982083Y-74492960D01*
X121912573Y-74659003D01*
X121577076Y-74723296D01*
X121043216Y-74828006D01*
X120659735Y-74892396D01*
X120377928Y-74916810D01*
X120149085Y-74901592D01*
X119924499Y-74847087D01*
X119655458Y-74753638D01*
X119610701Y-74737183D01*
X119166548Y-74549445D01*
X118830753Y-74337036D01*
X118512022Y-74042548D01*
X118096115Y-73539655D01*
X117748815Y-72985224D01*
X117503166Y-72439293D01*
X117397866Y-72018094D01*
X117406558Y-71426194D01*
X117551576Y-70796186D01*
X117810363Y-70216637D01*
X117888168Y-70093007D01*
X118058052Y-69859237D01*
X118243720Y-69650596D01*
X118465195Y-69456803D01*
X118742500Y-69267573D01*
X119095656Y-69072627D01*
X119544687Y-68861680D01*
X120109615Y-68624453D01*
X120810463Y-68350660D01*
X121667253Y-68030022D01*
X122497895Y-67725780D01*
X123297427Y-67432075D01*
X124046106Y-67152154D01*
X124719952Y-66895355D01*
X125294980Y-66671017D01*
X125747205Y-66488479D01*
X126052645Y-66357080D01*
X126179405Y-66292258D01*
X126397425Y-66100300D01*
X126659194Y-65812102D01*
X126838045Y-65584011D01*
X127253184Y-65062418D01*
X127639830Y-64691879D01*
X128042353Y-64433759D01*
X128280446Y-64328098D01*
X128872105Y-64156048D01*
X129502102Y-64097258D01*
X130215076Y-64151337D01*
X130998800Y-64304255D01*
X131682476Y-64446443D01*
X132217425Y-64503198D01*
X132641875Y-64468702D01*
X132994053Y-64337129D01*
X133312187Y-64102662D01*
X133488939Y-63925095D01*
X133667375Y-63705812D01*
X133800859Y-63466366D01*
X133896195Y-63173255D01*
X133960191Y-62792977D01*
X133999653Y-62292032D01*
X134021389Y-61636916D01*
X134027298Y-61275346D01*
X134039518Y-60709189D01*
X134059360Y-60215580D01*
X134084676Y-59829690D01*
X134113315Y-59586688D01*
X134134629Y-59520071D01*
X134286757Y-59517327D01*
X134565814Y-59617104D01*
X134936915Y-59799017D01*
X135365176Y-60042678D01*
X135815710Y-60327703D01*
X136253633Y-60633704D01*
X136644059Y-60940296D01*
X136799978Y-61077645D01*
X137190758Y-61483465D01*
X137621846Y-62004356D01*
X138041994Y-62573983D01*
X138399956Y-63126013D01*
X138453641Y-63218062D01*
X138695118Y-63597222D01*
X138973084Y-63933744D01*
X139324537Y-64262720D01*
X139786473Y-64619241D01*
X140318225Y-64986629D01*
X141198054Y-65656149D01*
X142026620Y-66440595D01*
X142745905Y-67281731D01*
X143083473Y-67762222D01*
X143702420Y-68865005D01*
X144241756Y-70112315D01*
X144685555Y-71455719D01*
X145017895Y-72846784D01*
X145222849Y-74237074D01*
X145227297Y-74282802D01*
X145287995Y-75251551D01*
X145275308Y-76187819D01*
X145183385Y-77131595D01*
X145006374Y-78122867D01*
X144738424Y-79201623D01*
X144373684Y-80407848D01*
X144296370Y-80644408D01*
X144020843Y-81444129D01*
X145822224Y-82099778D01*
X145896745Y-81913637D01*
X146418855Y-80322814D01*
X146816613Y-78768035D01*
X147081650Y-77282310D01*
X147205594Y-75898654D01*
X147208416Y-75817880D01*
X147198260Y-74953018D01*
X147124081Y-73970610D01*
X146994316Y-72942949D01*
X146817403Y-71942329D01*
X146690080Y-71376687D01*
X146201566Y-69729945D01*
X145585410Y-68237220D01*
X144835638Y-66889776D01*
X143946272Y-65678881D01*
X142911339Y-64595801D01*
X141724863Y-63631803D01*
X141103465Y-63211176D01*
X140760342Y-62971831D01*
X140494445Y-62724578D01*
X140247971Y-62407416D01*
X140014788Y-62043472D01*
X139236822Y-60905435D01*
X138393650Y-59944585D01*
X137460046Y-59138882D01*
X136410793Y-58466284D01*
X135329713Y-57949451D01*
X134510775Y-57628078D01*
X133847653Y-57413131D01*
X133847653Y-57413131D01*
G37*
X133847653Y-57413131D02*
X133323494Y-57303909D01*
X132921449Y-57299710D01*
X132624666Y-57399833D01*
X132416295Y-57603575D01*
X132308022Y-57823621D01*
X132270669Y-58019700D01*
X132233264Y-58383619D01*
X132198182Y-58880029D01*
X132167800Y-59473587D01*
X132144495Y-60128943D01*
X132139177Y-60334941D01*
X132120982Y-60981319D01*
X132099024Y-61557202D01*
X132074933Y-62032284D01*
X132050335Y-62376258D01*
X132026860Y-62558817D01*
X132018618Y-62579524D01*
X131888598Y-62582938D01*
X131646254Y-62524170D01*
X131548738Y-62491469D01*
X130751507Y-62288617D01*
X129861795Y-62202276D01*
X128948831Y-62231178D01*
X128081843Y-62374054D01*
X127476550Y-62566029D01*
X127114942Y-62751669D01*
X126703157Y-63022893D01*
X126285208Y-63343314D01*
X125905100Y-63676544D01*
X125606844Y-63986195D01*
X125434450Y-64235881D01*
X125422828Y-64264077D01*
X125299477Y-64496012D01*
X125241667Y-64572542D01*
X125121207Y-64637979D01*
X124831984Y-64762770D01*
X124396653Y-64938095D01*
X123837874Y-65155136D01*
X123178305Y-65405072D01*
X122440603Y-65679086D01*
X121763767Y-65926254D01*
X120726434Y-66305886D01*
X119861228Y-66632567D01*
X119147238Y-66916792D01*
X118563552Y-67169060D01*
X118089257Y-67399869D01*
X117703442Y-67619717D01*
X117385195Y-67839103D01*
X117113605Y-68068523D01*
X116867758Y-68318475D01*
X116763357Y-68436499D01*
X116150321Y-69284166D01*
X115735490Y-70175544D01*
X115518207Y-71112567D01*
X115497819Y-72097172D01*
X115502986Y-72159423D01*
X115620621Y-72872149D01*
X115854960Y-73538090D01*
X116229471Y-74214605D01*
X116509993Y-74620568D01*
X117204290Y-75418270D01*
X117992017Y-76050257D01*
X118855369Y-76502667D01*
X118995487Y-76556068D01*
X119731136Y-76761751D01*
X120455868Y-76827456D01*
X121235600Y-76756003D01*
X121664125Y-76670312D01*
X122254510Y-76551747D01*
X122907519Y-76447864D01*
X123568000Y-76364925D01*
X124180790Y-76309192D01*
X124690736Y-76286926D01*
X124966604Y-76295424D01*
X125181119Y-76322006D01*
X125368288Y-76374363D01*
X125569455Y-76475257D01*
X125825958Y-76647446D01*
X126179141Y-76913689D01*
X126396490Y-77082625D01*
X126853972Y-77425365D01*
X127335455Y-77762490D01*
X127774526Y-78048595D01*
X128027874Y-78197927D01*
X128358498Y-78385864D01*
X128613002Y-78543869D01*
X128743507Y-78641943D01*
X128749767Y-78650225D01*
X128686002Y-78730776D01*
X128478267Y-78886430D01*
X128160269Y-79093703D01*
X127821221Y-79297124D01*
X126031782Y-80394896D01*
X124344993Y-81551889D01*
X122775923Y-82754716D01*
X121339638Y-83989991D01*
X120051202Y-85244332D01*
X118925682Y-86504353D01*
X117978145Y-87756667D01*
X117544283Y-88427472D01*
X117330892Y-88811076D01*
X117074351Y-89321069D01*
X116805109Y-89894433D01*
X116553617Y-90468155D01*
X116524237Y-90538464D01*
X115958702Y-91900372D01*
X114804213Y-91507601D01*
X114198934Y-91313176D01*
X113748438Y-91199005D01*
X113422350Y-91161645D01*
X113190289Y-91197655D01*
X113021877Y-91303595D01*
X113019929Y-91305459D01*
X112940085Y-91438453D01*
X112802075Y-91726808D01*
X112621101Y-92136392D01*
X112412364Y-92633075D01*
X112248862Y-93036871D01*
X111609076Y-94642057D01*
X110502301Y-94266724D01*
X110037459Y-94118688D01*
X109622564Y-94004031D01*
X109306973Y-93935336D01*
X109152842Y-93922590D01*
X108994494Y-93958759D01*
X108853374Y-94038035D01*
X108717297Y-94182529D01*
X108574084Y-94414354D01*
X108411551Y-94755620D01*
X108217516Y-95228441D01*
X107979798Y-95854926D01*
X107763608Y-96444169D01*
X107496956Y-97184156D01*
X107297790Y-97760812D01*
X107160554Y-98200423D01*
X107079697Y-98529277D01*
X107049660Y-98773660D01*
X107064892Y-98959859D01*
X107119835Y-99114164D01*
X107177959Y-99215719D01*
X107232665Y-99253497D01*
X107370524Y-99320001D01*
X107598527Y-99417837D01*
X107923667Y-99549610D01*
X108352934Y-99717923D01*
X108893320Y-99925382D01*
X109551817Y-100174591D01*
X110335416Y-100468156D01*
X111251108Y-100808681D01*
X112305886Y-101198771D01*
X113506740Y-101641029D01*
X114860661Y-102138062D01*
X116374643Y-102692474D01*
X118055675Y-103306869D01*
X119910751Y-103983854D01*
X121946860Y-104726031D01*
X122914347Y-105078446D01*
X138541583Y-110769734D01*
X138893323Y-110636816D01*
X139245060Y-110503899D01*
X139974496Y-108499791D01*
X138195356Y-107852237D01*
X138067564Y-108191497D01*
X137971853Y-108411620D01*
X137941447Y-108462225D01*
X137901589Y-108467518D01*
X137803982Y-108449842D01*
X137640382Y-108406265D01*
X137402542Y-108333848D01*
X137082219Y-108229660D01*
X136671166Y-108090765D01*
X136161139Y-107914231D01*
X135543892Y-107697120D01*
X134811183Y-107436501D01*
X133954764Y-107129438D01*
X132966391Y-106772998D01*
X131837818Y-106364245D01*
X130560801Y-105900246D01*
X129127096Y-105378066D01*
X127528456Y-104794770D01*
X125756636Y-104147425D01*
X123803392Y-103433096D01*
X123555503Y-103342401D01*
X109264379Y-98113475D01*
X109994113Y-96108547D01*
X138635944Y-106533321D01*
X138336105Y-107443221D01*
X138195356Y-107852237D01*
X139974496Y-108499791D01*
X140079251Y-108211978D01*
X140340547Y-107492846D01*
X140539117Y-106938926D01*
X140681779Y-106524502D01*
X140775348Y-106223855D01*
X140826641Y-106011267D01*
X140842471Y-105861023D01*
X140829658Y-105747402D01*
X140795014Y-105644689D01*
X140773286Y-105593233D01*
X140703576Y-105451099D01*
X140611153Y-105338003D01*
X140460333Y-105232459D01*
X140215429Y-105112989D01*
X139840755Y-104958110D01*
X139487291Y-104819127D01*
X138341452Y-104371846D01*
X138575409Y-103665759D01*
X136721136Y-102990859D01*
X136593328Y-103330139D01*
X136497595Y-103550285D01*
X136467177Y-103600901D01*
X136425462Y-103607752D01*
X136324912Y-103590756D01*
X136156304Y-103546650D01*
X135910416Y-103472170D01*
X135578025Y-103364054D01*
X135149909Y-103219035D01*
X134616845Y-103033852D01*
X133969611Y-102805240D01*
X133198986Y-102529937D01*
X132295746Y-102204678D01*
X131250669Y-101826200D01*
X130054532Y-101391238D01*
X128698114Y-100896532D01*
X127172192Y-100338813D01*
X125467544Y-99714822D01*
X124945416Y-99523555D01*
X113518532Y-95337041D01*
X114248266Y-93332113D01*
X137161731Y-101671932D01*
X136861892Y-102581833D01*
X136721136Y-102990859D01*
X138575409Y-103665759D01*
X138890445Y-102714970D01*
X139117628Y-102033970D01*
X139278924Y-101510108D01*
X139359061Y-101112969D01*
X139342768Y-100812142D01*
X139214774Y-100577213D01*
X138959809Y-100377768D01*
X138562601Y-100183393D01*
X138007878Y-99963677D01*
X137392059Y-99730831D01*
X135626093Y-99058717D01*
X135839305Y-98379477D01*
X135999002Y-97928001D01*
X136233139Y-97341329D01*
X136521738Y-96664194D01*
X136844820Y-95941330D01*
X137182408Y-95217471D01*
X137514522Y-94537352D01*
X137810965Y-93964677D01*
X138539739Y-92703691D01*
X139304768Y-91577627D01*
X140153770Y-90518536D01*
X140520375Y-90106308D01*
X141333594Y-89212155D01*
X142022720Y-88443789D01*
X142603378Y-87779452D01*
X143091191Y-87197386D01*
X143501785Y-86675830D01*
X143850782Y-86193029D01*
X144153806Y-85727221D01*
X144426480Y-85256650D01*
X144684428Y-84759556D01*
X144943275Y-84214181D01*
X145218644Y-83598767D01*
X145258655Y-83507492D01*
X145822224Y-82099778D01*
X144020843Y-81444129D01*
X143730620Y-82225000D01*
X143448336Y-82928386D01*
X143196626Y-83495650D01*
X143191857Y-83505627D01*
X142982083Y-83932456D01*
X142775176Y-84323029D01*
X142556243Y-84696613D01*
X142310388Y-85072476D01*
X142022718Y-85469884D01*
X141678338Y-85908104D01*
X141262354Y-86406403D01*
X140759872Y-86984047D01*
X140155997Y-87660305D01*
X139435835Y-88454443D01*
X138981540Y-88951990D01*
X138151237Y-89936042D01*
X137358590Y-91035636D01*
X136592364Y-92269671D01*
X135841321Y-93657043D01*
X135094230Y-95216649D01*
X134633852Y-96264861D01*
X134383006Y-96849701D01*
X134155427Y-97373199D01*
X133964301Y-97805587D01*
X133822819Y-98117098D01*
X133744168Y-98277964D01*
X133736401Y-98290460D01*
X133686482Y-98297338D01*
X133561248Y-98273425D01*
X133350315Y-98215082D01*
X133043296Y-98118669D01*
X132629807Y-97980548D01*
X132099461Y-97797078D01*
X131441873Y-97564622D01*
X130646659Y-97279539D01*
X129703432Y-96938191D01*
X128601808Y-96536938D01*
X127331399Y-96072141D01*
X125881823Y-95540163D01*
X125762426Y-95496291D01*
X117868157Y-92595357D01*
X118235902Y-91500683D01*
X118630997Y-90478018D01*
X119113055Y-89530631D01*
X119716777Y-88596149D01*
X120229707Y-87917105D01*
X121322569Y-86666318D01*
X122605481Y-85419749D01*
X124065373Y-84187138D01*
X125689171Y-82978223D01*
X127463800Y-81802741D01*
X129376186Y-80670431D01*
X131395326Y-79600020D01*
X131919930Y-79334047D01*
X132292121Y-79134392D01*
X132542527Y-78979138D01*
X132701778Y-78846364D01*
X132800500Y-78714153D01*
X132869324Y-78560584D01*
X132877046Y-78539630D01*
X132954377Y-78108581D01*
X132851444Y-77759073D01*
X132577783Y-77500075D01*
X132142929Y-77340556D01*
X131556416Y-77289484D01*
X131548043Y-77289571D01*
X130759148Y-77221716D01*
X129947343Y-76995429D01*
X129097132Y-76603735D01*
X128193020Y-76039662D01*
X127342664Y-75396892D01*
X126951178Y-75094518D01*
X126577482Y-74831690D01*
X126272368Y-74642848D01*
X126128574Y-74573756D01*
X125561624Y-74440171D01*
X124831578Y-74382723D01*
X123963409Y-74400593D01*
X122982083Y-74492960D01*
X121912573Y-74659003D01*
X121577076Y-74723296D01*
X121043216Y-74828006D01*
X120659735Y-74892396D01*
X120377928Y-74916810D01*
X120149085Y-74901592D01*
X119924499Y-74847087D01*
X119655458Y-74753638D01*
X119610701Y-74737183D01*
X119166548Y-74549445D01*
X118830753Y-74337036D01*
X118512022Y-74042548D01*
X118096115Y-73539655D01*
X117748815Y-72985224D01*
X117503166Y-72439293D01*
X117397866Y-72018094D01*
X117406558Y-71426194D01*
X117551576Y-70796186D01*
X117810363Y-70216637D01*
X117888168Y-70093007D01*
X118058052Y-69859237D01*
X118243720Y-69650596D01*
X118465195Y-69456803D01*
X118742500Y-69267573D01*
X119095656Y-69072627D01*
X119544687Y-68861680D01*
X120109615Y-68624453D01*
X120810463Y-68350660D01*
X121667253Y-68030022D01*
X122497895Y-67725780D01*
X123297427Y-67432075D01*
X124046106Y-67152154D01*
X124719952Y-66895355D01*
X125294980Y-66671017D01*
X125747205Y-66488479D01*
X126052645Y-66357080D01*
X126179405Y-66292258D01*
X126397425Y-66100300D01*
X126659194Y-65812102D01*
X126838045Y-65584011D01*
X127253184Y-65062418D01*
X127639830Y-64691879D01*
X128042353Y-64433759D01*
X128280446Y-64328098D01*
X128872105Y-64156048D01*
X129502102Y-64097258D01*
X130215076Y-64151337D01*
X130998800Y-64304255D01*
X131682476Y-64446443D01*
X132217425Y-64503198D01*
X132641875Y-64468702D01*
X132994053Y-64337129D01*
X133312187Y-64102662D01*
X133488939Y-63925095D01*
X133667375Y-63705812D01*
X133800859Y-63466366D01*
X133896195Y-63173255D01*
X133960191Y-62792977D01*
X133999653Y-62292032D01*
X134021389Y-61636916D01*
X134027298Y-61275346D01*
X134039518Y-60709189D01*
X134059360Y-60215580D01*
X134084676Y-59829690D01*
X134113315Y-59586688D01*
X134134629Y-59520071D01*
X134286757Y-59517327D01*
X134565814Y-59617104D01*
X134936915Y-59799017D01*
X135365176Y-60042678D01*
X135815710Y-60327703D01*
X136253633Y-60633704D01*
X136644059Y-60940296D01*
X136799978Y-61077645D01*
X137190758Y-61483465D01*
X137621846Y-62004356D01*
X138041994Y-62573983D01*
X138399956Y-63126013D01*
X138453641Y-63218062D01*
X138695118Y-63597222D01*
X138973084Y-63933744D01*
X139324537Y-64262720D01*
X139786473Y-64619241D01*
X140318225Y-64986629D01*
X141198054Y-65656149D01*
X142026620Y-66440595D01*
X142745905Y-67281731D01*
X143083473Y-67762222D01*
X143702420Y-68865005D01*
X144241756Y-70112315D01*
X144685555Y-71455719D01*
X145017895Y-72846784D01*
X145222849Y-74237074D01*
X145227297Y-74282802D01*
X145287995Y-75251551D01*
X145275308Y-76187819D01*
X145183385Y-77131595D01*
X145006374Y-78122867D01*
X144738424Y-79201623D01*
X144373684Y-80407848D01*
X144296370Y-80644408D01*
X144020843Y-81444129D01*
X145822224Y-82099778D01*
X145896745Y-81913637D01*
X146418855Y-80322814D01*
X146816613Y-78768035D01*
X147081650Y-77282310D01*
X147205594Y-75898654D01*
X147208416Y-75817880D01*
X147198260Y-74953018D01*
X147124081Y-73970610D01*
X146994316Y-72942949D01*
X146817403Y-71942329D01*
X146690080Y-71376687D01*
X146201566Y-69729945D01*
X145585410Y-68237220D01*
X144835638Y-66889776D01*
X143946272Y-65678881D01*
X142911339Y-64595801D01*
X141724863Y-63631803D01*
X141103465Y-63211176D01*
X140760342Y-62971831D01*
X140494445Y-62724578D01*
X140247971Y-62407416D01*
X140014788Y-62043472D01*
X139236822Y-60905435D01*
X138393650Y-59944585D01*
X137460046Y-59138882D01*
X136410793Y-58466284D01*
X135329713Y-57949451D01*
X134510775Y-57628078D01*
X133847653Y-57413131D01*
G36*
X75275691Y-98921962D02*
G01*
X75566233Y-98881357D01*
X75830339Y-98795567D01*
X76042647Y-98698434D01*
X76372655Y-98501020D01*
X76698258Y-98250584D01*
X76856716Y-98098894D01*
X77221070Y-97587865D01*
X77450480Y-97012738D01*
X77546368Y-96403484D01*
X77510155Y-95790073D01*
X77343261Y-95202477D01*
X77047108Y-94670668D01*
X76675081Y-94267799D01*
X76165384Y-93937256D01*
X75571732Y-93727043D01*
X74935612Y-93643744D01*
X74298510Y-93693942D01*
X73853230Y-93819977D01*
X73376054Y-94081484D01*
X72935425Y-94467495D01*
X72578439Y-94933512D01*
X72474178Y-95123000D01*
X72367596Y-95370278D01*
X72304083Y-95614920D01*
X72273434Y-95914873D01*
X72267975Y-96184272D01*
X74149064Y-96184272D01*
X74254019Y-95902915D01*
X74324036Y-95811507D01*
X74610837Y-95584227D01*
X74913579Y-95523499D01*
X75221297Y-95630362D01*
X75337596Y-95715418D01*
X75578901Y-96002102D01*
X75654450Y-96304810D01*
X75564474Y-96606067D01*
X75322257Y-96877951D01*
X75041597Y-97019084D01*
X74760454Y-97020623D01*
X74504727Y-96910240D01*
X74300320Y-96715606D01*
X74173132Y-96464393D01*
X74149064Y-96184272D01*
X72267975Y-96184272D01*
X72265461Y-96308334D01*
X72271655Y-96701244D01*
X72298461Y-96981637D01*
X72356554Y-97206038D01*
X72456608Y-97430973D01*
X72489297Y-97493667D01*
X72875678Y-98066102D01*
X73350318Y-98494025D01*
X73913229Y-98777442D01*
X74564423Y-98916359D01*
X74887666Y-98931734D01*
X75275691Y-98921962D01*
X75275691Y-98921962D01*
G37*
X75275691Y-98921962D02*
X75566233Y-98881357D01*
X75830339Y-98795567D01*
X76042647Y-98698434D01*
X76372655Y-98501020D01*
X76698258Y-98250584D01*
X76856716Y-98098894D01*
X77221070Y-97587865D01*
X77450480Y-97012738D01*
X77546368Y-96403484D01*
X77510155Y-95790073D01*
X77343261Y-95202477D01*
X77047108Y-94670668D01*
X76675081Y-94267799D01*
X76165384Y-93937256D01*
X75571732Y-93727043D01*
X74935612Y-93643744D01*
X74298510Y-93693942D01*
X73853230Y-93819977D01*
X73376054Y-94081484D01*
X72935425Y-94467495D01*
X72578439Y-94933512D01*
X72474178Y-95123000D01*
X72367596Y-95370278D01*
X72304083Y-95614920D01*
X72273434Y-95914873D01*
X72267975Y-96184272D01*
X74149064Y-96184272D01*
X74254019Y-95902915D01*
X74324036Y-95811507D01*
X74610837Y-95584227D01*
X74913579Y-95523499D01*
X75221297Y-95630362D01*
X75337596Y-95715418D01*
X75578901Y-96002102D01*
X75654450Y-96304810D01*
X75564474Y-96606067D01*
X75322257Y-96877951D01*
X75041597Y-97019084D01*
X74760454Y-97020623D01*
X74504727Y-96910240D01*
X74300320Y-96715606D01*
X74173132Y-96464393D01*
X74149064Y-96184272D01*
X72267975Y-96184272D01*
X72265461Y-96308334D01*
X72271655Y-96701244D01*
X72298461Y-96981637D01*
X72356554Y-97206038D01*
X72456608Y-97430973D01*
X72489297Y-97493667D01*
X72875678Y-98066102D01*
X73350318Y-98494025D01*
X73913229Y-98777442D01*
X74564423Y-98916359D01*
X74887666Y-98931734D01*
X75275691Y-98921962D01*
G36*
X68305701Y-96982780D02*
G01*
X68713084Y-96886108D01*
X69127559Y-96674753D01*
X69537370Y-96344403D01*
X69897834Y-95940600D01*
X70164265Y-95508885D01*
X70236137Y-95333831D01*
X70376652Y-94676359D01*
X70362588Y-94009334D01*
X70199999Y-93365962D01*
X69894937Y-92779450D01*
X69731305Y-92564566D01*
X69372531Y-92252793D01*
X68898733Y-92001885D01*
X68357803Y-91826536D01*
X67797634Y-91741440D01*
X67266117Y-91761291D01*
X67169770Y-91778668D01*
X66549811Y-91991096D01*
X66007559Y-92346598D01*
X65562963Y-92829067D01*
X65291139Y-93295345D01*
X65161653Y-93623147D01*
X65093602Y-93944799D01*
X65070913Y-94341289D01*
X65070599Y-94385403D01*
X66971333Y-94385403D01*
X67047013Y-94110875D01*
X67240862Y-93863411D01*
X67503093Y-93691626D01*
X67733333Y-93641334D01*
X68025230Y-93716891D01*
X68247846Y-93888821D01*
X68443140Y-94181128D01*
X68480106Y-94486123D01*
X68364633Y-94775185D01*
X68102607Y-95019689D01*
X68003534Y-95076394D01*
X67714815Y-95139869D01*
X67426018Y-95067104D01*
X67178783Y-94885972D01*
X67014746Y-94624349D01*
X66971333Y-94385403D01*
X65070599Y-94385403D01*
X65070442Y-94407377D01*
X65144559Y-95081646D01*
X65364355Y-95682611D01*
X65719759Y-96195259D01*
X66200702Y-96604579D01*
X66720716Y-96867742D01*
X67198855Y-96986058D01*
X67752073Y-97024634D01*
X68305701Y-96982780D01*
X68305701Y-96982780D01*
G37*
X68305701Y-96982780D02*
X68713084Y-96886108D01*
X69127559Y-96674753D01*
X69537370Y-96344403D01*
X69897834Y-95940600D01*
X70164265Y-95508885D01*
X70236137Y-95333831D01*
X70376652Y-94676359D01*
X70362588Y-94009334D01*
X70199999Y-93365962D01*
X69894937Y-92779450D01*
X69731305Y-92564566D01*
X69372531Y-92252793D01*
X68898733Y-92001885D01*
X68357803Y-91826536D01*
X67797634Y-91741440D01*
X67266117Y-91761291D01*
X67169770Y-91778668D01*
X66549811Y-91991096D01*
X66007559Y-92346598D01*
X65562963Y-92829067D01*
X65291139Y-93295345D01*
X65161653Y-93623147D01*
X65093602Y-93944799D01*
X65070913Y-94341289D01*
X65070599Y-94385403D01*
X66971333Y-94385403D01*
X67047013Y-94110875D01*
X67240862Y-93863411D01*
X67503093Y-93691626D01*
X67733333Y-93641334D01*
X68025230Y-93716891D01*
X68247846Y-93888821D01*
X68443140Y-94181128D01*
X68480106Y-94486123D01*
X68364633Y-94775185D01*
X68102607Y-95019689D01*
X68003534Y-95076394D01*
X67714815Y-95139869D01*
X67426018Y-95067104D01*
X67178783Y-94885972D01*
X67014746Y-94624349D01*
X66971333Y-94385403D01*
X65070599Y-94385403D01*
X65070442Y-94407377D01*
X65144559Y-95081646D01*
X65364355Y-95682611D01*
X65719759Y-96195259D01*
X66200702Y-96604579D01*
X66720716Y-96867742D01*
X67198855Y-96986058D01*
X67752073Y-97024634D01*
X68305701Y-96982780D01*
G36*
X60972835Y-95115042D02*
G01*
X61254266Y-95087281D01*
X61479935Y-95028161D01*
X61706487Y-94926904D01*
X61764333Y-94896703D01*
X62310262Y-94519644D01*
X62753348Y-94034241D01*
X63007722Y-93599000D01*
X63155922Y-93112794D01*
X63210678Y-92551770D01*
X63172037Y-91982296D01*
X63040048Y-91470737D01*
X63006100Y-91389300D01*
X62681012Y-90860224D01*
X62239034Y-90428433D01*
X61709828Y-90106597D01*
X61123057Y-89907385D01*
X60508381Y-89843465D01*
X59895462Y-89927506D01*
X59715386Y-89983814D01*
X59093195Y-90279359D01*
X58606762Y-90671957D01*
X58347603Y-91005222D01*
X58104444Y-91450704D01*
X57967719Y-91872710D01*
X57920596Y-92339566D01*
X57922695Y-92419423D01*
X59809408Y-92419423D01*
X59940721Y-92113629D01*
X60173394Y-91899530D01*
X60464794Y-91791530D01*
X60772283Y-91804033D01*
X61053228Y-91951444D01*
X61090848Y-91986485D01*
X61269737Y-92264763D01*
X61306111Y-92562987D01*
X61216636Y-92843350D01*
X61017975Y-93068043D01*
X60726793Y-93199256D01*
X60548041Y-93218000D01*
X60231476Y-93148546D01*
X59979672Y-92965542D01*
X59827812Y-92707027D01*
X59809408Y-92419423D01*
X57922695Y-92419423D01*
X57930071Y-92699950D01*
X58042095Y-93378448D01*
X58290936Y-93957385D01*
X58676265Y-94436248D01*
X59197751Y-94814524D01*
X59335957Y-94886773D01*
X59600093Y-95005288D01*
X59838006Y-95076360D01*
X60110241Y-95111455D01*
X60477343Y-95122044D01*
X60579000Y-95122221D01*
X60972835Y-95115042D01*
X60972835Y-95115042D01*
G37*
X60972835Y-95115042D02*
X61254266Y-95087281D01*
X61479935Y-95028161D01*
X61706487Y-94926904D01*
X61764333Y-94896703D01*
X62310262Y-94519644D01*
X62753348Y-94034241D01*
X63007722Y-93599000D01*
X63155922Y-93112794D01*
X63210678Y-92551770D01*
X63172037Y-91982296D01*
X63040048Y-91470737D01*
X63006100Y-91389300D01*
X62681012Y-90860224D01*
X62239034Y-90428433D01*
X61709828Y-90106597D01*
X61123057Y-89907385D01*
X60508381Y-89843465D01*
X59895462Y-89927506D01*
X59715386Y-89983814D01*
X59093195Y-90279359D01*
X58606762Y-90671957D01*
X58347603Y-91005222D01*
X58104444Y-91450704D01*
X57967719Y-91872710D01*
X57920596Y-92339566D01*
X57922695Y-92419423D01*
X59809408Y-92419423D01*
X59940721Y-92113629D01*
X60173394Y-91899530D01*
X60464794Y-91791530D01*
X60772283Y-91804033D01*
X61053228Y-91951444D01*
X61090848Y-91986485D01*
X61269737Y-92264763D01*
X61306111Y-92562987D01*
X61216636Y-92843350D01*
X61017975Y-93068043D01*
X60726793Y-93199256D01*
X60548041Y-93218000D01*
X60231476Y-93148546D01*
X59979672Y-92965542D01*
X59827812Y-92707027D01*
X59809408Y-92419423D01*
X57922695Y-92419423D01*
X57930071Y-92699950D01*
X58042095Y-93378448D01*
X58290936Y-93957385D01*
X58676265Y-94436248D01*
X59197751Y-94814524D01*
X59335957Y-94886773D01*
X59600093Y-95005288D01*
X59838006Y-95076360D01*
X60110241Y-95111455D01*
X60477343Y-95122044D01*
X60579000Y-95122221D01*
X60972835Y-95115042D01*
G36*
X46683602Y-93446630D02*
G01*
X46924163Y-93385733D01*
X47197418Y-93273541D01*
X47217859Y-93264234D01*
X47778365Y-92937990D01*
X48206816Y-92524253D01*
X48481876Y-92093754D01*
X48721568Y-91451794D01*
X48799152Y-90800173D01*
X48718013Y-90160742D01*
X48481535Y-89555349D01*
X48093106Y-89005844D01*
X47985947Y-88892973D01*
X47534445Y-88551656D01*
X46988938Y-88312273D01*
X46396799Y-88185554D01*
X45805399Y-88182229D01*
X45323276Y-88289868D01*
X44689150Y-88587750D01*
X44188382Y-88984920D01*
X43809439Y-89493024D01*
X43556642Y-90074120D01*
X43455054Y-90639388D01*
X43464012Y-90789181D01*
X45393031Y-90789181D01*
X45481791Y-90493877D01*
X45608840Y-90322800D01*
X45896961Y-90122625D01*
X46206321Y-90085967D01*
X46514946Y-90212614D01*
X46657846Y-90332821D01*
X46815967Y-90532753D01*
X46900775Y-90721420D01*
X46905333Y-90760359D01*
X46834463Y-91067672D01*
X46652213Y-91344873D01*
X46414342Y-91517622D01*
X46087374Y-91579429D01*
X45799966Y-91505163D01*
X45573911Y-91327150D01*
X45431002Y-91077714D01*
X45393031Y-90789181D01*
X43464012Y-90789181D01*
X43491025Y-91240878D01*
X43653395Y-91833841D01*
X43931002Y-92373526D01*
X44218141Y-92726498D01*
X44665361Y-93086667D01*
X45173157Y-93319951D01*
X45775122Y-93439902D01*
X46032525Y-93458455D01*
X46408726Y-93467210D01*
X46683602Y-93446630D01*
X46683602Y-93446630D01*
G37*
X46683602Y-93446630D02*
X46924163Y-93385733D01*
X47197418Y-93273541D01*
X47217859Y-93264234D01*
X47778365Y-92937990D01*
X48206816Y-92524253D01*
X48481876Y-92093754D01*
X48721568Y-91451794D01*
X48799152Y-90800173D01*
X48718013Y-90160742D01*
X48481535Y-89555349D01*
X48093106Y-89005844D01*
X47985947Y-88892973D01*
X47534445Y-88551656D01*
X46988938Y-88312273D01*
X46396799Y-88185554D01*
X45805399Y-88182229D01*
X45323276Y-88289868D01*
X44689150Y-88587750D01*
X44188382Y-88984920D01*
X43809439Y-89493024D01*
X43556642Y-90074120D01*
X43455054Y-90639388D01*
X43464012Y-90789181D01*
X45393031Y-90789181D01*
X45481791Y-90493877D01*
X45608840Y-90322800D01*
X45896961Y-90122625D01*
X46206321Y-90085967D01*
X46514946Y-90212614D01*
X46657846Y-90332821D01*
X46815967Y-90532753D01*
X46900775Y-90721420D01*
X46905333Y-90760359D01*
X46834463Y-91067672D01*
X46652213Y-91344873D01*
X46414342Y-91517622D01*
X46087374Y-91579429D01*
X45799966Y-91505163D01*
X45573911Y-91327150D01*
X45431002Y-91077714D01*
X45393031Y-90789181D01*
X43464012Y-90789181D01*
X43491025Y-91240878D01*
X43653395Y-91833841D01*
X43931002Y-92373526D01*
X44218141Y-92726498D01*
X44665361Y-93086667D01*
X45173157Y-93319951D01*
X45775122Y-93439902D01*
X46032525Y-93458455D01*
X46408726Y-93467210D01*
X46683602Y-93446630D01*
G36*
X51810268Y-88241737D02*
G01*
X52144397Y-88177104D01*
X52475366Y-88051229D01*
X52498970Y-88040423D01*
X53046619Y-87705474D01*
X53473580Y-87277381D01*
X53780560Y-86779204D01*
X53968267Y-86234001D01*
X54037409Y-85664830D01*
X53988694Y-85094750D01*
X53822827Y-84546820D01*
X53540518Y-84044098D01*
X53142474Y-83609643D01*
X52629402Y-83266514D01*
X52348708Y-83143344D01*
X51942718Y-83037791D01*
X51471872Y-82984855D01*
X51009983Y-82988439D01*
X50630870Y-83052446D01*
X50630666Y-83052508D01*
X50039178Y-83318110D01*
X49517289Y-83719678D01*
X49098341Y-84227771D01*
X48910198Y-84571637D01*
X48779676Y-85005530D01*
X48725840Y-85517607D01*
X48726655Y-85536622D01*
X50630033Y-85536622D01*
X50733566Y-85241655D01*
X50978160Y-84999905D01*
X51034961Y-84965988D01*
X51345775Y-84877688D01*
X51650395Y-84958411D01*
X51921833Y-85179025D01*
X52111688Y-85468372D01*
X52133047Y-85748045D01*
X51985777Y-86026459D01*
X51907179Y-86112513D01*
X51606962Y-86317561D01*
X51293915Y-86356802D01*
X50985935Y-86229892D01*
X50868132Y-86132493D01*
X50673057Y-85846377D01*
X50630033Y-85536622D01*
X48726655Y-85536622D01*
X48748335Y-86041910D01*
X48846809Y-86512485D01*
X48921618Y-86701267D01*
X49238895Y-87231500D01*
X49628943Y-87636759D01*
X50132454Y-87958337D01*
X50187622Y-87986012D01*
X50524170Y-88139096D01*
X50801049Y-88223184D01*
X51101270Y-88257274D01*
X51391108Y-88261463D01*
X51810268Y-88241737D01*
X51810268Y-88241737D01*
G37*
X51810268Y-88241737D02*
X52144397Y-88177104D01*
X52475366Y-88051229D01*
X52498970Y-88040423D01*
X53046619Y-87705474D01*
X53473580Y-87277381D01*
X53780560Y-86779204D01*
X53968267Y-86234001D01*
X54037409Y-85664830D01*
X53988694Y-85094750D01*
X53822827Y-84546820D01*
X53540518Y-84044098D01*
X53142474Y-83609643D01*
X52629402Y-83266514D01*
X52348708Y-83143344D01*
X51942718Y-83037791D01*
X51471872Y-82984855D01*
X51009983Y-82988439D01*
X50630870Y-83052446D01*
X50630666Y-83052508D01*
X50039178Y-83318110D01*
X49517289Y-83719678D01*
X49098341Y-84227771D01*
X48910198Y-84571637D01*
X48779676Y-85005530D01*
X48725840Y-85517607D01*
X48726655Y-85536622D01*
X50630033Y-85536622D01*
X50733566Y-85241655D01*
X50978160Y-84999905D01*
X51034961Y-84965988D01*
X51345775Y-84877688D01*
X51650395Y-84958411D01*
X51921833Y-85179025D01*
X52111688Y-85468372D01*
X52133047Y-85748045D01*
X51985777Y-86026459D01*
X51907179Y-86112513D01*
X51606962Y-86317561D01*
X51293915Y-86356802D01*
X50985935Y-86229892D01*
X50868132Y-86132493D01*
X50673057Y-85846377D01*
X50630033Y-85536622D01*
X48726655Y-85536622D01*
X48748335Y-86041910D01*
X48846809Y-86512485D01*
X48921618Y-86701267D01*
X49238895Y-87231500D01*
X49628943Y-87636759D01*
X50132454Y-87958337D01*
X50187622Y-87986012D01*
X50524170Y-88139096D01*
X50801049Y-88223184D01*
X51101270Y-88257274D01*
X51391108Y-88261463D01*
X51810268Y-88241737D01*
G36*
X57052164Y-83008396D02*
G01*
X57343733Y-82982720D01*
X57567106Y-82929639D01*
X57772685Y-82840791D01*
X57809981Y-82821266D01*
X58362518Y-82440520D01*
X58797205Y-81963510D01*
X59105241Y-81414499D01*
X59277824Y-80817747D01*
X59306154Y-80197516D01*
X59181429Y-79578068D01*
X59079821Y-79320763D01*
X58748640Y-78783385D01*
X58307090Y-78344199D01*
X57783408Y-78015727D01*
X57205830Y-77810493D01*
X56602592Y-77741019D01*
X56001932Y-77819828D01*
X55821943Y-77875868D01*
X55192682Y-78171458D01*
X54697387Y-78565561D01*
X54324086Y-79070802D01*
X54060812Y-79699805D01*
X54046230Y-79748672D01*
X53952718Y-80358186D01*
X53957710Y-80407982D01*
X55880000Y-80407982D01*
X55955414Y-80139660D01*
X56148189Y-79895436D01*
X56408125Y-79723842D01*
X56642000Y-79671334D01*
X56933897Y-79746891D01*
X57156512Y-79918821D01*
X57314634Y-80118753D01*
X57399441Y-80307420D01*
X57404000Y-80346359D01*
X57330178Y-80660832D01*
X57139170Y-80941108D01*
X56899992Y-81109013D01*
X56581993Y-81159665D01*
X56282556Y-81070133D01*
X56042040Y-80868155D01*
X55900806Y-80581471D01*
X55880000Y-80407982D01*
X53957710Y-80407982D01*
X54013874Y-80968149D01*
X54217360Y-81551033D01*
X54550837Y-82079312D01*
X55001967Y-82525457D01*
X55408960Y-82789004D01*
X55637267Y-82898520D01*
X55849858Y-82965982D01*
X56100240Y-83001200D01*
X56441919Y-83013981D01*
X56642000Y-83015026D01*
X57052164Y-83008396D01*
X57052164Y-83008396D01*
G37*
X57052164Y-83008396D02*
X57343733Y-82982720D01*
X57567106Y-82929639D01*
X57772685Y-82840791D01*
X57809981Y-82821266D01*
X58362518Y-82440520D01*
X58797205Y-81963510D01*
X59105241Y-81414499D01*
X59277824Y-80817747D01*
X59306154Y-80197516D01*
X59181429Y-79578068D01*
X59079821Y-79320763D01*
X58748640Y-78783385D01*
X58307090Y-78344199D01*
X57783408Y-78015727D01*
X57205830Y-77810493D01*
X56602592Y-77741019D01*
X56001932Y-77819828D01*
X55821943Y-77875868D01*
X55192682Y-78171458D01*
X54697387Y-78565561D01*
X54324086Y-79070802D01*
X54060812Y-79699805D01*
X54046230Y-79748672D01*
X53952718Y-80358186D01*
X53957710Y-80407982D01*
X55880000Y-80407982D01*
X55955414Y-80139660D01*
X56148189Y-79895436D01*
X56408125Y-79723842D01*
X56642000Y-79671334D01*
X56933897Y-79746891D01*
X57156512Y-79918821D01*
X57314634Y-80118753D01*
X57399441Y-80307420D01*
X57404000Y-80346359D01*
X57330178Y-80660832D01*
X57139170Y-80941108D01*
X56899992Y-81109013D01*
X56581993Y-81159665D01*
X56282556Y-81070133D01*
X56042040Y-80868155D01*
X55900806Y-80581471D01*
X55880000Y-80407982D01*
X53957710Y-80407982D01*
X54013874Y-80968149D01*
X54217360Y-81551033D01*
X54550837Y-82079312D01*
X55001967Y-82525457D01*
X55408960Y-82789004D01*
X55637267Y-82898520D01*
X55849858Y-82965982D01*
X56100240Y-83001200D01*
X56441919Y-83013981D01*
X56642000Y-83015026D01*
X57052164Y-83008396D01*
G36*
X46732420Y-82997742D02*
G01*
X47314844Y-82802754D01*
X47848205Y-82465251D01*
X47888414Y-82431535D01*
X48314651Y-81961811D01*
X48607736Y-81414803D01*
X48766605Y-80819190D01*
X48790191Y-80203649D01*
X48677426Y-79596859D01*
X48427245Y-79027496D01*
X48038581Y-78524238D01*
X48033915Y-78519560D01*
X47565003Y-78158793D01*
X47009909Y-77906079D01*
X46412016Y-77771719D01*
X45814708Y-77766017D01*
X45323276Y-77875868D01*
X44693123Y-78179748D01*
X44181231Y-78587603D01*
X43796134Y-79080574D01*
X43546362Y-79639800D01*
X43440450Y-80246422D01*
X43446301Y-80326384D01*
X45397669Y-80326384D01*
X45513555Y-80028035D01*
X45608840Y-79908800D01*
X45896961Y-79708625D01*
X46206321Y-79671967D01*
X46514946Y-79798614D01*
X46657846Y-79918821D01*
X46855603Y-80195365D01*
X46886866Y-80471884D01*
X46751692Y-80761781D01*
X46662060Y-80872265D01*
X46452739Y-81061698D01*
X46234475Y-81137211D01*
X46100755Y-81144534D01*
X45780916Y-81073976D01*
X45546813Y-80888201D01*
X45413909Y-80626055D01*
X45397669Y-80326384D01*
X43446301Y-80326384D01*
X43486928Y-80881581D01*
X43683100Y-81501270D01*
X44006571Y-82038966D01*
X44439073Y-82469121D01*
X44954258Y-82785904D01*
X45525777Y-82983488D01*
X46127281Y-83056043D01*
X46732420Y-82997742D01*
X46732420Y-82997742D01*
G37*
X46732420Y-82997742D02*
X47314844Y-82802754D01*
X47848205Y-82465251D01*
X47888414Y-82431535D01*
X48314651Y-81961811D01*
X48607736Y-81414803D01*
X48766605Y-80819190D01*
X48790191Y-80203649D01*
X48677426Y-79596859D01*
X48427245Y-79027496D01*
X48038581Y-78524238D01*
X48033915Y-78519560D01*
X47565003Y-78158793D01*
X47009909Y-77906079D01*
X46412016Y-77771719D01*
X45814708Y-77766017D01*
X45323276Y-77875868D01*
X44693123Y-78179748D01*
X44181231Y-78587603D01*
X43796134Y-79080574D01*
X43546362Y-79639800D01*
X43440450Y-80246422D01*
X43446301Y-80326384D01*
X45397669Y-80326384D01*
X45513555Y-80028035D01*
X45608840Y-79908800D01*
X45896961Y-79708625D01*
X46206321Y-79671967D01*
X46514946Y-79798614D01*
X46657846Y-79918821D01*
X46855603Y-80195365D01*
X46886866Y-80471884D01*
X46751692Y-80761781D01*
X46662060Y-80872265D01*
X46452739Y-81061698D01*
X46234475Y-81137211D01*
X46100755Y-81144534D01*
X45780916Y-81073976D01*
X45546813Y-80888201D01*
X45413909Y-80626055D01*
X45397669Y-80326384D01*
X43446301Y-80326384D01*
X43486928Y-80881581D01*
X43683100Y-81501270D01*
X44006571Y-82038966D01*
X44439073Y-82469121D01*
X44954258Y-82785904D01*
X45525777Y-82983488D01*
X46127281Y-83056043D01*
X46732420Y-82997742D01*
G36*
X64050333Y-110191742D02*
G01*
X73279000Y-104870239D01*
X74707633Y-104046573D01*
X75996903Y-103303402D01*
X77154007Y-102636402D01*
X78186142Y-102041252D01*
X79100504Y-101513628D01*
X79904292Y-101049210D01*
X80604701Y-100643674D01*
X81208929Y-100292698D01*
X81724173Y-99991960D01*
X82157631Y-99737137D01*
X82516498Y-99523908D01*
X82807973Y-99347950D01*
X83039252Y-99204940D01*
X83217533Y-99090557D01*
X83350012Y-99000478D01*
X83443886Y-98930380D01*
X83506353Y-98875942D01*
X83544610Y-98832841D01*
X83565854Y-98796754D01*
X83577281Y-98763361D01*
X83586089Y-98728337D01*
X83599475Y-98687361D01*
X83608493Y-98666705D01*
X83654133Y-98573395D01*
X83693970Y-98487247D01*
X83724008Y-98400461D01*
X83740257Y-98305236D01*
X83738723Y-98193772D01*
X83715412Y-98058269D01*
X83666332Y-97890925D01*
X83587491Y-97683941D01*
X83474894Y-97429517D01*
X83324549Y-97119851D01*
X83132463Y-96747144D01*
X82894644Y-96303594D01*
X82607097Y-95781402D01*
X82265831Y-95172768D01*
X81866852Y-94469889D01*
X81406167Y-93664968D01*
X80879783Y-92750202D01*
X80283708Y-91717792D01*
X79613948Y-90559936D01*
X78866510Y-89268836D01*
X78273419Y-88244419D01*
X77367610Y-86681566D01*
X76539340Y-85256381D01*
X75789170Y-83969809D01*
X75117663Y-82822795D01*
X74525378Y-81816287D01*
X74012878Y-80951230D01*
X73580722Y-80228569D01*
X73229472Y-79649251D01*
X72959690Y-79214222D01*
X72771936Y-78924427D01*
X72666771Y-78780812D01*
X72651198Y-78766233D01*
X72440459Y-78677541D01*
X72144223Y-78610483D01*
X71966666Y-78590032D01*
X71501000Y-78558103D01*
X61806666Y-84141250D01*
X60354461Y-84978095D01*
X59043060Y-85734905D01*
X57866122Y-86415441D01*
X56817304Y-87023462D01*
X55890265Y-87562728D01*
X55078662Y-88037001D01*
X54376154Y-88450041D01*
X53776398Y-88805606D01*
X53273053Y-89107459D01*
X52859775Y-89359359D01*
X52530225Y-89565066D01*
X52278058Y-89728341D01*
X52096933Y-89852944D01*
X51980509Y-89942635D01*
X51922443Y-90001174D01*
X51921833Y-90002053D01*
X51779912Y-90299133D01*
X51732961Y-90668147D01*
X51732737Y-90711688D01*
X51738268Y-90846509D01*
X51759332Y-90977819D01*
X53959090Y-90977819D01*
X54035318Y-90923016D01*
X54247613Y-90790612D01*
X54584979Y-90586946D01*
X55036418Y-90318358D01*
X55590936Y-89991187D01*
X56237535Y-89611774D01*
X56965219Y-89186458D01*
X57762993Y-88721578D01*
X58619859Y-88223475D01*
X59524821Y-87698489D01*
X60466883Y-87152959D01*
X61435049Y-86593224D01*
X62418322Y-86025626D01*
X63405705Y-85456503D01*
X64386204Y-84892195D01*
X65348821Y-84339043D01*
X66282560Y-83803385D01*
X67176424Y-83291562D01*
X68019418Y-82809913D01*
X68800544Y-82364778D01*
X69508808Y-81962498D01*
X70133211Y-81609411D01*
X70662759Y-81311857D01*
X71086454Y-81076177D01*
X71393301Y-80908710D01*
X71572303Y-80815796D01*
X71615254Y-80798411D01*
X71671721Y-80872352D01*
X71807296Y-81083855D01*
X72016561Y-81423753D01*
X72294096Y-81882882D01*
X72634482Y-82452074D01*
X73032300Y-83122164D01*
X73482130Y-83883986D01*
X73978555Y-84728375D01*
X74516154Y-85646165D01*
X75089510Y-86628189D01*
X75693201Y-87665282D01*
X76321811Y-88748279D01*
X76630380Y-89281000D01*
X77267713Y-90383019D01*
X77880499Y-91444497D01*
X78463473Y-92456209D01*
X79011366Y-93408933D01*
X79518912Y-94293447D01*
X79980843Y-95100526D01*
X80391893Y-95820948D01*
X80746795Y-96445489D01*
X81040281Y-96964927D01*
X81267085Y-97370038D01*
X81421939Y-97651599D01*
X81499576Y-97800388D01*
X81507862Y-97821957D01*
X81432422Y-97874800D01*
X81220957Y-98005155D01*
X80884435Y-98206713D01*
X80433821Y-98473166D01*
X79880081Y-98798206D01*
X79234181Y-99175526D01*
X78507087Y-99598818D01*
X77709766Y-100061773D01*
X76853182Y-100558083D01*
X75948303Y-101081442D01*
X75006093Y-101625540D01*
X74037520Y-102184070D01*
X73053549Y-102750723D01*
X72065145Y-103319193D01*
X71083276Y-103883170D01*
X70118906Y-104436348D01*
X69183003Y-104972417D01*
X68286532Y-105485071D01*
X67440458Y-105968001D01*
X66655748Y-106414899D01*
X65943369Y-106819457D01*
X65314285Y-107175368D01*
X64779463Y-107476323D01*
X64349869Y-107716015D01*
X64036468Y-107888135D01*
X63850228Y-107986375D01*
X63800473Y-108007745D01*
X63746146Y-107931743D01*
X63614248Y-107720083D01*
X63411236Y-107383936D01*
X63143563Y-106934471D01*
X62817685Y-106382859D01*
X62440056Y-105740269D01*
X62017133Y-105017871D01*
X61555369Y-104226835D01*
X61061220Y-103378331D01*
X60541140Y-102483529D01*
X60001585Y-101553599D01*
X59449009Y-100599710D01*
X58889868Y-99633033D01*
X58330616Y-98664738D01*
X57777709Y-97705994D01*
X57237601Y-96767972D01*
X56716747Y-95861841D01*
X56221602Y-94998771D01*
X55758622Y-94189933D01*
X55334261Y-93446495D01*
X54954973Y-92779628D01*
X54627215Y-92200503D01*
X54357441Y-91720288D01*
X54152106Y-91350153D01*
X54017664Y-91101270D01*
X53960572Y-90984807D01*
X53959090Y-90977819D01*
X51759332Y-90977819D01*
X51760090Y-90982540D01*
X51807417Y-91138928D01*
X51889465Y-91334815D01*
X52015448Y-91589348D01*
X52194580Y-91921671D01*
X52436078Y-92350928D01*
X52749154Y-92896264D01*
X52958384Y-93258121D01*
X53268946Y-93800523D01*
X53545979Y-94295997D01*
X53779449Y-94725648D01*
X53959322Y-95070581D01*
X54075565Y-95311903D01*
X54118146Y-95430720D01*
X54116380Y-95438820D01*
X54023133Y-95449100D01*
X53773697Y-95458335D01*
X53381214Y-95466436D01*
X52858826Y-95473313D01*
X52219675Y-95478877D01*
X51476902Y-95483039D01*
X50643649Y-95485708D01*
X49733059Y-95486795D01*
X48758273Y-95486211D01*
X47732433Y-95483866D01*
X47577900Y-95483367D01*
X41105666Y-95461667D01*
X41105666Y-75734334D01*
X61595000Y-75734334D01*
X61637333Y-78362954D01*
X61650803Y-79150878D01*
X61665602Y-79787393D01*
X61685328Y-80290413D01*
X61713582Y-80677847D01*
X61753960Y-80967605D01*
X61810062Y-81177600D01*
X61885486Y-81325741D01*
X61983832Y-81429940D01*
X62108697Y-81508106D01*
X62263680Y-81578152D01*
X62285133Y-81587139D01*
X62564417Y-81663565D01*
X62839292Y-81635221D01*
X63147389Y-81510506D01*
X63256273Y-81451131D01*
X63345415Y-81379871D01*
X63416787Y-81280347D01*
X63472359Y-81136176D01*
X63514101Y-80930979D01*
X63543984Y-80648374D01*
X63563979Y-80271980D01*
X63576055Y-79785416D01*
X63582183Y-79172302D01*
X63584334Y-78416256D01*
X63584535Y-77876372D01*
X63583913Y-77019447D01*
X63580410Y-76314826D01*
X63571445Y-75745475D01*
X63554439Y-75294367D01*
X63526812Y-74944468D01*
X63485985Y-74678750D01*
X63429377Y-74480181D01*
X63354410Y-74331731D01*
X63258504Y-74216369D01*
X63139079Y-74117065D01*
X63000645Y-74021522D01*
X62712958Y-73829334D01*
X51399991Y-73829334D01*
X49785028Y-73829412D01*
X48330741Y-73829722D01*
X47028471Y-73830379D01*
X45869560Y-73831501D01*
X44845351Y-73833201D01*
X43947185Y-73835595D01*
X43166404Y-73838798D01*
X42494351Y-73842927D01*
X41922367Y-73848097D01*
X41441795Y-73854422D01*
X41043977Y-73862019D01*
X40720253Y-73871003D01*
X40461968Y-73881489D01*
X40260462Y-73893593D01*
X40107077Y-73907431D01*
X39993156Y-73923117D01*
X39910041Y-73940767D01*
X39849073Y-73960497D01*
X39801595Y-73982423D01*
X39798554Y-73984042D01*
X39558004Y-74169486D01*
X39364907Y-74410099D01*
X39355375Y-74427221D01*
X39332920Y-74474847D01*
X39312746Y-74535461D01*
X39294731Y-74617883D01*
X39278753Y-74730933D01*
X39264691Y-74883428D01*
X39252424Y-75084189D01*
X39241830Y-75342033D01*
X39232787Y-75665780D01*
X39225175Y-76064248D01*
X39218872Y-76546257D01*
X39213756Y-77120626D01*
X39209706Y-77796173D01*
X39206600Y-78581717D01*
X39204318Y-79486078D01*
X39202737Y-80518073D01*
X39201736Y-81686523D01*
X39201194Y-83000246D01*
X39200989Y-84468061D01*
X39200983Y-85639013D01*
X39201080Y-87222433D01*
X39201364Y-88645340D01*
X39201963Y-89916556D01*
X39203008Y-91044901D01*
X39204629Y-92039196D01*
X39206957Y-92908262D01*
X39210122Y-93660920D01*
X39214254Y-94305991D01*
X39219483Y-94852296D01*
X39225940Y-95308655D01*
X39233754Y-95683889D01*
X39243057Y-95986820D01*
X39253978Y-96226267D01*
X39266647Y-96411053D01*
X39281195Y-96549997D01*
X39297753Y-96651921D01*
X39316450Y-96725646D01*
X39337416Y-96779992D01*
X39360782Y-96823781D01*
X39366274Y-96832900D01*
X39546503Y-97063782D01*
X39755816Y-97250529D01*
X39764359Y-97256234D01*
X39811783Y-97282448D01*
X39876157Y-97305621D01*
X39968003Y-97326010D01*
X40097841Y-97343874D01*
X40276190Y-97359472D01*
X40513572Y-97373062D01*
X40820506Y-97384902D01*
X41207513Y-97395252D01*
X41685113Y-97404369D01*
X42263826Y-97412513D01*
X42954172Y-97419941D01*
X43766672Y-97426913D01*
X44711846Y-97433687D01*
X45800213Y-97440522D01*
X47042295Y-97447676D01*
X47702531Y-97451334D01*
X55407592Y-97493667D01*
X58984946Y-103673055D01*
X59699464Y-104904441D01*
X60344464Y-106010114D01*
X60918350Y-106987416D01*
X61419527Y-107833691D01*
X61846399Y-108546279D01*
X62197371Y-109122523D01*
X62470847Y-109559766D01*
X62665233Y-109855349D01*
X62778933Y-110006615D01*
X62796512Y-110023055D01*
X63014213Y-110134399D01*
X63305069Y-110185526D01*
X63540529Y-110192705D01*
X64050333Y-110191742D01*
X64050333Y-110191742D01*
G37*
X64050333Y-110191742D02*
X73279000Y-104870239D01*
X74707633Y-104046573D01*
X75996903Y-103303402D01*
X77154007Y-102636402D01*
X78186142Y-102041252D01*
X79100504Y-101513628D01*
X79904292Y-101049210D01*
X80604701Y-100643674D01*
X81208929Y-100292698D01*
X81724173Y-99991960D01*
X82157631Y-99737137D01*
X82516498Y-99523908D01*
X82807973Y-99347950D01*
X83039252Y-99204940D01*
X83217533Y-99090557D01*
X83350012Y-99000478D01*
X83443886Y-98930380D01*
X83506353Y-98875942D01*
X83544610Y-98832841D01*
X83565854Y-98796754D01*
X83577281Y-98763361D01*
X83586089Y-98728337D01*
X83599475Y-98687361D01*
X83608493Y-98666705D01*
X83654133Y-98573395D01*
X83693970Y-98487247D01*
X83724008Y-98400461D01*
X83740257Y-98305236D01*
X83738723Y-98193772D01*
X83715412Y-98058269D01*
X83666332Y-97890925D01*
X83587491Y-97683941D01*
X83474894Y-97429517D01*
X83324549Y-97119851D01*
X83132463Y-96747144D01*
X82894644Y-96303594D01*
X82607097Y-95781402D01*
X82265831Y-95172768D01*
X81866852Y-94469889D01*
X81406167Y-93664968D01*
X80879783Y-92750202D01*
X80283708Y-91717792D01*
X79613948Y-90559936D01*
X78866510Y-89268836D01*
X78273419Y-88244419D01*
X77367610Y-86681566D01*
X76539340Y-85256381D01*
X75789170Y-83969809D01*
X75117663Y-82822795D01*
X74525378Y-81816287D01*
X74012878Y-80951230D01*
X73580722Y-80228569D01*
X73229472Y-79649251D01*
X72959690Y-79214222D01*
X72771936Y-78924427D01*
X72666771Y-78780812D01*
X72651198Y-78766233D01*
X72440459Y-78677541D01*
X72144223Y-78610483D01*
X71966666Y-78590032D01*
X71501000Y-78558103D01*
X61806666Y-84141250D01*
X60354461Y-84978095D01*
X59043060Y-85734905D01*
X57866122Y-86415441D01*
X56817304Y-87023462D01*
X55890265Y-87562728D01*
X55078662Y-88037001D01*
X54376154Y-88450041D01*
X53776398Y-88805606D01*
X53273053Y-89107459D01*
X52859775Y-89359359D01*
X52530225Y-89565066D01*
X52278058Y-89728341D01*
X52096933Y-89852944D01*
X51980509Y-89942635D01*
X51922443Y-90001174D01*
X51921833Y-90002053D01*
X51779912Y-90299133D01*
X51732961Y-90668147D01*
X51732737Y-90711688D01*
X51738268Y-90846509D01*
X51759332Y-90977819D01*
X53959090Y-90977819D01*
X54035318Y-90923016D01*
X54247613Y-90790612D01*
X54584979Y-90586946D01*
X55036418Y-90318358D01*
X55590936Y-89991187D01*
X56237535Y-89611774D01*
X56965219Y-89186458D01*
X57762993Y-88721578D01*
X58619859Y-88223475D01*
X59524821Y-87698489D01*
X60466883Y-87152959D01*
X61435049Y-86593224D01*
X62418322Y-86025626D01*
X63405705Y-85456503D01*
X64386204Y-84892195D01*
X65348821Y-84339043D01*
X66282560Y-83803385D01*
X67176424Y-83291562D01*
X68019418Y-82809913D01*
X68800544Y-82364778D01*
X69508808Y-81962498D01*
X70133211Y-81609411D01*
X70662759Y-81311857D01*
X71086454Y-81076177D01*
X71393301Y-80908710D01*
X71572303Y-80815796D01*
X71615254Y-80798411D01*
X71671721Y-80872352D01*
X71807296Y-81083855D01*
X72016561Y-81423753D01*
X72294096Y-81882882D01*
X72634482Y-82452074D01*
X73032300Y-83122164D01*
X73482130Y-83883986D01*
X73978555Y-84728375D01*
X74516154Y-85646165D01*
X75089510Y-86628189D01*
X75693201Y-87665282D01*
X76321811Y-88748279D01*
X76630380Y-89281000D01*
X77267713Y-90383019D01*
X77880499Y-91444497D01*
X78463473Y-92456209D01*
X79011366Y-93408933D01*
X79518912Y-94293447D01*
X79980843Y-95100526D01*
X80391893Y-95820948D01*
X80746795Y-96445489D01*
X81040281Y-96964927D01*
X81267085Y-97370038D01*
X81421939Y-97651599D01*
X81499576Y-97800388D01*
X81507862Y-97821957D01*
X81432422Y-97874800D01*
X81220957Y-98005155D01*
X80884435Y-98206713D01*
X80433821Y-98473166D01*
X79880081Y-98798206D01*
X79234181Y-99175526D01*
X78507087Y-99598818D01*
X77709766Y-100061773D01*
X76853182Y-100558083D01*
X75948303Y-101081442D01*
X75006093Y-101625540D01*
X74037520Y-102184070D01*
X73053549Y-102750723D01*
X72065145Y-103319193D01*
X71083276Y-103883170D01*
X70118906Y-104436348D01*
X69183003Y-104972417D01*
X68286532Y-105485071D01*
X67440458Y-105968001D01*
X66655748Y-106414899D01*
X65943369Y-106819457D01*
X65314285Y-107175368D01*
X64779463Y-107476323D01*
X64349869Y-107716015D01*
X64036468Y-107888135D01*
X63850228Y-107986375D01*
X63800473Y-108007745D01*
X63746146Y-107931743D01*
X63614248Y-107720083D01*
X63411236Y-107383936D01*
X63143563Y-106934471D01*
X62817685Y-106382859D01*
X62440056Y-105740269D01*
X62017133Y-105017871D01*
X61555369Y-104226835D01*
X61061220Y-103378331D01*
X60541140Y-102483529D01*
X60001585Y-101553599D01*
X59449009Y-100599710D01*
X58889868Y-99633033D01*
X58330616Y-98664738D01*
X57777709Y-97705994D01*
X57237601Y-96767972D01*
X56716747Y-95861841D01*
X56221602Y-94998771D01*
X55758622Y-94189933D01*
X55334261Y-93446495D01*
X54954973Y-92779628D01*
X54627215Y-92200503D01*
X54357441Y-91720288D01*
X54152106Y-91350153D01*
X54017664Y-91101270D01*
X53960572Y-90984807D01*
X53959090Y-90977819D01*
X51759332Y-90977819D01*
X51760090Y-90982540D01*
X51807417Y-91138928D01*
X51889465Y-91334815D01*
X52015448Y-91589348D01*
X52194580Y-91921671D01*
X52436078Y-92350928D01*
X52749154Y-92896264D01*
X52958384Y-93258121D01*
X53268946Y-93800523D01*
X53545979Y-94295997D01*
X53779449Y-94725648D01*
X53959322Y-95070581D01*
X54075565Y-95311903D01*
X54118146Y-95430720D01*
X54116380Y-95438820D01*
X54023133Y-95449100D01*
X53773697Y-95458335D01*
X53381214Y-95466436D01*
X52858826Y-95473313D01*
X52219675Y-95478877D01*
X51476902Y-95483039D01*
X50643649Y-95485708D01*
X49733059Y-95486795D01*
X48758273Y-95486211D01*
X47732433Y-95483866D01*
X47577900Y-95483367D01*
X41105666Y-95461667D01*
X41105666Y-75734334D01*
X61595000Y-75734334D01*
X61637333Y-78362954D01*
X61650803Y-79150878D01*
X61665602Y-79787393D01*
X61685328Y-80290413D01*
X61713582Y-80677847D01*
X61753960Y-80967605D01*
X61810062Y-81177600D01*
X61885486Y-81325741D01*
X61983832Y-81429940D01*
X62108697Y-81508106D01*
X62263680Y-81578152D01*
X62285133Y-81587139D01*
X62564417Y-81663565D01*
X62839292Y-81635221D01*
X63147389Y-81510506D01*
X63256273Y-81451131D01*
X63345415Y-81379871D01*
X63416787Y-81280347D01*
X63472359Y-81136176D01*
X63514101Y-80930979D01*
X63543984Y-80648374D01*
X63563979Y-80271980D01*
X63576055Y-79785416D01*
X63582183Y-79172302D01*
X63584334Y-78416256D01*
X63584535Y-77876372D01*
X63583913Y-77019447D01*
X63580410Y-76314826D01*
X63571445Y-75745475D01*
X63554439Y-75294367D01*
X63526812Y-74944468D01*
X63485985Y-74678750D01*
X63429377Y-74480181D01*
X63354410Y-74331731D01*
X63258504Y-74216369D01*
X63139079Y-74117065D01*
X63000645Y-74021522D01*
X62712958Y-73829334D01*
X51399991Y-73829334D01*
X49785028Y-73829412D01*
X48330741Y-73829722D01*
X47028471Y-73830379D01*
X45869560Y-73831501D01*
X44845351Y-73833201D01*
X43947185Y-73835595D01*
X43166404Y-73838798D01*
X42494351Y-73842927D01*
X41922367Y-73848097D01*
X41441795Y-73854422D01*
X41043977Y-73862019D01*
X40720253Y-73871003D01*
X40461968Y-73881489D01*
X40260462Y-73893593D01*
X40107077Y-73907431D01*
X39993156Y-73923117D01*
X39910041Y-73940767D01*
X39849073Y-73960497D01*
X39801595Y-73982423D01*
X39798554Y-73984042D01*
X39558004Y-74169486D01*
X39364907Y-74410099D01*
X39355375Y-74427221D01*
X39332920Y-74474847D01*
X39312746Y-74535461D01*
X39294731Y-74617883D01*
X39278753Y-74730933D01*
X39264691Y-74883428D01*
X39252424Y-75084189D01*
X39241830Y-75342033D01*
X39232787Y-75665780D01*
X39225175Y-76064248D01*
X39218872Y-76546257D01*
X39213756Y-77120626D01*
X39209706Y-77796173D01*
X39206600Y-78581717D01*
X39204318Y-79486078D01*
X39202737Y-80518073D01*
X39201736Y-81686523D01*
X39201194Y-83000246D01*
X39200989Y-84468061D01*
X39200983Y-85639013D01*
X39201080Y-87222433D01*
X39201364Y-88645340D01*
X39201963Y-89916556D01*
X39203008Y-91044901D01*
X39204629Y-92039196D01*
X39206957Y-92908262D01*
X39210122Y-93660920D01*
X39214254Y-94305991D01*
X39219483Y-94852296D01*
X39225940Y-95308655D01*
X39233754Y-95683889D01*
X39243057Y-95986820D01*
X39253978Y-96226267D01*
X39266647Y-96411053D01*
X39281195Y-96549997D01*
X39297753Y-96651921D01*
X39316450Y-96725646D01*
X39337416Y-96779992D01*
X39360782Y-96823781D01*
X39366274Y-96832900D01*
X39546503Y-97063782D01*
X39755816Y-97250529D01*
X39764359Y-97256234D01*
X39811783Y-97282448D01*
X39876157Y-97305621D01*
X39968003Y-97326010D01*
X40097841Y-97343874D01*
X40276190Y-97359472D01*
X40513572Y-97373062D01*
X40820506Y-97384902D01*
X41207513Y-97395252D01*
X41685113Y-97404369D01*
X42263826Y-97412513D01*
X42954172Y-97419941D01*
X43766672Y-97426913D01*
X44711846Y-97433687D01*
X45800213Y-97440522D01*
X47042295Y-97447676D01*
X47702531Y-97451334D01*
X55407592Y-97493667D01*
X58984946Y-103673055D01*
X59699464Y-104904441D01*
X60344464Y-106010114D01*
X60918350Y-106987416D01*
X61419527Y-107833691D01*
X61846399Y-108546279D01*
X62197371Y-109122523D01*
X62470847Y-109559766D01*
X62665233Y-109855349D01*
X62778933Y-110006615D01*
X62796512Y-110023055D01*
X63014213Y-110134399D01*
X63305069Y-110185526D01*
X63540529Y-110192705D01*
X64050333Y-110191742D01*
D14*
X99575000Y-55030000D02*
X93225000Y-55030000D01*
X93225000Y-55030000D02*
X93225000Y-57570000D01*
X93225000Y-57570000D02*
X99575000Y-57570000D01*
X99575000Y-57570000D02*
X99575000Y-55030000D01*
X91320000Y-56300000D02*
X93225000Y-56300000D01*
X101480000Y-56300000D02*
X99575000Y-56300000D01*
X136450600Y-32850000D02*
X136450600Y-44915000D01*
X136450600Y-44915000D02*
X126849400Y-44915000D01*
X126849400Y-44915000D02*
X126849400Y-32850000D01*
X105875000Y-57570000D02*
X112225000Y-57570000D01*
X112225000Y-57570000D02*
X112225000Y-55030000D01*
X112225000Y-55030000D02*
X105875000Y-55030000D01*
X105875000Y-55030000D02*
X105875000Y-57570000D01*
X114130000Y-56300000D02*
X112225000Y-56300000D01*
X103970000Y-56300000D02*
X105875000Y-56300000D01*
X70790000Y-37108000D02*
X73330000Y-37108000D01*
X73330000Y-65048000D02*
X55550000Y-65048000D01*
X73330000Y-34568000D02*
X73330000Y-65048000D01*
X70790000Y-34568000D02*
X70790000Y-37108000D01*
X55550000Y-65048000D02*
X55550000Y-34568000D01*
X55550000Y-34568000D02*
X73330000Y-34568000D01*
D15*
X135883333Y-37730428D02*
X134782666Y-37730428D01*
X135375333Y-38311000D01*
X135121333Y-38311000D01*
X134952000Y-38383571D01*
X134867333Y-38456142D01*
X134782666Y-38601285D01*
X134782666Y-38964142D01*
X134867333Y-39109285D01*
X134952000Y-39181857D01*
X135121333Y-39254428D01*
X135629333Y-39254428D01*
X135798666Y-39181857D01*
X135883333Y-39109285D01*
X134020666Y-39109285D02*
X133936000Y-39181857D01*
X134020666Y-39254428D01*
X134105333Y-39181857D01*
X134020666Y-39109285D01*
X134020666Y-39254428D01*
X132327333Y-37730428D02*
X133174000Y-37730428D01*
X133258666Y-38456142D01*
X133174000Y-38383571D01*
X133004666Y-38311000D01*
X132581333Y-38311000D01*
X132412000Y-38383571D01*
X132327333Y-38456142D01*
X132242666Y-38601285D01*
X132242666Y-38964142D01*
X132327333Y-39109285D01*
X132412000Y-39181857D01*
X132581333Y-39254428D01*
X133004666Y-39254428D01*
X133174000Y-39181857D01*
X133258666Y-39109285D01*
X131480666Y-39254428D02*
X131480666Y-38238428D01*
X131480666Y-38383571D02*
X131396000Y-38311000D01*
X131226666Y-38238428D01*
X130972666Y-38238428D01*
X130803333Y-38311000D01*
X130718666Y-38456142D01*
X130718666Y-39254428D01*
X130718666Y-38456142D02*
X130634000Y-38311000D01*
X130464666Y-38238428D01*
X130210666Y-38238428D01*
X130041333Y-38311000D01*
X129956666Y-38456142D01*
X129956666Y-39254428D01*
X129110000Y-39254428D02*
X129110000Y-38238428D01*
X129110000Y-38383571D02*
X129025333Y-38311000D01*
X128856000Y-38238428D01*
X128602000Y-38238428D01*
X128432666Y-38311000D01*
X128348000Y-38456142D01*
X128348000Y-39254428D01*
X128348000Y-38456142D02*
X128263333Y-38311000D01*
X128094000Y-38238428D01*
X127840000Y-38238428D01*
X127670666Y-38311000D01*
X127586000Y-38456142D01*
X127586000Y-39254428D01*
D16*
M02*
